<svg xmlns="http://www.w3.org/2000/svg" viewBox="0 0 500 500"><path fill="#ebebeb" d="M0 382.4h500v.25H0zm416.78 16.09h33.12v.25h-33.12zm-94.25 2.72h8.69v.25h-8.69zm74.06-12h19.19v.25h-19.19zm-344.13 1.68h43.19v.25H52.46zm52.1 0h6.33v.25h-6.33zm26.91 4.22h93.68v.25h-93.68zM237 337.8H43.91a5.71 5.71 0 01-5.7-5.71V60.66a5.71 5.71 0 015.7-5.66H237a5.71 5.71 0 015.71 5.71v271.38a5.71 5.71 0 01-5.71 5.71zM43.91 55.2a5.46 5.46 0 00-5.45 5.46v271.43a5.46 5.46 0 005.45 5.46H237a5.47 5.47 0 005.46-5.46V60.66A5.47 5.47 0 00237 55.2zm409.4 282.6h-193.1a5.72 5.72 0 01-5.71-5.71V60.66a5.72 5.72 0 015.71-5.66h193.1a5.71 5.71 0 015.69 5.66v271.43a5.71 5.71 0 01-5.69 5.71zM260.21 55.2a5.47 5.47 0 00-5.46 5.46v271.43a5.47 5.47 0 005.46 5.46h193.1a5.47 5.47 0 005.46-5.46V60.66a5.47 5.47 0 00-5.46-5.46z"/><path d="M153.33 66.83a14.57 14.57 0 0120-13.39 17.62 17.62 0 0133 3.9 15.15 15.15 0 01-1 30.27h-48.17a10.74 10.74 0 01-3.83-20.78z" fill="#f0f0f0"/><path d="M64.69 87.7a5.57 5.57 0 017.64-5.11 6.71 6.71 0 0112.59 1.49 5.78 5.78 0 01-.38 11.54H66.15a4.09 4.09 0 01-1.46-7.92zm369.17-29.88a8.93 8.93 0 00-12.28-8.2A10.79 10.79 0 00401.35 52a9.29 9.29 0 00.6 18.56h29.56a6.59 6.59 0 002.35-12.74z" fill="#f5f5f5"/><rect x="366.68" y="298.41" width="31.73" height="55.42" rx="5.04" transform="rotate(68.62 382.552 326.142)" fill="#f5f5f5"/><path d="M383.92 330.63a.62.62 0 01-.19 0l-27.05-5.24a1 1 0 11.38-2l26.43 5.12 15.93-21.7a1 1 0 011.4-.22A1 1 0 01401 308l-16.31 22.21a1 1 0 01-.77.42z" fill="#fff"/><rect x="84.39" y="266.15" width="31.73" height="55.42" rx="5.04" transform="rotate(104.05 100.244 293.872)" fill="#f5f5f5"/><path d="M99.34 298.52a1 1 0 01-.73-.31l-19-19.95a1 1 0 011.45-1.39l18.57 19.49 25.56-8.44a1 1 0 011.27.64 1 1 0 01-.64 1.27l-26.16 8.64a.93.93 0 01-.32.05z" fill="#fff"/><path d="M408.17 174.1h-50.29a10.53 10.53 0 00-10.5 10.5v39.88l9.77-9.77h51a10.52 10.52 0 0010.49-10.49V184.6a10.52 10.52 0 00-10.47-10.5z" fill="#f0f0f0"/><path d="M406.42 188.48H358.9a1.75 1.75 0 01-1.75-1.75 1.76 1.76 0 011.75-1.73h47.52a1.76 1.76 0 011.75 1.75 1.75 1.75 0 01-1.75 1.73zm0 8.06H358.9a1.76 1.76 0 01-1.75-1.75 1.76 1.76 0 011.75-1.79h47.52a1.76 1.76 0 011.75 1.75 1.76 1.76 0 01-1.75 1.79zm-16.18 8.06H358.9a1.76 1.76 0 01-1.75-1.75 1.76 1.76 0 011.75-1.75h31.34a1.76 1.76 0 011.75 1.75 1.76 1.76 0 01-1.75 1.75z" fill="#fff"/><path d="M72.94 193.86h40.64a8.51 8.51 0 018.48 8.48v25.73l-7.9-7.89H72.94a8.5 8.5 0 01-8.48-8.48v-9.36a8.5 8.5 0 018.48-8.48z" fill="#f5f5f5"/><path d="M74.35 205.48h38.4a1.41 1.41 0 001.41-1.41 1.41 1.41 0 00-1.41-1.41h-38.4a1.41 1.41 0 00-1.41 1.41 1.41 1.41 0 001.41 1.41zM87.43 212h25.32a1.42 1.42 0 001.41-1.42 1.41 1.41 0 00-1.41-1.41H87.43a1.42 1.42 0 00-1.43 1.42 1.43 1.43 0 001.43 1.41z" fill="#e6e6e6"/><ellipse cx="250" cy="416.24" rx="193.89" ry="11.32" fill="#f5f5f5"/><path fill="#fff" d="M409.16 151.88l-2.37-.51-2.46-.29-2.39-.61-2.44-.4-2.43-.43-2.43-.43-2.42-.51-2.43-.46-2.43-.43-2.43-.45-2.43-.45-2.42-.46-2.4-.59-2.42-.49-2.41-.52-2.47-.27-2.39-.66-2.44-.41-2.44-.35-2.42-.52-2.43-.43-2.41-.53-2.45-.34-2.41-.56-2.43-.44-2.45-.4-2.39-.62-2.45-.39-2.41-.54-2.43-.44-2.44-.42-2.43-.47-2.41-.54-2.43-.45-2.42-.48-2.43-.46-2.43-.49-2.46-.27-2.41-.55-2.43-.51-2.42-.48-2.45-.35-2.42-.51-2.41-.54-2.42-.53-2.44-.39-2.44-.38-2.43-.46-2.41-.56-2.42-.47-2.45-.41-2.41-.55-2.45-.35-2.44-.43-2.4-.62-2.44-.41-2.45-.39-2.44-.42-2.42-.5-2.44-.43-2.41-.6-2.45-.36-2.43-.53-2.44-.45-2.38-.53.38-1.86.37-1.89.29-1.92.4-1.89.2-1.93.39-1.9.54-1.86.27-1.92.36-1.9.25-1.92.39-1.89.35-1.9.57-1.86.36-1.9.41-1.89.25-1.92.29-1.92.39-1.89.33-1.91.3-1.91.47-1.89.46-1.88.32-1.91.21-1.93.59-1.86.21-1.93.3-1.92.63-1.85.27-1.89 2.38.44 2.44.37 2.41.49 2.43.42 2.41.55 2.41.54 2.45.37 2.4.56 2.43.5 2.44.35 2.41.54 2.44.39 2.42.49 2.44.37 2.4.61 2.46.29 2.39.64 2.45.35 2.43.47 2.43.43 2.39.65 2.47.26 2.41.52 2.43.47 2.41.57 2.42.47 2.44.43 2.45.34 2.43.45 2.39.66 2.46.28 2.42.5 2.42.53 2.43.42 2.43.48 2.43.46 2.44.38 2.43.48 2.39.64 2.44.45 2.42.48 2.43.48 2.45.34 2.43.43 2.41.58 2.42.48 2.42.51 2.46.31 2.42.49 2.44.39 2.43.49 2.41.56 2.44.39 2.41.57 2.43.46 2.47.31 2.39.67 2.45.37 2.43.47 2.44.4 2.41.59 2.46.35 2.43.47 2.43.53 2.39.48-.46 1.84-.2 1.93-.37 1.9-.35 1.9-.5 1.88-.29 1.91-.32 1.91-.33 1.9-.27 1.92-.41 1.89-.34 1.9-.36 1.9-.45 1.88-.31 1.91-.43 1.89-.26 1.92-.6 1.85-.26 1.92-.28 1.92-.4 1.89-.53 1.87-.3 1.92-.25 1.92-.38 1.9-.36 1.9-.32 1.91-.52 1.88-.33 1.91-.36 1.88z"/><path d="M409.16 152.34h-.1l-2.37-.51-2.41-.29-2.46-.61-7.26-1.26-4.85-1-9.71-1.76-2.42-.6-4.82-1-2.42-.27-2.46-.67-2.39-.4-2.44-.35-2.45-.53-2.41-.42-2.43-.54-2.42-.34-2.45-.57-4.84-.83-2.44-.63-2.4-.38-2.44-.54-7.28-1.32-2.43-.55-9.7-1.88-2.42-.27-4.88-1-2.42-.49-2.43-.34-7.27-1.59-4.86-.77-2.45-.46-2.42-.56-2.41-.47-2.43-.41-2.44-.55-2.42-.34-2.45-.44-2.44-.63-7.29-1.2-2.44-.51-2.42-.43L261 124l-2.41-.35-2.45-.52-2.43-.46-2.4-.53a.46.46 0 01-.35-.54l.74-3.75.3-1.9.4-1.92.2-1.88.39-1.94.55-1.9.26-1.85.36-1.92.24-1.89.75-3.82.58-1.91.37-1.92.41-1.91.53-3.81.4-1.92.63-3.8.93-3.8.31-1.87.21-1.91.61-2 .19-1.84.3-1.94.66-1.93.24-1.8a.46.46 0 01.19-.31.48.48 0 01.35-.08l2.38.43 2.43.38 2.43.49 2.42.42 4.84 1.2 2.41.36 2.45.58 2.41.49 2.42.34 2.44.55 2.41.38 2.44.5 2.42.36 2.44.62 2.4.29 2.46.65 2.4.33 4.87.9L313 76l2.39.24 4.88 1 2.43.57 4.84.9 2.43.34 2.45.45 2.43.66 2.39.28 4.89 1 2.41.41 4.86.94 2.43.38 2.45.48 2.42.66 7.26 1.39 2.42.35 2.45.42 2.43.59 4.83 1 2.42.31 2.46.48 2.42.4 2.45.49 2.42.56 2.42.39 2.44.57 2.41.46 2.43.3 2.46.68 2.4.36 2.44.48 2.43.39 2.45.6 2.41.34 2.46.48 4.82 1a.49.49 0 01.3.21.45.45 0 01.06.36l-.46 1.84-.19 1.87-.73 3.84-.5 1.9-1.25 7.63-.41 1.92-.7 3.8-.45 1.9-.31 1.88-.43 1.91-.26 1.88-.61 1.93-.52 3.77-.41 1.92-.54 1.9-.54 3.77-.74 3.83-.32 1.9-.52 1.92-.69 3.75a.45.45 0 01-.2.3.46.46 0 01-.25.06zM252 121.31l1.94.43 2.43.45 2.44.53 2.42.35 2.45.61 2.41.42 2.43.51 7.31 1.21 2.45.63 2.4.43 2.44.34 2.45.56 2.41.4 2.44.48 2.42.56 2.41.45 4.88.77 7.26 1.59 2.42.34 4.88 1 2.42.55 2.41.26 9.75 1.89 2.43.54 2.41.47 4.87.86 2.43.54 2.41.38 2.44.63 4.84.83 2.43.57 2.41.33 2.45.54 2.41.43 2.43.52 2.42.35 2.45.41 2.44.66 2.39.27 4.87 1 2.42.59 19.39 3.61 2.39.4 2.43.61 2.4.28 2 .42.61-3.32.52-1.92.68-3.78.37-1.9.25-1.89.3-1.93.54-1.92.4-1.86.5-3.79.6-1.93.26-1.84.43-1.93.31-1.88.45-1.92 1.1-5.68.27-1.88.94-5.73.51-1.93.72-3.77.19-1.89.36-1.44-6.78-1.38-2.44-.35-2.45-.59-2.41-.4-2.44-.46-2.43-.37-2.45-.68-2.39-.29-2.46-.47-2.43-.57-2.46-.4-2.44-.56-2.41-.48-2.43-.4-2.43-.48-2.39-.3-4.9-1-2.42-.59-2.38-.41-2.44-.35-7.3-1.41-2.46-.66-2.4-.47-2.42-.38-7.3-1.35-4.85-1-2.43-.28-2.46-.66-2.36-.44-2.43-.34-4.88-.91-2.47-.61-4.83-1-2.42-.25-2.46-.67-2.39-.41-2.44-.48-2.38-.33-2.45-.65-2.4-.28-2.45-.63-2.4-.35-2.44-.5-2.42-.39-2.44-.54-2.41-.34-2.45-.5-2.42-.58-2.41-.36-4.85-1.09-2.41-.42-2.42-.49-2.42-.37-1.92-.35-.2 1.41-.66 1.94-.27 1.84-.24 1.91-.61 1.95-.19 1.84-.3 1.95-.93 3.8-.62 3.79-.4 1.91-.53 3.8-.42 1.92-.36 1.89-.58 1.9-.33 1.85-.4 1.91-.24 1.88-.36 1.93-.27 1.89-.56 1.93-.37 1.86-.2 1.89-.41 1.94-.29 1.89z" fill="#263238"/><path fill="#263238" opacity=".2" d="M256.96 93.23l-.41 1.89-.36 1.9-.57 1.86-.35 1.9-.39 1.89-.25 1.92-.36 1.9-.27 1.92-.54 1.86-.39 1.9-.2 1.93-.4 1.89-.29 1.92-.37 1.89-.38 1.86 2.38.53 2.44.45 2.43.53 2.45.36 2.41.6-6.58-30.9z"/><text transform="rotate(11.5 -330.376 1445.738)" font-size="21.069" fill="#4a98f5" font-family="Arial-Black,Arial" font-weight="800"><tspan letter-spacing="-.068em">T</tspan><tspan x="13.79" y="0">oo many</tspan><tspan x="4.98" y="20.37" letter-spacing=".016em">r</tspan><tspan x="14.68" y="20.37">equests</tspan></text><path d="M277.25 171.14A1263.49 1263.49 0 00152.8 231a1511.06 1511.06 0 01216.08 35.22 1105.32 1105.32 0 00-91.63-95.08z" fill="#4a98f5"/><path d="M163.75 226.94A1520.28 1520.28 0 01360.36 259c11 2.56 17.78 11.36 15.1 19.41l-28.86 87.08c-2.71 8.05-12.82 12.67-22.54 10.42a1350 1350 0 00-174.3-28.41c-10-1-17.54-8.47-16.77-16.83q4.37-45.19 8.72-90.38c.77-8.36 10.71-14.44 22.04-13.35z" fill="#4a98f5"/><path d="M163.75 226.94A1520.28 1520.28 0 01360.36 259c11 2.56 17.78 11.36 15.1 19.41l-28.86 87.08c-2.71 8.05-12.82 12.67-22.54 10.42a1350 1350 0 00-174.3-28.41c-10-1-17.54-8.47-16.77-16.83q4.37-45.19 8.72-90.38c.77-8.36 10.71-14.44 22.04-13.35z" fill="#fff" opacity=".5"/><path d="M149.77 347.51a1346 1346 0 01174.28 28.41 21.62 21.62 0 0012.82-.91 988.8 988.8 0 00-84.09-88.3 1130 1130 0 00-114.62 55.91 20.26 20.26 0 0011.61 4.89z" fill="#4a98f5"/><path d="M149.77 347.51a1346 1346 0 01174.28 28.41 21.62 21.62 0 0012.82-.91 988.8 988.8 0 00-84.09-88.3 1130 1130 0 00-114.62 55.91 20.26 20.26 0 0011.61 4.89z" fill="#fff" opacity=".7"/><path d="M248.19 308.38a1230.07 1230.07 0 01121.61-45 23.85 23.85 0 00-9.44-4.41 1518.41 1518.41 0 00-196.6-32.05 25.78 25.78 0 00-10.64 1.14 1086.3 1086.3 0 0195.07 80.32z" fill="#4a98f5"/><path d="M248.19 308.38a1230.07 1230.07 0 01121.61-45 23.85 23.85 0 00-9.44-4.41 1518.41 1518.41 0 00-196.6-32.05 25.78 25.78 0 00-10.64 1.14 1086.3 1086.3 0 0195.07 80.32z" fill="#fff" opacity=".2"/><path d="M275.9 129.91c-8.35 3.59-8.41 15.71-2.32 13.31s7.35-15.47 2.32-13.31z" fill="#263238"/><path fill="#ffb573" d="M203.01 339.37l14.09-4.51.13 11.95-11.77 3.78-2.45-11.22z"/><path opacity=".2" d="M203.01 339.37l14.1-4.51.07 6.7-12.8 4.1-1.37-6.29z"/><path d="M221.79 349.09l-1.38.75a2.8 2.8 0 01-2.65 0l-.43 1a2.79 2.79 0 01-1.23 1.35l-18.89 10.21a8.25 8.25 0 01-1.33-4.11s8.06-4.93 8.62-8.38a.71.71 0 01.48-.57c1.78-.53 8.7-2.74 11.64-5.86a.85.85 0 011.35.18 46.82 46.82 0 003.82 5.43z" fill="#263238"/><path d="M205 350.14c-.14 0-3.23-.32-4.05-1.36a.93.93 0 01-.22-.72.75.75 0 01.56-.67c1-.25 3.11 1.29 3.91 2.4a.21.21 0 010 .24.21.21 0 01-.2.11zm-3.47-2.33a.34.34 0 00-.15 0c-.1 0-.19.07-.22.29a.47.47 0 00.12.38c.48.61 2.14 1 3.18 1.13a5.81 5.81 0 00-2.92-1.8z" fill="#263238"/><path d="M201.64 352.54a.92.92 0 01-.66-.25.73.73 0 01-.21-.84c.38-.95 2.87-1.75 4.23-1.75a.23.23 0 01.21.13.23.23 0 010 .24c-.09.1-2.16 2.41-3.49 2.47zm2.82-2.36c-1.31.16-3 .83-3.28 1.43a.29.29 0 00.11.35.46.46 0 00.38.13c.78-.03 2.05-1.16 2.79-1.91z" fill="#263238"/><path d="M266.55 226.93l3.65 13c5.39 19.17-4.55 39.88-21.9 45.68-10.13 3.38-24 3.91-32.1 5.73 4.32 14.44 5.48 33.53 5.68 47.36l-19.66 5.09c-5.15-16.16-13.21-41.37-18.57-57.63a16.14 16.14 0 014.15-16.66c22.14-20.5 78.75-42.57 78.75-42.57z" fill="#4a98f5"/><path fill="#ffb573" d="M248.95 361.35l12.74-7.51 2.77 11.63-10.64 6.29-4.87-10.41z"/><path opacity=".2" d="M248.95 361.35l12.75-7.51 1.55 6.51-11.57 6.83-2.73-5.83z"/><path d="M269.31 369.8l-1.39.74a2.78 2.78 0 01-2.64 0l-.45 1a2.74 2.74 0 01-1.25 1.33l-19 10a8.25 8.25 0 01-1.29-4.13s8.11-4.85 8.7-8.29a.68.68 0 01.48-.56c1.79-.52 8.73-2.66 11.71-5.75a.85.85 0 011.35.2 45.5 45.5 0 003.78 5.46z" fill="#263238"/><path d="M252.52 370.69c-.14 0-3.22-.36-4-1.4a1 1 0 01-.21-.73.73.73 0 01.56-.66c1-.24 3.1 1.32 3.89 2.43a.23.23 0 010 .25.21.21 0 01-.24.11zm-3.46-2.37a.32.32 0 00-.14 0c-.09 0-.19.07-.22.29a.51.51 0 00.11.38c.48.62 2.14 1 3.17 1.16a5.7 5.7 0 00-2.92-1.83z" fill="#263238"/><path d="M249.14 373.05a.94.94 0 01-.67-.26.73.73 0 01-.21-.84c.39-.95 2.92-1.72 4.26-1.71a.21.21 0 01.2.13.23.23 0 010 .24c-.09.1-2.19 2.4-3.51 2.44zm2.82-2.33c-1.3.15-3 .8-3.28 1.4 0 .09-.06.2.1.35a.5.5 0 00.38.13c.78-.02 2.06-1.14 2.84-1.88z" fill="#263238"/><path d="M293.59 239l5.91 11.41c8.72 16.84 2.41 39.31-13.9 49.53-9.52 6-22.78 13.26-30.58 17.19 5.07 12.33 8.71 28.1 10.31 40.07L248 364.88c-7.95-14-19.25-33.84-26.86-46.93a15.87 15.87 0 011.25-17c18.54-25.55 71.2-61.95 71.2-61.95z" fill="#4a98f5"/><path d="M261.65 359.31a.45.45 0 01-.44-.37c-1.86-9.62-11-37.92-17.06-49.9a.44.44 0 010-.37.47.47 0 01.26-.26c26.09-9.63 42-19.45 46.06-28.4 7.1-15.72-1.07-30.77-8.3-37.06a.45.45 0 010-.63.44.44 0 01.63 0c7.43 6.46 15.83 21.94 8.53 38.1-4.18 9.25-19.69 18.91-46.1 28.7 6.1 12.29 15.07 40.14 16.92 49.69a.46.46 0 01-.36.53z" opacity=".1"/><path d="M256.66 196.48l-1.08.75-1 .62c-.63.41-1.27.79-1.9 1.17-1.27.75-2.56 1.45-3.87 2.12a76.7 76.7 0 01-8.12 3.56 57.12 57.12 0 01-18.31 3.7h-2.51l-1.29-.07-1.44-.13a32.29 32.29 0 01-5-1.13 53.55 53.55 0 01-8.28-3.32l-1.92-1-1.85-1q-1.84-1-3.6-2.19a61.62 61.62 0 01-6.78-5.07 5.24 5.24 0 014.44-9.11l.32.07c4.93 1 9.94 2.22 14.64 3.07 2.35.42 4.66.75 6.77 1a22.9 22.9 0 002.69.11l1.2-.11c.45 0 .93-.12 1.39-.18a48.45 48.45 0 0012-3.69c2.06-.86 4.1-1.88 6.14-2.93 1-.53 2-1.08 3-1.63l2.72-1.56.64-.37a10.3 10.3 0 0111 17.41z" fill="#ffb573"/><path d="M198.77 187.35l-.78 5.9c-3 5.51-9.39.47-9.39.47l-4.07-1.17a3.15 3.15 0 01-2-3.54l.51-4.13a3.28 3.28 0 013.4-3.08l3.67.43a6.39 6.39 0 013 1.13z" fill="#ffb573"/><path d="M264.54 169.05c-2.29-3.52-10.85-1.52-15 4.23-1.94.1-8.87 7.71-14.51 9.75s-9.16 9.46-7.15 13.26c3.71 7 6.08 10.31 11.54 10.37s12.21-4.14 17.51-9 14.9-17.38 7.61-28.61z" fill="#e0e0e0"/><path d="M232.54 183.12c-4.8-2.46-8.76 2.85-8.2 8.93a29 29 0 005.1 14.58c2.51 3.33 6.39 2.7 10 2.17 3.11-.45 4.54-1.73 2.77-4.42s-7.67-6.26-9.27-14.16c-.81-3.96 1.81-5.96-.4-7.1zm-4.95 51.2c-1 1-1.88 4.82-.14 10.73 1.2 4.08 6.64 2.29 6.64 2.29s.64 7.36 7.25 9.2c10.88 3 52.39 4 59.66-1.14-22.09-1.13-73.41-21.08-73.41-21.08z" fill="#fafafa"/><path d="M267.68 165.33a190.61 190.61 0 0121.52 2.3 22.18 22.18 0 0117.88 27.06c-6.51 27.65-4 55.9-4.77 61.41 0 0-64 6.55-73-12.77-12.17-21.88 10.5-34.93 19.44-64.5 2.34-7.77 10.83-13.83 18.93-13.5z" fill="#4a98f5"/><path d="M267.68 165.33a190.61 190.61 0 0121.52 2.3 22.18 22.18 0 0117.88 27.06c-6.51 27.65-4 55.9-4.77 61.41 0 0-64 6.55-73-12.77-12.17-21.88 10.5-34.93 19.44-64.5 2.34-7.77 10.83-13.83 18.93-13.5z" opacity=".3"/><path d="M288.92 167.62l-.12-.05-.34-.14-.09.06c-5.33-.85-10.87-1.49-16.17-1.88q-1.95-.15-3.84-.24a8.12 8.12 0 00-3.79 4.06c-1.79 4-.81 8.5 2.64 12.14l.28.3h.42c7.84-.43 22.68-6.09 23.49-10.87.14-.84 0-2.37-2.48-3.38z" fill="#fafafa" opacity=".4"/><path d="M310.62 190.8l1 2.18c.32.69.6 1.38.88 2.07.58 1.37 1.08 2.76 1.59 4.15 1 2.78 1.86 5.6 2.59 8.49.38 1.43.72 2.89 1.05 4.35s.57 2.94.82 4.44a80.27 80.27 0 011 9.15v.62a9 9 0 01-.55 3.61 13.74 13.74 0 01-4.5 5.94 14.72 14.72 0 01-5.34 2.48 22.6 22.6 0 01-7.64.37 36.21 36.21 0 01-5.84-1.13c-1.8-.49-3.51-1-5.17-1.64a85.83 85.83 0 01-9.44-4.17 86.87 86.87 0 01-8.79-5.12 5.18 5.18 0 014-9.37l.23.05c3 .64 6.08 1.38 9.08 2s6 1.21 8.9 1.61c1.44.2 2.85.38 4.2.47a29.14 29.14 0 003.7 0c1.05 0 1.95-.31 1.9-.44s-.41 0-1 .4a5 5 0 00-1.7 2.11l-.51 4.23c-.49-2.35-1.06-4.7-1.72-7.08-.33-1.19-.69-2.38-1.07-3.57s-.73-2.39-1.14-3.58c-.83-2.38-1.65-4.77-2.55-7.14l-1.36-3.54-1.3-3.34-.21-.53a10.31 10.31 0 0118.94-8.11z" fill="#ffb573"/><path d="M276.24 220.42l-1.66 3.37c-4.58 4.27-9-2.57-9-2.57l-3.48-2.42a3.16 3.16 0 01-.79-4l1.82-3.75a3.29 3.29 0 014.21-1.82l3.34 1.58a6.5 6.5 0 012.44 2l2.84 3.85a3.61 3.61 0 01.28 3.76z" fill="#ffb573"/><path d="M298.81 172.05c4.18.36 13 10.18 12.54 17.27 1.44 1.31 3.39 8.36 6.47 13.51s1.08 13.13-2.88 14.8c-7.31 3.07-11.24 4.12-15.5.7s-8.36-14.09-8.8-21.26c-.64-10.52.75-25.65 8.17-25.02z" fill="#e0e0e0"/><path d="M294.87 214.06c-2.81 4.61 2.19 8.95 8.3 8.84a29 29 0 0014.92-4c3.51-2.26 3.16-6.18 2.9-9.81-.22-3.14-1.39-4.65-4.21-3.09s-6.8 7.19-14.8 8.2c-3.98.5-5.81-2.26-7.11-.14z" fill="#fafafa"/><path d="M266.45 169.15a8.27 8.27 0 014.33-3.33 7.72 7.72 0 00.66-5.13l19.89-4.16c-2.21 6.21-3.95 11.12-1.9 14.45-4 1.92-11.38 5.36-18.92 4.37s-5.51-3.66-4.06-6.2z" fill="#ffb573"/><path d="M271.53 161.3l14.54.64c-5 4.36-12.05 5.48-15 3.19a7.8 7.8 0 00.46-3.83z" opacity=".2"/><path d="M296.08 147.1c-3.16 8.73-5.5 14.59-11.76 16.82-12.45 4.44-17.17-2.22-16.67-11.74.44-8.57 5.54-21.4 15.28-22.29a12.79 12.79 0 0113.15 17.21z" fill="#ffb573"/><path d="M294 154.73c-6.18-2.72-7-7.32-3.69-8.87-2-2.6-3.2-6.48.14-8.24-1.3 1-7.53-2.61-6.82-5.38-6.27 3-12.94 2.19-10.55-3.8s12.75-8.29 14.52-5.34c9.79-4 15.79 3.61 12.49 6.27 6.91.54 9.26 8.74 4.62 12.17 5.98 4.53-.37 12.3-10.71 13.19zm-15.85-2.13a6.84 6.84 0 011.21.36.21.21 0 01.11.28.24.24 0 01-.3.13 6.43 6.43 0 00-5.53.37.22.22 0 01-.31-.05.22.22 0 01.08-.3 6.65 6.65 0 014.74-.79z" fill="#263238"/><path d="M283.91 145.38a4.28 4.28 0 013.17.77 8.32 8.32 0 01-3.17-.77zm-.14.77a3.5 3.5 0 012.61 1.4 7 7 0 01-2.61-1.4zm-12.14-4.25s-.57-1-1.22-.65a1.78 1.78 0 001.22.65zm-.28.68s-.45-.91-1-.23a.84.84 0 001 .23zm5.49-8.12a26.26 26.26 0 018 1.68 73.67 73.67 0 01-8-1.68zm-1.32 1.19s6.19.95 9 2.94a51.12 51.12 0 01-9-2.94z" opacity=".2"/><path d="M298.2 155.32a8.73 8.73 0 01-5.79 3.42c-3.06.41-4.19-2.44-3-5.12 1.07-2.4 4-5.51 6.88-4.68s3.59 4.06 1.91 6.38z" fill="#ffb573"/><path d="M281.41 145.16c-.21.73-.77 1.2-1.24 1.05s-.68-.85-.47-1.57.77-1.19 1.24-1 .69.8.47 1.52zm-7.7-2.16c-.21.72-.77 1.19-1.24 1.05s-.69-.85-.47-1.57.77-1.19 1.24-1 .68.8.47 1.52z" fill="#263238"/><path d="M276 144.31l-1.74 6.1s-2.48-.14-3.55-1.58a13.21 13.21 0 015.29-4.52z" fill="#ed893e"/><path d="M282.49 139.82a.51.51 0 00-.22 0 .44.44 0 00-.39.49 4.41 4.41 0 002.11 3.47.45.45 0 00.41-.79 3.54 3.54 0 01-1.64-2.76.44.44 0 00-.27-.41zm-8.6-2.2a.48.48 0 00-.41.1 3.46 3.46 0 01-3.06.89.44.44 0 00-.54.32.45.45 0 00.31.54 4.36 4.36 0 003.89-1.08.45.45 0 000-.63.52.52 0 00-.19-.14z" fill="#263238"/><path d="M267.86 181c10.43-.59 28.71-9.23 20.72-12.5-5.27 3.84-13.91 5.11-17.95 4.94-1.44-1.5-1.75-5.54.15-7.57-4.21-.59-9.87 7.73-2.92 15.13z" fill="#fafafa"/><path d="M270.63 173.39c2.93-1.84 12-5.68 17.67-7.35a1.89 1.89 0 011.72 3.29s-4.6 4.67-19.39 4.06z" fill="#4a98f5"/><path d="M271 173.72a.87.87 0 00.93-.33l.81-1.22a.44.44 0 00-.26-.69.88.88 0 00-.93.33l-.8 1.22a.43.43 0 00.25.69z" fill="#4a98f5"/><path d="M270.27 173.57a.88.88 0 00.85-.5l.54-1.32a.44.44 0 00-.41-.62.88.88 0 00-.85.5l-.54 1.32a.44.44 0 00.41.62z" fill="#4a98f5"/><path d="M270.63 173.39s.31-4.17.23-7.14a1.21 1.21 0 00-2.3-.47 3.23 3.23 0 00-.21.61s.57 5.69 2.28 7zm9.78 54.74a175.69 175.69 0 00-18.32 9.54 187.41 187.41 0 0130.75 6.65 171.45 171.45 0 00-12.43-16.19z" fill="#4a98f5"/><path d="M263.69 237a189 189 0 0128 6.06 2.7 2.7 0 012 3.29q-2.4 7.22-4.81 14.42a2.69 2.69 0 01-3.32 1.65 167.52 167.52 0 00-24.8-5.37 2.6 2.6 0 01-2.28-2.86l1.95-15a2.77 2.77 0 013.26-2.19z" fill="#4a98f5"/><path d="M263.69 237a189 189 0 0128 6.06 2.7 2.7 0 012 3.29q-2.4 7.22-4.81 14.42a2.69 2.69 0 01-3.32 1.65 167.52 167.52 0 00-24.8-5.37 2.6 2.6 0 01-2.28-2.86l1.95-15a2.77 2.77 0 013.26-2.19z" fill="#fff" opacity=".5"/><path d="M260.76 257.07a167.52 167.52 0 0124.8 5.37 2.73 2.73 0 001.85-.1 151.73 151.73 0 00-11.4-15 157.61 157.61 0 00-16.88 8.91 2.64 2.64 0 001.63.82z" fill="#4a98f5"/><path d="M260.76 257.07a167.52 167.52 0 0124.8 5.37 2.73 2.73 0 001.85-.1 151.73 151.73 0 00-11.4-15 157.61 157.61 0 00-16.88 8.91 2.64 2.64 0 001.63.82z" fill="#fff" opacity=".7"/><path d="M275.19 250.91a163.63 163.63 0 0117.8-7.06 3.16 3.16 0 00-1.32-.77 189 189 0 00-28-6.06 3.37 3.37 0 00-1.53.15 159.43 159.43 0 0113.05 13.74z" fill="#4a98f5"/><path d="M275.19 250.91a163.63 163.63 0 0117.8-7.06 3.16 3.16 0 00-1.32-.77 189 189 0 00-28-6.06 3.37 3.37 0 00-1.53.15 159.43 159.43 0 0113.05 13.74z" fill="#fff" opacity=".2"/><path d="M354.9 297.66l-26.77-16.12a3.32 3.32 0 00-4.47 1l-10.19 16a3.12 3.12 0 001 4.35L341.28 319a3.33 3.33 0 004.48-1L356 302a3.12 3.12 0 00-1.1-4.34z" fill="#4a98f5"/><path d="M354.9 297.66l-26.77-16.12a3.32 3.32 0 00-4.47 1l-10.19 16a3.12 3.12 0 001 4.35L341.28 319a3.33 3.33 0 004.48-1L356 302a3.12 3.12 0 00-1.1-4.34z" fill="#fff" opacity=".3"/><path d="M341.28 319l-26.76-16.12a3.12 3.12 0 01-1.39-1.76l23-3.11 7.38 21.41a3.28 3.28 0 01-2.23-.42z" fill="#4a98f5"/><path d="M341.28 319l-26.76-16.12a3.12 3.12 0 01-1.39-1.76l23-3.11 7.38 21.41a3.28 3.28 0 01-2.23-.42z" fill="#fff" opacity=".5"/><path d="M333.67 301.89l-7.17-20.82a3.4 3.4 0 011.64.47l26.76 16.12a3.2 3.2 0 011.16 1.21zm-9.05-49.2l-22.53-13.56a2.8 2.8 0 00-3.77.85l-8.57 13.44a2.61 2.61 0 00.88 3.66l22.53 13.57a2.8 2.8 0 003.77-.86l8.57-13.44a2.62 2.62 0 00-.88-3.66z" fill="#4a98f5"/><path d="M324.62 252.69l-22.53-13.56a2.8 2.8 0 00-3.77.85l-8.57 13.44a2.61 2.61 0 00.88 3.66l22.53 13.57a2.8 2.8 0 003.77-.86l8.57-13.44a2.62 2.62 0 00-.88-3.66z" fill="#fff" opacity=".3"/><path d="M313.16 270.65l-22.53-13.57a2.66 2.66 0 01-1.17-1.48l19.38-2.6 6.21 18a2.81 2.81 0 01-1.89-.35z" fill="#4a98f5"/><path d="M313.16 270.65l-22.53-13.57a2.66 2.66 0 01-1.17-1.48l19.38-2.6 6.21 18a2.81 2.81 0 01-1.89-.35z" fill="#fff" opacity=".5"/><path d="M306.75 256.25l-6-17.52a2.84 2.84 0 011.37.39l22.53 13.57a2.66 2.66 0 011 1zM195 283.26l-26.49-3.93a2.77 2.77 0 00-3.15 2.25l-2.49 15.81a2.7 2.7 0 002.32 3.06l26.49 3.93a2.76 2.76 0 003.15-2.25l2.49-15.8a2.72 2.72 0 00-2.32-3.07z" fill="#4a98f5"/><path d="M195 283.26l-26.49-3.93a2.77 2.77 0 00-3.15 2.25l-2.49 15.81a2.7 2.7 0 002.32 3.06l26.49 3.93a2.76 2.76 0 003.15-2.25l2.49-15.8a2.72 2.72 0 00-2.32-3.07z" fill="#fff" opacity=".3"/><path d="M191.68 304.39l-26.49-3.94a2.74 2.74 0 01-1.7-.93l17-9.9L193.58 304a2.81 2.81 0 01-1.9.39z" fill="#4a98f5"/><path d="M191.68 304.39l-26.49-3.94a2.74 2.74 0 01-1.7-.93l17-9.9L193.58 304a2.81 2.81 0 01-1.9.39z" fill="#fff" opacity=".5"/><path d="M179.84 293.46l-12.77-14a2.78 2.78 0 011.44-.16l26.49 3.96a2.77 2.77 0 011.33.58zm141.51-18.32c-8.79 1.89-18 2.36-26.75 4.26a2.63 2.63 0 00-2 3.25q2.12 7.78 4.21 15.57a2.89 2.89 0 003.42 2c8.78-1.89 18-2.36 26.74-4.25a2.64 2.64 0 002-3.26q-2.1-7.79-4.21-15.57a2.89 2.89 0 00-3.41-2z" fill="#4a98f5"/><path d="M321.35 275.14c-8.79 1.89-18 2.36-26.75 4.26a2.63 2.63 0 00-2 3.25q2.12 7.78 4.21 15.57a2.89 2.89 0 003.42 2c8.78-1.89 18-2.36 26.74-4.25a2.64 2.64 0 002-3.26q-2.1-7.79-4.21-15.57a2.89 2.89 0 00-3.41-2z" fill="#fff" opacity=".3"/><path d="M327 296c-8.78 1.89-18 2.36-26.74 4.26a3 3 0 01-2-.25c3.88-5.18 7.9-9.84 11.93-14.49 6.17 3.31 12.35 6.63 18.38 9.42A2.62 2.62 0 01327 296z" fill="#4a98f5"/><path d="M327 296c-8.78 1.89-18 2.36-26.74 4.26a3 3 0 01-2-.25c3.88-5.18 7.9-9.84 11.93-14.49 6.17 3.31 12.35 6.63 18.38 9.42A2.62 2.62 0 01327 296z" fill="#fff" opacity=".5"/><path d="M311.21 289.25c-6-3.22-12-6.44-17.89-9.18a2.61 2.61 0 011.28-.68c8.78-1.89 18-2.36 26.74-4.25a3 3 0 011.48.05c-3.82 5.01-7.7 9.54-11.61 14.06zm-33.66-33.17a216.44 216.44 0 0121.32 14.05 232.91 232.91 0 00-38.79 4.35 210.28 210.28 0 0117.47-18.4z" fill="#4a98f5"/><path d="M297 269.14a233.69 233.69 0 00-35.3 3.95 3.37 3.37 0 00-2.93 3.8l4 18.38a3.31 3.31 0 003.86 2.46 206.79 206.79 0 0131.3-3.5 3.27 3.27 0 003.19-3.25q-.21-9.39-.4-18.78a3.42 3.42 0 00-3.72-3.06z" fill="#4a98f5"/><path d="M297 269.14a233.69 233.69 0 00-35.3 3.95 3.37 3.37 0 00-2.93 3.8l4 18.38a3.31 3.31 0 003.86 2.46 206.79 206.79 0 0131.3-3.5 3.27 3.27 0 003.19-3.25q-.21-9.39-.4-18.78a3.42 3.42 0 00-3.72-3.06z" fill="#fff" opacity=".5"/><path d="M297.92 294.23a206.8 206.8 0 00-31.29 3.5 3.37 3.37 0 01-2.26-.36 192.68 192.68 0 0116.05-17.1 196.48 196.48 0 0119.63 13.11 3.37 3.37 0 01-2.13.85z" fill="#4a98f5"/><path d="M297.92 294.23a206.8 206.8 0 00-31.29 3.5 3.37 3.37 0 01-2.26-.36 192.68 192.68 0 0116.05-17.1 196.48 196.48 0 0119.63 13.11 3.37 3.37 0 01-2.13.85z" fill="#fff" opacity=".7"/><path d="M281 284.81a205.81 205.81 0 00-21-10.94 4 4 0 011.73-.78 233.55 233.55 0 0135.3-3.95 4.1 4.1 0 011.87.38 198.86 198.86 0 00-17.9 15.29z" fill="#4a98f5"/><path d="M281 284.81a205.81 205.81 0 00-21-10.94 4 4 0 011.73-.78 233.55 233.55 0 0135.3-3.95 4.1 4.1 0 011.87.38 198.86 198.86 0 00-17.9 15.29z" fill="#fff" opacity=".2"/><path d="M288.08 275.92L257 280.6a3.19 3.19 0 00-2.72 3.61l3 18.56a3.26 3.26 0 003.72 2.64l31-4.69a3.18 3.18 0 002.72-3.6l-3-18.57a3.24 3.24 0 00-3.64-2.63z" fill="#4a98f5"/><path d="M288.08 275.92L257 280.6a3.19 3.19 0 00-2.72 3.61l3 18.56a3.26 3.26 0 003.72 2.64l31-4.69a3.18 3.18 0 002.72-3.6l-3-18.57a3.24 3.24 0 00-3.64-2.63z" fill="#fff" opacity=".3"/><path d="M292 300.72l-31.11 4.69a3.31 3.31 0 01-2.24-.46L274.09 288 294 299.63a3.2 3.2 0 01-2 1.09z" fill="#4a98f5"/><path d="M292 300.72l-31.11 4.69a3.31 3.31 0 01-2.24-.46L274.09 288 294 299.63a3.2 3.2 0 01-2 1.09z" fill="#fff" opacity=".5"/><path d="M274.81 292.55l-19.4-11.27a3.21 3.21 0 011.56-.68l31.11-4.68a3.35 3.35 0 011.7.18zm-14.74-42.58l10.7 16.68-28.71-7.73 18.01-8.95z" fill="#4a98f5"/><path d="M269.66 265.41l-26-7a2.81 2.81 0 00-3.43 1.89l-4.43 15.51a2.72 2.72 0 001.95 3.33l26 7a2.8 2.8 0 003.43-1.88l4.42-15.51a2.7 2.7 0 00-1.94-3.34z" fill="#4a98f5"/><path d="M269.66 265.41l-26-7a2.81 2.81 0 00-3.43 1.89l-4.43 15.51a2.72 2.72 0 001.95 3.33l26 7a2.8 2.8 0 003.43-1.88l4.42-15.51a2.7 2.7 0 00-1.94-3.34z" fill="#fff" opacity=".5"/><path d="M263.75 286.13l-26-7a2.69 2.69 0 01-1.57-1.13l18.16-7.93L265.7 286a2.77 2.77 0 01-1.95.13z" fill="#4a98f5"/><path d="M263.75 286.13l-26-7a2.69 2.69 0 01-1.57-1.13l18.16-7.93L265.7 286a2.77 2.77 0 01-1.95.13z" fill="#fff" opacity=".7"/><path d="M253.26 273.85l-11-15.44a2.89 2.89 0 011.46 0l26 7a2.7 2.7 0 011.26.73z" fill="#4a98f5"/><path d="M253.26 273.85l-11-15.44a2.89 2.89 0 011.46 0l26 7a2.7 2.7 0 011.26.73z" fill="#fff" opacity=".2"/><path d="M261.51 281.48c-10.37-1.62-20.53-4.94-30.9-6.56a3.15 3.15 0 00-3.61 2.7l-2.34 18.65a3.29 3.29 0 002.83 3.57c10.37 1.62 20.53 4.94 30.9 6.56a3.14 3.14 0 003.61-2.69l2.34-18.65a3.3 3.3 0 00-2.83-3.58z" fill="#4a98f5"/><path d="M261.51 281.48c-10.37-1.62-20.53-4.94-30.9-6.56a3.15 3.15 0 00-3.61 2.7l-2.34 18.65a3.29 3.29 0 002.83 3.57c10.37 1.62 20.53 4.94 30.9 6.56a3.14 3.14 0 003.61-2.69l2.34-18.65a3.3 3.3 0 00-2.83-3.58z" fill="#fff" opacity=".3"/><path d="M258.39 306.4c-10.37-1.62-20.53-4.94-30.9-6.55a3.47 3.47 0 01-2-1.09c6.51-4 12.94-7.36 19.36-10.74 5.23 6.18 10.47 12.36 15.78 17.91a3.14 3.14 0 01-2.24.47z" fill="#4a98f5"/><path d="M258.39 306.4c-10.37-1.62-20.53-4.94-30.9-6.55a3.47 3.47 0 01-2-1.09c6.51-4 12.94-7.36 19.36-10.74 5.23 6.18 10.47 12.36 15.78 17.91a3.14 3.14 0 01-2.24.47z" fill="#fff" opacity=".5"/><path d="M244.26 292.56c-5.08-6-10.17-12-15.33-17.44a3.16 3.16 0 011.68-.2c10.37 1.62 20.53 4.94 30.9 6.56a3.33 3.33 0 011.57.68c-6.32 3.84-12.57 7.12-18.82 10.4zm-39.4-23.3a194.19 194.19 0 0120.27 10.88 207.85 207.85 0 00-34.34 7 190 190 0 0114.07-17.88z" fill="#4a98f5"/><path d="M223.36 279.4a208.81 208.81 0 00-31.25 6.36 3 3 0 00-2.3 3.64q2.58 8.06 5.15 16.12a3 3 0 003.67 1.89 185.05 185.05 0 0127.7-5.64 2.91 2.91 0 002.58-3.16L227 281.83a3.07 3.07 0 00-3.64-2.43z" fill="#4a98f5"/><path d="M223.36 279.4a208.81 208.81 0 00-31.25 6.36 3 3 0 00-2.3 3.64q2.58 8.06 5.15 16.12a3 3 0 003.67 1.89 185.05 185.05 0 0127.7-5.64 2.91 2.91 0 002.58-3.16L227 281.83a3.07 3.07 0 00-3.64-2.43z" fill="#fff" opacity=".5"/><path d="M226.33 301.77a186.32 186.32 0 00-27.7 5.64 3.05 3.05 0 01-2-.14 169.91 169.91 0 0112.9-16.58 174.22 174.22 0 0118.68 10.15 3 3 0 01-1.88.93z" fill="#4a98f5"/><path d="M226.33 301.77a186.32 186.32 0 00-27.7 5.64 3.05 3.05 0 01-2-.14 169.91 169.91 0 0112.9-16.58 174.22 174.22 0 0118.68 10.15 3 3 0 01-1.88.93z" fill="#fff" opacity=".7"/><path d="M210.35 294.7a184.89 184.89 0 00-19.72-8.1 3.38 3.38 0 011.48-.84 208.81 208.81 0 0131.25-6.36 3.49 3.49 0 011.71.19 177 177 0 00-14.72 15.11z" fill="#4a98f5"/><path d="M210.35 294.7a184.89 184.89 0 00-19.72-8.1 3.38 3.38 0 011.48-.84 208.81 208.81 0 0131.25-6.36 3.49 3.49 0 011.71.19 177 177 0 00-14.72 15.11z" fill="#fff" opacity=".2"/><path d="M139.38 302.58l36.09 2.17a3.69 3.69 0 013.53 3.85l-1.38 21.52a3.7 3.7 0 01-4 3.4l-36.09-2.18a3.66 3.66 0 01-3.49-3.84l1.38-21.5a3.7 3.7 0 013.96-3.42z" fill="#4a98f5"/><path d="M139.38 302.58l36.09 2.17a3.69 3.69 0 013.53 3.85l-1.38 21.52a3.7 3.7 0 01-4 3.4l-36.09-2.18a3.66 3.66 0 01-3.49-3.84l1.38-21.5a3.7 3.7 0 013.96-3.42z" fill="#fff" opacity=".3"/><path d="M137.55 331.34l36.08 2.18a3.71 3.71 0 002.5-.76L156.7 315l-21.55 15.29a3.66 3.66 0 002.4 1.05z" fill="#4a98f5"/><path d="M137.55 331.34l36.08 2.18a3.71 3.71 0 002.5-.76L156.7 315l-21.55 15.29a3.66 3.66 0 002.4 1.05z" fill="#fff" opacity=".5"/><path d="M156.36 320.24l21-14.87a3.71 3.71 0 00-1.85-.62l-36.09-2.18a3.9 3.9 0 00-1.92.39zm-34.93-65.15l24 10a2.61 2.61 0 011.41 3.44l-6.33 14.31a2.73 2.73 0 01-3.54 1.37l-24-10a2.6 2.6 0 01-1.42-3.44l6.33-14.3a2.74 2.74 0 013.55-1.38z" fill="#4a98f5"/><path d="M121.43 255.09l24 10a2.61 2.61 0 011.41 3.44l-6.33 14.31a2.73 2.73 0 01-3.54 1.37l-24-10a2.6 2.6 0 01-1.42-3.44l6.33-14.3a2.74 2.74 0 013.55-1.38z" fill="#fff" opacity=".3"/><path d="M113 274.2l24 10a2.77 2.77 0 001.9.08l-8.76-16.67-18.48 5.3a2.61 2.61 0 001.34 1.29z" fill="#4a98f5"/><path d="M113 274.2l24 10a2.77 2.77 0 001.9.08l-8.76-16.67-18.48 5.3a2.61 2.61 0 001.34 1.29z" fill="#fff" opacity=".5"/><path d="M128.55 271.1l18-5.15a2.56 2.56 0 00-1.1-.86l-24-10a2.73 2.73 0 00-1.4-.19zm105.04-25.73l-27.6 6a1.7 1.7 0 00-1.09 2.76l7.22 11.35a4 4 0 003.92 1.68l27.6-6a1.69 1.69 0 001.09-2.76l-7.22-11.35a4 4 0 00-3.92-1.68z" fill="#4a98f5"/><path d="M233.59 245.37l-27.6 6a1.7 1.7 0 00-1.09 2.76l7.22 11.35a4 4 0 003.92 1.68l27.6-6a1.69 1.69 0 001.09-2.76l-7.22-11.35a4 4 0 00-3.92-1.68z" fill="#fff" opacity=".3"/><path d="M243.35 261.23l-27 5.84a4.35 4.35 0 01-2.15-.09l9.57-12.4 21.12 5.75a2.47 2.47 0 01-1.54.9z" fill="#4a98f5"/><path d="M243.35 261.23l-27 5.84a4.35 4.35 0 01-2.15-.09l9.57-12.4 21.12 5.75a2.47 2.47 0 01-1.54.9z" fill="#fff" opacity=".5"/><path d="M225.58 257.46l-20.53-5.6a2.77 2.77 0 011.23-.58l27-5.85a4.47 4.47 0 011.59 0zm100.57 55.45l30.42-4.52a3.18 3.18 0 013.62 2.59l2.86 18.14a3.12 3.12 0 01-2.67 3.52L330 337.16a3.17 3.17 0 01-3.62-2.59l-2.86-18.14a3.11 3.11 0 012.63-3.52z" fill="#4a98f5"/><path d="M326.15 312.91l30.42-4.52a3.18 3.18 0 013.62 2.59l2.86 18.14a3.12 3.12 0 01-2.67 3.52L330 337.16a3.17 3.17 0 01-3.62-2.59l-2.86-18.14a3.11 3.11 0 012.63-3.52z" fill="#fff" opacity=".3"/><path d="M330 337.16l30.41-4.52a3.17 3.17 0 001.95-1.06l-19.47-11.37-15.08 16.5a3.23 3.23 0 002.19.45z" fill="#4a98f5"/><path d="M330 337.16l30.41-4.52a3.17 3.17 0 001.95-1.06l-19.47-11.37-15.08 16.5a3.23 3.23 0 002.19.45z" fill="#fff" opacity=".5"/><path d="M343.56 324.62l14.66-16a3.27 3.27 0 00-1.65-.19l-30.42 4.52a3.18 3.18 0 00-1.52.66zm-170.01-58.99l-18.2 19.51 39.76-3.55-21.56-15.96z" fill="#4a98f5"/><path d="M157.12 283.77l36-3.22a3.72 3.72 0 014.06 3.28l2 21.48a3.66 3.66 0 01-3.37 3.94l-36 3.22a3.71 3.71 0 01-4.06-3.28l-2-21.47a3.67 3.67 0 013.37-3.95z" fill="#4a98f5"/><path d="M157.12 283.77l36-3.22a3.72 3.72 0 014.06 3.28l2 21.48a3.66 3.66 0 01-3.37 3.94l-36 3.22a3.71 3.71 0 01-4.06-3.28l-2-21.47a3.67 3.67 0 013.37-3.95z" fill="#fff" opacity=".5"/><path d="M159.84 312.47l36-3.22a3.63 3.63 0 002.35-1.12l-22-14.66-18.88 18.32a3.68 3.68 0 002.53.68z" fill="#4a98f5"/><path d="M159.84 312.47l36-3.22a3.63 3.63 0 002.35-1.12l-22-14.66-18.88 18.32a3.68 3.68 0 002.53.68z" fill="#fff" opacity=".7"/><path d="M176.68 298.7L195 280.88a3.76 3.76 0 00-1.92-.33l-36 3.22a3.72 3.72 0 00-1.84.67z" fill="#4a98f5"/><path d="M176.68 298.7L195 280.88a3.76 3.76 0 00-1.92-.33l-36 3.22a3.72 3.72 0 00-1.84.67z" fill="#fff" opacity=".2"/><path d="M181.1 303.58c10.09 2.17 20.62 2.72 30.71 4.89a3 3 0 012.3 3.73l-4.83 17.88a3.32 3.32 0 01-3.92 2.28c-10.09-2.17-20.63-2.71-30.72-4.89a3 3 0 01-2.3-3.73l4.83-17.88a3.32 3.32 0 013.93-2.28z" fill="#4a98f5"/><path d="M181.1 303.58c10.09 2.17 20.62 2.72 30.71 4.89a3 3 0 012.3 3.73l-4.83 17.88a3.32 3.32 0 01-3.92 2.28c-10.09-2.17-20.63-2.71-30.72-4.89a3 3 0 01-2.3-3.73l4.83-17.88a3.32 3.32 0 013.93-2.28z" fill="#fff" opacity=".3"/><path d="M174.64 327.47c10.09 2.18 20.62 2.72 30.71 4.89a3.39 3.39 0 002.25-.28c-4.45-5.95-9.07-11.29-13.69-16.64-7.09 3.81-14.19 7.61-21.11 10.82a3 3 0 001.84 1.21z" fill="#4a98f5"/><path d="M174.64 327.47c10.09 2.18 20.62 2.72 30.71 4.89a3.39 3.39 0 002.25-.28c-4.45-5.95-9.07-11.29-13.69-16.64-7.09 3.81-14.19 7.61-21.11 10.82a3 3 0 001.84 1.21z" fill="#fff" opacity=".5"/><path d="M192.73 319.79c6.9-3.7 13.79-7.4 20.54-10.55a3 3 0 00-1.46-.77c-10.09-2.18-20.62-2.72-30.71-4.89a3.37 3.37 0 00-1.7.06c4.35 5.75 8.84 10.95 13.33 16.15zm-76.03 12.66a237.11 237.11 0 00-9 27.4A261.37 261.37 0 01145.92 337a256.3 256.3 0 00-29.22-4.55z" fill="#4a98f5"/><path d="M108.72 357.65a263 263 0 0134.74-20.79 4 4 0 015.42 1.41l9.81 19.35a3.64 3.64 0 01-1.69 4.88 232.74 232.74 0 00-30.79 18.43 3.88 3.88 0 01-5.25-.73L107.58 363a3.77 3.77 0 011.14-5.35z" fill="#4a98f5"/><path d="M108.72 357.65a263 263 0 0134.74-20.79 4 4 0 015.42 1.41l9.81 19.35a3.64 3.64 0 01-1.69 4.88 232.74 232.74 0 00-30.79 18.43 3.88 3.88 0 01-5.25-.73L107.58 363a3.77 3.77 0 011.14-5.35z" fill="#fff" opacity=".5"/><path d="M126.21 380.93A233.82 233.82 0 01157 362.5a3.68 3.68 0 001.78-1.89 231.11 231.11 0 00-27-4.35 213.47 213.47 0 00-8.13 25.36 3.78 3.78 0 002.56-.69z" fill="#4a98f5"/><path d="M126.21 380.93A233.82 233.82 0 01157 362.5a3.68 3.68 0 001.78-1.89 231.11 231.11 0 00-27-4.35 213.47 213.47 0 00-8.13 25.36 3.78 3.78 0 002.56-.69z" fill="#fff" opacity=".7"/><path d="M134.63 360.73a222 222 0 0111-24.36 4.61 4.61 0 00-2.14.49 264.6 264.6 0 00-34.73 20.78 4.47 4.47 0 00-1.41 1.64 237.24 237.24 0 0127.28 1.45z" fill="#4a98f5"/><path d="M134.63 360.73a222 222 0 0111-24.36 4.61 4.61 0 00-2.14.49 264.6 264.6 0 00-34.73 20.78 4.47 4.47 0 00-1.41 1.64 237.24 237.24 0 0127.28 1.45z" fill="#fff" opacity=".2"/><path d="M219.28 304.47l35.72 5.39a3.65 3.65 0 013.12 4.14l-3.4 21.31a3.75 3.75 0 01-4.27 3L214.74 333a3.66 3.66 0 01-3.12-4.14L215 307.5a3.74 3.74 0 014.28-3.03z" fill="#4a98f5"/><path d="M219.28 304.47l35.72 5.39a3.65 3.65 0 013.12 4.14l-3.4 21.31a3.75 3.75 0 01-4.27 3L214.74 333a3.66 3.66 0 01-3.12-4.14L215 307.5a3.74 3.74 0 014.28-3.03z" fill="#fff" opacity=".3"/><path d="M214.74 333l35.72 5.38a3.78 3.78 0 002.57-.53l-17.68-19.42-22.9 13.31a3.71 3.71 0 002.29 1.26z" fill="#4a98f5"/><path d="M214.74 333l35.72 5.38a3.78 3.78 0 002.57-.53l-17.68-19.42-22.9 13.31a3.71 3.71 0 002.29 1.26z" fill="#fff" opacity=".5"/><path d="M234.53 323.57l22.27-12.94a3.82 3.82 0 00-1.79-.78l-35.72-5.38a3.86 3.86 0 00-1.95.22z" fill="#4a98f5"/><path fill="#fff" d="M235.34 324.11l-26.44-1.5 2.02-33.56 26.44 1.51-2.02 33.55z"/><path fill="#4a98f5" opacity=".3" d="M234.74 297.69l-22.07-1.25.1-1.67 22.07 1.25-.1 1.67zm-9.11 4.68l-13.27-.75.1-1.67 13.27.75-.1 1.67zm6.77.38l-4.34-.24.1-1.67 4.34.24-.1 1.67zm1.71 5.3l-22.06-1.26.1-1.67 22.06 1.25-.1 1.68zm-5.19 4.89l-17.18-.97.1-1.67 17.18.97-.1 1.67zm4.57 5.45l-12.97-.73.1-1.67 12.97.73-.1 1.67zm-22.06-1.25l6.94.4.1-1.67-6.94-.4-.1 1.67z"/><path fill="#fff" d="M180.15 298.52l-19.5 5.43-13.81-22.43 19.5-5.43 13.81 22.43z"/><path fill="#4a98f5" opacity=".3" d="M167.71 281.4l-16.27 4.53-.68-1.12 16.27-4.53.68 1.12zm-4.35 5.26l-9.79 2.73-.68-1.12 9.78-2.72.69 1.11zm4.99-1.39l-3.2.89-.69-1.11 3.2-.9.69 1.12zm3.62 3.05l-16.27 4.53-.69-1.12 16.27-4.53.69 1.12zm-1.47 4.46l-12.67 3.53-.68-1.12 12.66-3.53.69 1.12zm5.73 2.45l-9.56 2.67-.69-1.12 9.56-2.66.69 1.11zm-16.27 4.53l5.12-1.42-.69-1.12-5.12 1.43.69 1.11z"/><path fill="#4a98f5" d="M251.44 274.69l-12.28 19.14 32.96-8.87-20.68-10.27z"/><path d="M240.43 292.41l29.85-8a3.23 3.23 0 013.94 2.16l5.07 17.81a3.11 3.11 0 01-2.22 3.82l-29.85 8a3.21 3.21 0 01-3.93-2.16l-5.08-17.8a3.11 3.11 0 012.22-3.83z" fill="#4a98f5"/><path d="M240.43 292.41l29.85-8a3.23 3.23 0 013.94 2.16l5.07 17.81a3.11 3.11 0 01-2.22 3.82l-29.85 8a3.21 3.21 0 01-3.93-2.16l-5.08-17.8a3.11 3.11 0 012.22-3.83z" fill="#fff" opacity=".5"/><path d="M247.22 316.21l29.85-8a3.18 3.18 0 001.81-1.29L258 297.77 245 316a3.23 3.23 0 002.22.21z" fill="#4a98f5"/><path d="M247.22 316.21l29.85-8a3.18 3.18 0 001.81-1.29L258 297.77 245 316a3.23 3.23 0 002.22.21z" fill="#fff" opacity=".7"/><path d="M259.27 302.1L272 284.37a3.16 3.16 0 00-1.67 0l-29.85 8a3.16 3.16 0 00-1.44.84z" fill="#4a98f5"/><path d="M259.27 302.1L272 284.37a3.16 3.16 0 00-1.67 0l-29.85 8a3.16 3.16 0 00-1.44.84z" fill="#fff" opacity=".2"/><path d="M249.79 310.87c11.91-1.86 23.57-5.68 35.48-7.53a3.61 3.61 0 014.15 3.09q1.33 10.69 2.68 21.41a3.78 3.78 0 01-3.25 4.11c-11.91 1.85-23.57 5.67-35.48 7.53a3.62 3.62 0 01-4.14-3.1q-1.35-10.69-2.68-21.41a3.76 3.76 0 013.24-4.1z" fill="#4a98f5"/><path d="M249.79 310.87c11.91-1.86 23.57-5.68 35.48-7.53a3.61 3.61 0 014.15 3.09q1.33 10.69 2.68 21.41a3.78 3.78 0 01-3.25 4.11c-11.91 1.85-23.57 5.67-35.48 7.53a3.62 3.62 0 01-4.14-3.1q-1.35-10.69-2.68-21.41a3.76 3.76 0 013.24-4.1z" fill="#fff" opacity=".3"/><path d="M253.38 339.48c11.9-1.86 23.56-5.67 35.47-7.53a3.93 3.93 0 002.32-1.25c-7.47-4.59-14.85-8.45-22.23-12.32-6 7.09-12 14.18-18.11 20.55a3.6 3.6 0 002.55.55z" fill="#4a98f5"/><path d="M253.38 339.48c11.9-1.86 23.56-5.67 35.47-7.53a3.93 3.93 0 002.32-1.25c-7.47-4.59-14.85-8.45-22.23-12.32-6 7.09-12 14.18-18.11 20.55a3.6 3.6 0 002.55.55z" fill="#fff" opacity=".5"/><path d="M269.59 323.58c5.84-6.89 11.69-13.78 17.61-20a3.68 3.68 0 00-1.93-.23c-11.91 1.86-23.57 5.67-35.47 7.53a3.9 3.9 0 00-1.81.78c7.25 4.4 14.43 8.16 21.6 11.92z" fill="#4a98f5"/><path d="M284.17 298.39l25.15 9.15c8.13-9.18 4.18-22.75 12.3-31.92l-25.15-9.15c-8.12 9.18-4.17 22.75-12.3 31.92z" fill="#fff"/><path d="M290.08 292.66l21 7.63c-.2.53-.42 1.06-.66 1.58l-21-7.63c.24-.52.46-1.05.66-1.58zm9.82-2.04l12.63 4.59c-.12.56-.26 1.12-.4 1.67l-12.62-4.59c.14-.55.27-1.11.39-1.67zm-6.44-2.34l4.14 1.5c-.13.56-.26 1.12-.4 1.67l-4.13-1.5c.14-.55.27-1.11.39-1.67zm-.9-5.94l21 7.63c-.11.57-.21 1.13-.31 1.7l-21-7.63c.1-.57.2-1.13.31-1.7zm5.75-3.52l16.34 5.94c-.14.55-.27 1.11-.4 1.67l-16.34-5.94c.09-.56.26-1.12.4-1.67zm-2.93-6.68l12.34 4.49c-.24.51-.45 1-.66 1.57l-12.33-4.48c.2-.53.42-1.06.65-1.58zm20.99 7.63l-6.6-2.4c-.24.52-.45 1-.66 1.58l6.61 2.4c.2-.53.42-1.06.65-1.58z" fill="#4a98f5" opacity=".3"/><path d="M312.86 291.88A252.78 252.78 0 00287 305.77a266.22 266.22 0 0143.89 8.93 243.72 243.72 0 00-18.03-22.82z" fill="#4a98f5"/><path d="M289.23 304.83a268.12 268.12 0 0139.93 8.17 3.85 3.85 0 012.94 4.65q-3.3 10.31-6.58 20.6a3.84 3.84 0 01-4.69 2.42 236.58 236.58 0 00-35.4-7.21 3.72 3.72 0 01-3.29-4l2.49-21.43a3.94 3.94 0 014.6-3.2z" fill="#4a98f5"/><path d="M289.23 304.83a268.12 268.12 0 0139.93 8.17 3.85 3.85 0 012.94 4.65q-3.3 10.31-6.58 20.6a3.84 3.84 0 01-4.69 2.42 236.58 236.58 0 00-35.4-7.21 3.72 3.72 0 01-3.29-4l2.49-21.43a3.94 3.94 0 014.6-3.2z" fill="#fff" opacity=".5"/><path d="M285.43 333.41a236.58 236.58 0 0135.4 7.21 3.85 3.85 0 002.62-.19A217.2 217.2 0 00307 319.25a223.35 223.35 0 00-23.86 13 3.78 3.78 0 002.29 1.16z" fill="#4a98f5"/><path d="M285.43 333.41a236.58 236.58 0 0135.4 7.21 3.85 3.85 0 002.62-.19A217.2 217.2 0 00307 319.25a223.35 223.35 0 00-23.86 13 3.78 3.78 0 002.29 1.16z" fill="#fff" opacity=".7"/><path d="M305.85 324.38A237 237 0 01331.06 314a4.66 4.66 0 00-1.9-1.07 268.12 268.12 0 00-39.93-8.12 4.52 4.52 0 00-2.18.24 227.23 227.23 0 0118.8 19.33z" fill="#4a98f5"/><path d="M305.85 324.38A237 237 0 01331.06 314a4.66 4.66 0 00-1.9-1.07 268.12 268.12 0 00-39.93-8.12 4.52 4.52 0 00-2.18.24 227.23 227.23 0 0118.8 19.33z" fill="#fff" opacity=".2"/><path d="M175.21 236.37a171.18 171.18 0 00-9.34 18.81 191.85 191.85 0 0129.87-12.62 184.18 184.18 0 00-20.53-6.19z" fill="#4a98f5"/><path d="M166.8 253.7a192.31 192.31 0 0127.2-11.49 2.9 2.9 0 013.75 1.55l5 14.9A2.68 2.68 0 01201 262a171.28 171.28 0 00-24.1 10.18 2.81 2.81 0 01-3.7-1l-7.8-13.73a2.75 2.75 0 011.4-3.75z" fill="#4a98f5"/><path d="M166.8 253.7a192.31 192.31 0 0127.2-11.49 2.9 2.9 0 013.75 1.55l5 14.9A2.68 2.68 0 01201 262a171.28 171.28 0 00-24.1 10.18 2.81 2.81 0 01-3.7-1l-7.8-13.73a2.75 2.75 0 011.4-3.75z" fill="#fff" opacity=".5"/><path d="M176.92 272.19A172.47 172.47 0 01201 262a2.7 2.7 0 001.48-1.18 165.28 165.28 0 00-18.93-5.82 156.44 156.44 0 00-8.55 17.44 2.75 2.75 0 001.92-.25z" fill="#4a98f5"/><path d="M176.92 272.19A172.47 172.47 0 01201 262a2.7 2.7 0 001.48-1.18 165.28 165.28 0 00-18.93-5.82 156.44 156.44 0 00-8.55 17.44 2.75 2.75 0 001.92-.25z" fill="#fff" opacity=".7"/><path d="M185.12 258.5a161.62 161.62 0 0110.46-16.43 3.35 3.35 0 00-1.59.14 191.15 191.15 0 00-27.19 11.49 3.24 3.24 0 00-1.19 1 173.52 173.52 0 0119.51 3.8z" fill="#4a98f5"/><path d="M185.12 258.5a161.62 161.62 0 0110.46-16.43 3.35 3.35 0 00-1.59.14 191.15 191.15 0 00-27.19 11.49 3.24 3.24 0 00-1.19 1 173.52 173.52 0 0119.51 3.8z" fill="#fff" opacity=".2"/><path d="M402 271.44c-1.19-.43-2.4-.85-3.61-1.26l.29-.83c1.22.41 2.44.83 3.64 1.27zm-6.41-2.16c-2.74-.84-5.55-1.61-8.34-2.28l.21-.85c2.82.67 5.65 1.45 8.41 2.3zm-8.89-.15a124.06 124.06 0 00-6.59 13.28 136.32 136.32 0 0121.09-8.91 132.17 132.17 0 00-14.5-4.37z" fill="#4a98f5"/><path d="M380.77 281.37a136.62 136.62 0 0119.23-8.12 2.06 2.06 0 012.65 1.1l3.54 10.52a1.88 1.88 0 01-1.22 2.36 120.72 120.72 0 00-17 7.19 2 2 0 01-2.61-.74q-2.74-4.85-5.51-9.68a2 2 0 01.92-2.63z" fill="#4a98f5"/><path d="M380.77 281.37a136.62 136.62 0 0119.23-8.12 2.06 2.06 0 012.65 1.1l3.54 10.52a1.88 1.88 0 01-1.22 2.36 120.72 120.72 0 00-17 7.19 2 2 0 01-2.61-.74q-2.74-4.85-5.51-9.68a2 2 0 01.92-2.63z" fill="#fff" opacity=".5"/><path d="M387.92 294.42a121.79 121.79 0 0117-7.19 1.92 1.92 0 001-.83 117.59 117.59 0 00-13.37-4.11 110 110 0 00-6 12.31 2 2 0 001.37-.18z" fill="#4a98f5"/><path d="M387.92 294.42a121.79 121.79 0 0117-7.19 1.92 1.92 0 001-.83 117.59 117.59 0 00-13.37-4.11 110 110 0 00-6 12.31 2 2 0 001.37-.18z" fill="#fff" opacity=".7"/><path d="M393.7 284.76a115.63 115.63 0 017.38-11.6 2.4 2.4 0 00-1.12.09 137.77 137.77 0 00-19.19 8.11 2.33 2.33 0 00-.84.74 119.35 119.35 0 0113.77 2.66z" fill="#4a98f5"/><path d="M393.7 284.76a115.63 115.63 0 017.38-11.6 2.4 2.4 0 00-1.12.09 137.77 137.77 0 00-19.19 8.11 2.33 2.33 0 00-.84.74 119.35 119.35 0 0113.77 2.66z" fill="#fff" opacity=".2"/><path fill="#4a98f5" d="M338.62 259.55l13.91 10.49-30.38-1.91 16.47-8.58z"/><path d="M351.18 269.3l-27.51-1.73c-1.56-.1-3 .7-3.1 1.76L319 280.87c-.14 1.06 1 2 2.58 2.12l27.51 1.73c1.56.09 3-.7 3.1-1.77l1.56-11.53c.15-1.07-1.01-2.02-2.57-2.12z" fill="#4a98f5"/><path d="M351.18 269.3l-27.51-1.73c-1.56-.1-3 .7-3.1 1.76L319 280.87c-.14 1.06 1 2 2.58 2.12l27.51 1.73c1.56.09 3-.7 3.1-1.77l1.56-11.53c.15-1.07-1.01-2.02-2.57-2.12z" fill="#fff" opacity=".5"/><path d="M349.1 284.72L321.59 283a3.53 3.53 0 01-1.8-.6l16.81-7.88 14.4 9.83a3.88 3.88 0 01-1.9.37z" fill="#4a98f5"/><path d="M349.1 284.72L321.59 283a3.53 3.53 0 01-1.8-.6l16.81-7.88 14.4 9.83a3.88 3.88 0 01-1.9.37z" fill="#fff" opacity=".7"/><path d="M336.23 277.32l-14-9.57a3.89 3.89 0 011.47-.18l27.51 1.73a3.61 3.61 0 011.4.36z" fill="#4a98f5"/><path d="M336.23 277.32l-14-9.57a3.89 3.89 0 011.47-.18l27.51 1.73a3.61 3.61 0 011.4.36z" fill="#fff" opacity=".2"/><path d="M283.12 286.51A245.32 245.32 0 00259 302.43a263.54 263.54 0 0143.94 4.92 238.18 238.18 0 00-19.82-20.84z" fill="#4a98f5"/><path d="M261.11 301.3a265.45 265.45 0 0140 4.48 3.8 3.8 0 013.32 4.3q-2.28 10.41-4.55 20.82a3.74 3.74 0 01-4.38 2.78 235.55 235.55 0 00-35.44-4 3.69 3.69 0 01-3.61-3.67l.45-21.28a3.86 3.86 0 014.21-3.43z" fill="#4a98f5"/><path d="M261.11 301.3a265.45 265.45 0 0140 4.48 3.8 3.8 0 013.32 4.3q-2.28 10.41-4.55 20.82a3.74 3.74 0 01-4.38 2.78 235.55 235.55 0 00-35.44-4 3.69 3.69 0 01-3.61-3.67l.45-21.28a3.86 3.86 0 014.21-3.43z" fill="#fff" opacity=".5"/><path d="M260 329.72a235.54 235.54 0 0135.44 4 3.74 3.74 0 002.56-.41 216 216 0 00-18.17-19.36 219.71 219.71 0 00-22.23 14.84 3.76 3.76 0 002.4.93z" fill="#4a98f5"/><path d="M260 329.72a235.54 235.54 0 0135.44 4 3.74 3.74 0 002.56-.41 216 216 0 00-18.17-19.36 219.71 219.71 0 00-22.23 14.84 3.76 3.76 0 002.4.93z" fill="#fff" opacity=".7"/><path d="M279.26 319.05a230.83 230.83 0 0123.79-12.39 4.4 4.4 0 00-2-.88 264.17 264.17 0 00-40-4.48 4.53 4.53 0 00-2.12.43 226.68 226.68 0 0120.33 17.32z" fill="#4a98f5"/><path d="M279.26 319.05a230.83 230.83 0 0123.79-12.39 4.4 4.4 0 00-2-.88 264.17 264.17 0 00-40-4.48 4.53 4.53 0 00-2.12.43 226.68 226.68 0 0120.33 17.32z" fill="#fff" opacity=".2"/><path d="M389.75 372.32L359 353.83a3.8 3.8 0 00-5.13 1.17l-11.69 18.32a3.58 3.58 0 001.2 5l30.71 18.48a3.79 3.79 0 005.13-1.17L391 377.31a3.58 3.58 0 00-1.25-4.99z" fill="#4a98f5"/><path d="M389.75 372.32L359 353.83a3.8 3.8 0 00-5.13 1.17l-11.69 18.32a3.58 3.58 0 001.2 5l30.71 18.48a3.79 3.79 0 005.13-1.17L391 377.31a3.58 3.58 0 00-1.25-4.99z" fill="#fff" opacity=".3"/><path d="M374.12 396.79l-30.7-18.48a3.62 3.62 0 01-1.59-2l26.41-3.57 8.46 24.56a3.72 3.72 0 01-2.58-.51z" fill="#4a98f5"/><path d="M374.12 396.79l-30.7-18.48a3.62 3.62 0 01-1.59-2l26.41-3.57 8.46 24.56a3.72 3.72 0 01-2.58-.51z" fill="#fff" opacity=".5"/><path d="M365.4 377.18l-8.23-23.89a3.74 3.74 0 011.87.54l30.7 18.49a3.64 3.64 0 011.34 1.39zm-30.14-56.27l-25.84-15.56a3.2 3.2 0 00-4.32 1l-9.84 15.42a3 3 0 001 4.2l25.84 15.56a3.21 3.21 0 004.33-1l9.84-15.41a3 3 0 00-1.01-4.21z" fill="#4a98f5"/><path d="M335.26 320.91l-25.84-15.56a3.2 3.2 0 00-4.32 1l-9.84 15.42a3 3 0 001 4.2l25.84 15.56a3.21 3.21 0 004.33-1l9.84-15.41a3 3 0 00-1.01-4.21z" fill="#fff" opacity=".3"/><path d="M322.11 341.51L296.27 326a3 3 0 01-1.34-1.7l22.23-3 7.12 20.67a3.12 3.12 0 01-2.17-.46z" fill="#4a98f5"/><path d="M322.11 341.51L296.27 326a3 3 0 01-1.34-1.7l22.23-3 7.12 20.67a3.12 3.12 0 01-2.17-.46z" fill="#fff" opacity=".5"/><path d="M314.77 325l-6.93-20.1a3 3 0 011.58.45l25.84 15.56a3 3 0 011.12 1.17zm72.53 21.5l-18.44 4.71a1.92 1.92 0 00-1.41 2.34l3 11a2 2 0 002.4 1.36l18.44-4.71a1.92 1.92 0 001.41-2.34l-3-11a2 2 0 00-2.4-1.36z" fill="#4a98f5"/><path d="M387.3 346.5l-18.44 4.71a1.92 1.92 0 00-1.41 2.34l3 11a2 2 0 002.4 1.36l18.44-4.71a1.92 1.92 0 001.41-2.34l-3-11a2 2 0 00-2.4-1.36z" fill="#fff" opacity=".3"/><path d="M391.28 361.2l-18.44 4.71a1.89 1.89 0 01-1.37-.14l8.18-11.12 12.76 5.77a1.93 1.93 0 01-1.13.78z" fill="#4a98f5"/><path d="M391.28 361.2l-18.44 4.71a1.89 1.89 0 01-1.37-.14l8.18-11.12 12.76 5.77a1.93 1.93 0 01-1.13.78z" fill="#fff" opacity=".5"/><path d="M380.37 357.32L368 351.71a2 2 0 01.9-.5l18.44-4.72a2 2 0 011 0zm-193.25-3.68l-30.39-4.51a3.17 3.17 0 00-3.62 2.58l-2.85 18.13a3.09 3.09 0 002.66 3.51l30.39 4.52a3.19 3.19 0 003.62-2.58l2.85-18.14a3.11 3.11 0 00-2.66-3.51z" fill="#4a98f5"/><path d="M187.12 353.64l-30.39-4.51a3.17 3.17 0 00-3.62 2.58l-2.85 18.13a3.09 3.09 0 002.66 3.51l30.39 4.52a3.19 3.19 0 003.62-2.58l2.85-18.14a3.11 3.11 0 00-2.66-3.51z" fill="#fff" opacity=".3"/><path d="M183.31 377.87l-30.39-4.51a3.18 3.18 0 01-1.95-1.07l19.45-11.36 15.07 16.49a3.19 3.19 0 01-2.18.45z" fill="#4a98f5"/><path d="M183.31 377.87l-30.39-4.51a3.18 3.18 0 01-1.95-1.07l19.45-11.36 15.07 16.49a3.19 3.19 0 01-2.18.45z" fill="#fff" opacity=".5"/><path d="M169.73 365.34l-14.65-16a3.27 3.27 0 011.65-.19l30.39 4.52a3.08 3.08 0 011.52.66zm176.65-15.2c-12.4 2.68-25.34 3.34-37.73 6a3.71 3.71 0 00-2.83 4.59q3 11 5.93 22a4.09 4.09 0 004.82 2.8c12.4-2.67 25.34-3.34 37.74-6a3.71 3.71 0 002.82-4.59q-3-11-5.93-22a4.09 4.09 0 00-4.82-2.8z" fill="#4a98f5"/><path d="M346.38 350.14c-12.4 2.68-25.34 3.34-37.73 6a3.71 3.71 0 00-2.83 4.59q3 11 5.93 22a4.09 4.09 0 004.82 2.8c12.4-2.67 25.34-3.34 37.74-6a3.71 3.71 0 002.82-4.59q-3-11-5.93-22a4.09 4.09 0 00-4.82-2.8z" fill="#fff" opacity=".3"/><path d="M354.31 379.5c-12.4 2.67-25.34 3.34-37.74 6a4.13 4.13 0 01-2.76-.35c5.48-7.3 11.15-13.87 16.83-20.44 8.71 4.67 17.42 9.35 25.94 13.29a3.69 3.69 0 01-2.27 1.5z" fill="#4a98f5"/><path d="M354.31 379.5c-12.4 2.67-25.34 3.34-37.74 6a4.13 4.13 0 01-2.76-.35c5.48-7.3 11.15-13.87 16.83-20.44 8.71 4.67 17.42 9.35 25.94 13.29a3.69 3.69 0 01-2.27 1.5z" fill="#fff" opacity=".5"/><path d="M332.08 370.06c-8.47-4.55-16.94-9.09-25.23-13a3.7 3.7 0 011.79-1c12.4-2.67 25.34-3.34 37.74-6a4.29 4.29 0 012.08.08c-5.34 7.14-10.86 13.53-16.38 19.92zm-50.27-47.61a248.67 248.67 0 0124.46 16.13 267.08 267.08 0 00-44.5 5 245.76 245.76 0 0120.04-21.13z" fill="#4a98f5"/><path d="M304.11 337.44a268.6 268.6 0 00-40.5 4.53 3.86 3.86 0 00-3.36 4.36q2.31 10.55 4.61 21.08a3.79 3.79 0 004.43 2.82 237.76 237.76 0 0135.9-4 3.75 3.75 0 003.66-3.73l-.45-21.55a3.92 3.92 0 00-4.29-3.51z" fill="#4a98f5"/><path d="M304.11 337.44a268.6 268.6 0 00-40.5 4.53 3.86 3.86 0 00-3.36 4.36q2.31 10.55 4.61 21.08a3.79 3.79 0 004.43 2.82 237.76 237.76 0 0135.9-4 3.75 3.75 0 003.66-3.73l-.45-21.55a3.92 3.92 0 00-4.29-3.51z" fill="#fff" opacity=".5"/><path d="M305.19 366.22a237.63 237.63 0 00-35.9 4 3.89 3.89 0 01-2.59-.42 218.88 218.88 0 0118.41-19.61 222.46 222.46 0 0122.51 15 3.85 3.85 0 01-2.43 1.03z" fill="#4a98f5"/><path d="M305.19 366.22a237.63 237.63 0 00-35.9 4 3.89 3.89 0 01-2.59-.42 218.88 218.88 0 0118.41-19.61 222.46 222.46 0 0122.51 15 3.85 3.85 0 01-2.43 1.03z" fill="#fff" opacity=".7"/><path d="M285.72 355.42a232.66 232.66 0 00-24.09-12.55 4.4 4.4 0 012-.9 268.62 268.62 0 0140.49-4.53 4.6 4.6 0 012.15.43 229.51 229.51 0 00-20.55 17.55z" fill="#4a98f5"/><path d="M285.72 355.42a232.66 232.66 0 00-24.09-12.55 4.4 4.4 0 012-.9 268.62 268.62 0 0140.49-4.53 4.6 4.6 0 012.15.43 229.51 229.51 0 00-20.55 17.55z" fill="#fff" opacity=".2"/><path d="M293.9 345.21l-35.7 5.38a3.64 3.64 0 00-3.11 4.13l3.4 21.3a3.71 3.71 0 004.25 3l35.7-5.37a3.66 3.66 0 003.12-4.14l-3.4-21.29a3.74 3.74 0 00-4.26-3.01z" fill="#4a98f5"/><path d="M293.9 345.21l-35.7 5.38a3.64 3.64 0 00-3.11 4.13l3.4 21.3a3.71 3.71 0 004.25 3l35.7-5.37a3.66 3.66 0 003.12-4.14l-3.4-21.29a3.74 3.74 0 00-4.26-3.01z" fill="#fff" opacity=".3"/><path d="M298.44 373.67l-35.69 5.38a3.78 3.78 0 01-2.57-.53l17.66-19.41 22.88 13.3a3.66 3.66 0 01-2.28 1.26z" fill="#4a98f5"/><path d="M298.44 373.67l-35.69 5.38a3.78 3.78 0 01-2.57-.53l17.66-19.41 22.88 13.3a3.66 3.66 0 01-2.28 1.26z" fill="#fff" opacity=".5"/><path d="M278.67 364.29l-22.25-12.93a3.68 3.68 0 011.78-.77l35.7-5.38a3.72 3.72 0 011.94.22z" fill="#4a98f5"/><path fill="#fff" d="M304.17 388.98l-30.87-9.34 12.57-39.19 30.87 9.35-12.57 39.18z"/><path fill="#4a98f5" opacity=".3" d="M311.47 357.5l-25.77-7.79.63-1.96 25.76 7.8-.62 1.95zm-12.21 2.94l-15.5-4.69.63-1.95 15.5 4.69-.63 1.95zm7.91 2.39l-5.08-1.53.63-1.95 5.07 1.53-.62 1.95zm.42 6.76l-25.77-7.8.63-1.95 25.76 7.8-.62 1.95zm-7.64 4.32l-20.07-6.07.63-1.96 20.06 6.08-.62 1.95zm3.76 7.77l-15.14-4.59.62-1.95 15.15 4.59-.63 1.95zm-25.76-7.8l8.1 2.45.63-1.95-8.11-2.45-.62 1.95z"/><path fill="#4a98f5" d="M261.77 315.45l12.27 19.12-32.93-8.86 20.66-10.26z"/><path d="M272.77 333.16l-29.82-8a3.22 3.22 0 00-3.94 2.16l-5.07 17.79a3.1 3.1 0 002.22 3.82l29.83 8a3.22 3.22 0 003.93-2.16L275 337a3.1 3.1 0 00-2.23-3.84z" fill="#4a98f5"/><path d="M272.77 333.16l-29.82-8a3.22 3.22 0 00-3.94 2.16l-5.07 17.79a3.1 3.1 0 002.22 3.82l29.83 8a3.22 3.22 0 003.93-2.16L275 337a3.1 3.1 0 00-2.23-3.84z" fill="#fff" opacity=".5"/><path d="M266 356.93l-29.82-8a3.15 3.15 0 01-1.81-1.3l20.84-9.1 13 18.22a3.23 3.23 0 01-2.21.18z" fill="#4a98f5"/><path d="M266 356.93l-29.82-8a3.15 3.15 0 01-1.81-1.3l20.84-9.1 13 18.22a3.23 3.23 0 01-2.21.18z" fill="#fff" opacity=".7"/><path d="M254 342.84l-12.68-17.71a3.19 3.19 0 011.68 0l29.82 8a3.15 3.15 0 011.44.83z" fill="#4a98f5"/><path d="M254 342.84l-12.68-17.71a3.19 3.19 0 011.68 0l29.82 8a3.15 3.15 0 011.44.83z" fill="#fff" opacity=".2"/><path d="M263.41 351.6c-11.89-1.86-23.55-5.67-35.44-7.53a3.61 3.61 0 00-4.15 3.09l-2.67 21.39a3.78 3.78 0 003.24 4.11c11.9 1.86 23.55 5.67 35.45 7.52a3.61 3.61 0 004.14-3.09q1.33-10.69 2.68-21.39a3.76 3.76 0 00-3.25-4.1z" fill="#4a98f5"/><path d="M263.41 351.6c-11.89-1.86-23.55-5.67-35.44-7.53a3.61 3.61 0 00-4.15 3.09l-2.67 21.39a3.78 3.78 0 003.24 4.11c11.9 1.86 23.55 5.67 35.45 7.52a3.61 3.61 0 004.14-3.09q1.33-10.69 2.68-21.39a3.76 3.76 0 00-3.25-4.1z" fill="#fff" opacity=".3"/><path d="M259.83 380.18c-11.89-1.85-23.54-5.66-35.44-7.52a3.82 3.82 0 01-2.31-1.25c7.46-4.58 14.83-8.44 22.2-12.31 6 7.08 12 14.17 18.1 20.54a3.59 3.59 0 01-2.55.54z" fill="#4a98f5"/><path d="M259.83 380.18c-11.89-1.85-23.54-5.66-35.44-7.52a3.82 3.82 0 01-2.31-1.25c7.46-4.58 14.83-8.44 22.2-12.31 6 7.08 12 14.17 18.1 20.54a3.59 3.59 0 01-2.55.54z" fill="#fff" opacity=".5"/><path d="M243.63 364.3c-5.83-6.88-11.67-13.77-17.59-20a3.49 3.49 0 011.93-.23c11.89 1.86 23.55 5.67 35.44 7.52a4.05 4.05 0 011.81.78c-7.22 4.42-14.42 8.17-21.59 11.93zm-91.78-2.68a252.39 252.39 0 0125.88 13.88 267 267 0 00-43.85 8.93 243.35 243.35 0 0117.97-22.81z" fill="#4a98f5"/><path d="M175.46 374.56a269 269 0 00-39.9 8.12 3.84 3.84 0 00-2.93 4.65q3.28 10.29 6.58 20.58a3.81 3.81 0 004.68 2.41 237.43 237.43 0 0135.37-7.2 3.71 3.71 0 003.29-4l-2.49-21.42a3.94 3.94 0 00-4.6-3.14z" fill="#4a98f5"/><path d="M175.46 374.56a269 269 0 00-39.9 8.12 3.84 3.84 0 00-2.93 4.65q3.28 10.29 6.58 20.58a3.81 3.81 0 004.68 2.41 237.43 237.43 0 0135.37-7.2 3.71 3.71 0 003.29-4l-2.49-21.42a3.94 3.94 0 00-4.6-3.14z" fill="#fff" opacity=".5"/><path d="M179.26 403.12a237.43 237.43 0 00-35.37 7.2 3.79 3.79 0 01-2.62-.18A217 217 0 01157.75 389a225.76 225.76 0 0123.84 13 3.76 3.76 0 01-2.33 1.12z" fill="#4a98f5"/><path d="M179.26 403.12a237.43 237.43 0 00-35.37 7.2 3.79 3.79 0 01-2.62-.18A217 217 0 01157.75 389a225.76 225.76 0 0123.84 13 3.76 3.76 0 01-2.33 1.12z" fill="#fff" opacity=".7"/><path d="M158.85 394.1a234.35 234.35 0 00-25.18-10.35 4.58 4.58 0 011.89-1.07 267.73 267.73 0 0139.9-8.12 4.64 4.64 0 012.18.24 230 230 0 00-18.79 19.3z" fill="#4a98f5"/><path d="M158.85 394.1a234.35 234.35 0 00-25.18-10.35 4.58 4.58 0 011.89-1.07 267.73 267.73 0 0139.9-8.12 4.64 4.64 0 012.18.24 230 230 0 00-18.79 19.3z" fill="#fff" opacity=".2"/><path d="M101.47 381.22l41.39 2.49a4.22 4.22 0 014 4.41l-1.57 24.7a4.25 4.25 0 01-4.54 3.89l-41.4-2.49a4.22 4.22 0 01-4-4.41l1.58-24.7a4.26 4.26 0 014.54-3.89z" fill="#4a98f5"/><path d="M101.47 381.22l41.39 2.49a4.22 4.22 0 014 4.41l-1.57 24.7a4.25 4.25 0 01-4.54 3.89l-41.4-2.49a4.22 4.22 0 01-4-4.41l1.58-24.7a4.26 4.26 0 014.54-3.89z" fill="#fff" opacity=".3"/><path d="M99.37 414.22l41.39 2.5a4.34 4.34 0 002.87-.87l-22.29-20.38L96.62 413a4.26 4.26 0 002.75 1.22z" fill="#4a98f5"/><path d="M99.37 414.22l41.39 2.5a4.34 4.34 0 002.87-.87l-22.29-20.38L96.62 413a4.26 4.26 0 002.75 1.22z" fill="#fff" opacity=".5"/><path d="M121 401.48l24-17.06a4.29 4.29 0 00-2.12-.71l-41.4-2.49a4.29 4.29 0 00-2.2.44zm114.56-87.68l-36.18 7.83a2.22 2.22 0 00-1.43 3.62l9.46 14.88a5.27 5.27 0 005.14 2.2l36.18-7.83a2.22 2.22 0 001.43-3.62L240.7 316a5.27 5.27 0 00-5.14-2.2z" fill="#4a98f5"/><path d="M235.56 313.8l-36.18 7.83a2.22 2.22 0 00-1.43 3.62l9.46 14.88a5.27 5.27 0 005.14 2.2l36.18-7.83a2.22 2.22 0 001.43-3.62L240.7 316a5.27 5.27 0 00-5.14-2.2z" fill="#fff" opacity=".3"/><path d="M248.35 334.59l-35.42 7.66a5.74 5.74 0 01-2.82-.13l12.55-16.24 27.69 7.54a3.21 3.21 0 01-2 1.17z" fill="#4a98f5"/><path d="M248.35 334.59l-35.42 7.66a5.74 5.74 0 01-2.82-.13l12.55-16.24 27.69 7.54a3.21 3.21 0 01-2 1.17z" fill="#fff" opacity=".5"/><path d="M225.06 329.64l-26.92-7.33a3.55 3.55 0 011.62-.76l35.42-7.67a5.87 5.87 0 012.09 0zm114.68 56.92l38.26-5.68a4 4 0 014.56 3.25l3.58 22.87a3.91 3.91 0 01-3.35 4.42l-38.25 5.68a4 4 0 01-4.54-3.3l-3.6-22.8a3.9 3.9 0 013.34-4.44z" fill="#4a98f5"/><path d="M339.74 386.56l38.26-5.68a4 4 0 014.56 3.25l3.58 22.87a3.91 3.91 0 01-3.35 4.42l-38.25 5.68a4 4 0 01-4.54-3.3l-3.6-22.8a3.9 3.9 0 013.34-4.44z" fill="#fff" opacity=".3"/><path d="M344.54 417.05l38.25-5.68a3.91 3.91 0 002.44-1.34l-24.47-14.29-19 20.74a4 4 0 002.78.57z" fill="#4a98f5"/><path d="M344.54 417.05l38.25-5.68a3.91 3.91 0 002.44-1.34l-24.47-14.29-19 20.74a4 4 0 002.78.57z" fill="#fff" opacity=".5"/><path d="M361.63 401.29l18.44-20.18a4 4 0 00-2.08-.23l-38.25 5.68a3.94 3.94 0 00-1.91.83zM156 342.54l-20.87 22.39 45.61-4.08L156 342.54z" fill="#4a98f5"/><path d="M137.15 363.36l41.3-3.7a4.26 4.26 0 014.66 3.76l2.34 24.64a4.21 4.21 0 01-3.88 4.52l-41.29 3.7a4.26 4.26 0 01-4.66-3.76l-2.34-24.64a4.21 4.21 0 013.87-4.52z" fill="#4a98f5"/><path d="M137.15 363.36l41.3-3.7a4.26 4.26 0 014.66 3.76l2.34 24.64a4.21 4.21 0 01-3.88 4.52l-41.29 3.7a4.26 4.26 0 01-4.66-3.76l-2.34-24.64a4.21 4.21 0 013.87-4.52z" fill="#fff" opacity=".5"/><path d="M140.28 396.28l41.29-3.69a4.29 4.29 0 002.71-1.29L159 374.48l-21.66 21a4.3 4.3 0 002.94.8z" fill="#4a98f5"/><path d="M140.28 396.28l41.29-3.69a4.29 4.29 0 002.71-1.29L159 374.48l-21.66 21a4.3 4.3 0 002.94.8z" fill="#fff" opacity=".7"/><path d="M159.6 380.48L180.66 360a4.32 4.32 0 00-2.21-.38l-41.29 3.69a4.34 4.34 0 00-2.11.77z" fill="#4a98f5"/><path d="M159.6 380.48L180.66 360a4.32 4.32 0 00-2.21-.38l-41.29 3.69a4.34 4.34 0 00-2.11.77z" fill="#fff" opacity=".2"/><path d="M170.09 379.79c11.57 2.49 23.65 3.12 35.23 5.61a3.45 3.45 0 012.63 4.28q-2.76 10.26-5.54 20.51a3.8 3.8 0 01-4.49 2.62c-11.58-2.5-23.66-3.12-35.24-5.61a3.46 3.46 0 01-2.63-4.29q2.76-10.25 5.54-20.51a3.81 3.81 0 014.5-2.61z" fill="#4a98f5"/><path d="M170.09 379.79c11.57 2.49 23.65 3.12 35.23 5.61a3.45 3.45 0 012.63 4.28q-2.76 10.26-5.54 20.51a3.8 3.8 0 01-4.49 2.62c-11.58-2.5-23.66-3.12-35.24-5.61a3.46 3.46 0 01-2.63-4.29q2.76-10.25 5.54-20.51a3.81 3.81 0 014.5-2.61z" fill="#fff" opacity=".3"/><path d="M162.69 407.2c11.57 2.49 23.65 3.11 35.23 5.61a3.93 3.93 0 002.58-.33c-5.12-6.82-10.42-13-15.72-19.08-8.13 4.36-16.27 8.73-24.22 12.4a3.43 3.43 0 002.13 1.4z" fill="#4a98f5"/><path d="M162.69 407.2c11.57 2.49 23.65 3.11 35.23 5.61a3.93 3.93 0 002.58-.33c-5.12-6.82-10.42-13-15.72-19.08-8.13 4.36-16.27 8.73-24.22 12.4a3.43 3.43 0 002.13 1.4z" fill="#fff" opacity=".5"/><path d="M183.44 398.38c7.91-4.24 15.82-8.48 23.55-12.1a3.37 3.37 0 00-1.67-.88c-11.58-2.5-23.66-3.12-35.23-5.61a4 4 0 00-1.94.07c4.98 6.6 10.13 12.56 15.29 18.52z" fill="#4a98f5"/><path d="M190.1 385.48a172.62 172.62 0 00-13.85 15.14 188.58 188.58 0 0131.32-4.07 176.47 176.47 0 00-17.47-11.07z" fill="#4a98f5"/><path d="M177.53 399.48a188.42 188.42 0 0128.47-3.71 2.77 2.77 0 013.08 2.42q.3 7.59.61 15.18a2.64 2.64 0 01-2.53 2.68 166.31 166.31 0 00-25.26 3.29 2.69 2.69 0 01-3.17-1.94q-1.73-7.4-3.51-14.8a2.72 2.72 0 012.31-3.12z" fill="#4a98f5"/><path d="M177.53 399.48a188.42 188.42 0 0128.47-3.71 2.77 2.77 0 013.08 2.42q.3 7.59.61 15.18a2.64 2.64 0 01-2.53 2.68 166.31 166.31 0 00-25.26 3.29 2.69 2.69 0 01-3.17-1.94q-1.73-7.4-3.51-14.8a2.72 2.72 0 012.31-3.12z" fill="#fff" opacity=".5"/><path d="M181.92 419.34a166.31 166.31 0 0125.26-3.29 2.71 2.71 0 001.7-.72A157.72 157.72 0 00192.8 405a152.5 152.5 0 00-12.72 14.06 2.75 2.75 0 001.84.28z" fill="#4a98f5"/><path d="M181.92 419.34a166.31 166.31 0 0125.26-3.29 2.71 2.71 0 001.7-.72A157.72 157.72 0 00192.8 405a152.5 152.5 0 00-12.72 14.06 2.75 2.75 0 001.84.28z" fill="#fff" opacity=".7"/><path d="M193.3 408.68a161.59 161.59 0 0114.24-12.63 3.18 3.18 0 00-1.52-.28 188.42 188.42 0 00-28.49 3.71 3.15 3.15 0 00-1.39.66 164.21 164.21 0 0117.16 8.54z" fill="#4a98f5"/><path d="M193.3 408.68a161.59 161.59 0 0114.24-12.63 3.18 3.18 0 00-1.52-.28 188.42 188.42 0 00-28.49 3.71 3.15 3.15 0 00-1.39.66 164.21 164.21 0 0117.16 8.54z" fill="#fff" opacity=".2"/><path d="M228.85 351.84a284.64 284.64 0 00-28.08 18.52 305.37 305.37 0 0151.09 5.72 279 279 0 00-23.01-24.24z" fill="#4a98f5"/><path d="M203.26 369.05a307.53 307.53 0 0146.49 5.2c2.62.5 4.35 2.77 3.85 5l-5.28 24.2a4.36 4.36 0 01-5.09 3.24 273 273 0 00-41.23-4.6 4.3 4.3 0 01-4.2-4.28l.52-24.74c.05-2.29 2.27-4.07 4.94-4.02z" fill="#4a98f5"/><path d="M203.26 369.05a307.53 307.53 0 0146.49 5.2c2.62.5 4.35 2.77 3.85 5l-5.28 24.2a4.36 4.36 0 01-5.09 3.24 273 273 0 00-41.23-4.6 4.3 4.3 0 01-4.2-4.28l.52-24.74c.05-2.29 2.27-4.07 4.94-4.02z" fill="#fff" opacity=".5"/><path d="M202 402.09a273 273 0 0141.22 4.61 4.48 4.48 0 003-.47 249.81 249.81 0 00-21.14-22.52A255.89 255.89 0 00199.22 401a4.35 4.35 0 002.78 1.09z" fill="#4a98f5"/><path d="M202 402.09a273 273 0 0141.22 4.61 4.48 4.48 0 003-.47 249.81 249.81 0 00-21.14-22.52A255.89 255.89 0 00199.22 401a4.35 4.35 0 002.78 1.09z" fill="#fff" opacity=".7"/><path d="M224.36 389.69A267.12 267.12 0 01252 375.28a5.24 5.24 0 00-2.28-1 307.39 307.39 0 00-46.49-5.2 5.19 5.19 0 00-2.47.5 263.15 263.15 0 0123.6 20.11z" fill="#4a98f5"/><path d="M224.36 389.69A267.12 267.12 0 01252 375.28a5.24 5.24 0 00-2.28-1 307.39 307.39 0 00-46.49-5.2 5.19 5.19 0 00-2.47.5 263.15 263.15 0 0123.6 20.11z" fill="#fff" opacity=".2"/><path d="M215 378l41 6.17a4.18 4.18 0 013.57 4.75l-3.9 24.45a4.29 4.29 0 01-4.89 3.48l-41-6.18a4.18 4.18 0 01-3.58-4.74l3.91-24.45A4.28 4.28 0 01215 378z" fill="#4a98f5"/><path d="M215 378l41 6.17a4.18 4.18 0 013.57 4.75l-3.9 24.45a4.29 4.29 0 01-4.89 3.48l-41-6.18a4.18 4.18 0 01-3.58-4.74l3.91-24.45A4.28 4.28 0 01215 378z" fill="#fff" opacity=".3"/><path d="M209.76 410.65l41 6.17a4.33 4.33 0 002.95-.61l-20.28-22.28-26.29 15.27a4.26 4.26 0 002.62 1.45z" fill="#4a98f5"/><path d="M209.76 410.65l41 6.17a4.33 4.33 0 002.95-.61l-20.28-22.28-26.29 15.27a4.26 4.26 0 002.62 1.45z" fill="#fff" opacity=".5"/><path d="M232.46 399.88L258 385a4.29 4.29 0 00-2-.9l-41-6.1a4.33 4.33 0 00-2.24.25zm19.41-56.08l-14.1 21.96 37.82-10.18-23.72-11.78z" fill="#4a98f5"/><path d="M239.24 364.13l34.24-9.21a3.68 3.68 0 014.52 2.48l5.83 20.43a3.56 3.56 0 01-2.56 4.38L247 391.43a3.7 3.7 0 01-4.51-2.48l-5.83-20.43a3.57 3.57 0 012.58-4.39z" fill="#4a98f5"/><path d="M239.24 364.13l34.24-9.21a3.68 3.68 0 014.52 2.48l5.83 20.43a3.56 3.56 0 01-2.56 4.38L247 391.43a3.7 3.7 0 01-4.51-2.48l-5.83-20.43a3.57 3.57 0 012.58-4.39z" fill="#fff" opacity=".5"/><path d="M247 391.43l34.23-9.22a3.63 3.63 0 002.08-1.48l-23.92-10.45-15 20.92a3.73 3.73 0 002.61.23z" fill="#4a98f5"/><path d="M247 391.43l34.23-9.22a3.63 3.63 0 002.08-1.48l-23.92-10.45-15 20.92a3.73 3.73 0 002.61.23z" fill="#fff" opacity=".7"/><path d="M260.84 375.25l14.56-20.34a3.72 3.72 0 00-1.93 0l-34.23 9.21a3.77 3.77 0 00-1.66 1z" fill="#4a98f5"/><path d="M260.84 375.25l14.56-20.34a3.72 3.72 0 00-1.93 0l-34.23 9.21a3.77 3.77 0 00-1.66 1z" fill="#fff" opacity=".2"/><path d="M250 385.3c13.66-2.13 27-6.5 40.69-8.63a4.14 4.14 0 014.76 3.54q1.54 12.29 3.07 24.56a4.34 4.34 0 01-3.72 4.72c-13.66 2.13-27 6.5-40.7 8.63a4.15 4.15 0 01-4.76-3.54q-1.53-12.29-3.07-24.56a4.34 4.34 0 013.73-4.72z" fill="#4a98f5"/><path d="M250 385.3c13.66-2.13 27-6.5 40.69-8.63a4.14 4.14 0 014.76 3.54q1.54 12.29 3.07 24.56a4.34 4.34 0 01-3.72 4.72c-13.66 2.13-27 6.5-40.7 8.63a4.15 4.15 0 01-4.76-3.54q-1.53-12.29-3.07-24.56a4.34 4.34 0 013.73-4.72z" fill="#fff" opacity=".3"/><path d="M254.09 418.12c13.65-2.13 27-6.5 40.69-8.63a4.55 4.55 0 002.66-1.43c-8.57-5.26-17-9.7-25.5-14.14-6.89 8.13-13.78 16.27-20.77 23.58a4.11 4.11 0 002.92.62z" fill="#4a98f5"/><path d="M254.09 418.12c13.65-2.13 27-6.5 40.69-8.63a4.55 4.55 0 002.66-1.43c-8.57-5.26-17-9.7-25.5-14.14-6.89 8.13-13.78 16.27-20.77 23.58a4.11 4.11 0 002.92.62z" fill="#fff" opacity=".5"/><path d="M272.69 399.89c6.7-7.91 13.4-15.81 20.2-23a4.14 4.14 0 00-2.22-.26c-13.66 2.13-27 6.51-40.69 8.64a4.58 4.58 0 00-2.08.89c8.33 5.1 16.56 9.42 24.79 13.73zm49.64-36.37a287.3 287.3 0 00-29.72 15.94A306.27 306.27 0 01343 389.7a277.62 277.62 0 00-20.67-26.18z" fill="#4a98f5"/><path d="M295.22 378.38A307.29 307.29 0 01341 387.7c2.56.73 4.07 3.15 3.37 5.33l-7.55 23.63a4.39 4.39 0 01-5.38 2.77 273.34 273.34 0 00-40.6-8.27 4.25 4.25 0 01-3.78-4.63l2.85-24.59c.28-2.27 2.66-3.94 5.31-3.56z" fill="#4a98f5"/><path d="M295.22 378.38A307.29 307.29 0 01341 387.7c2.56.73 4.07 3.15 3.37 5.33l-7.55 23.63a4.39 4.39 0 01-5.38 2.77 273.34 273.34 0 00-40.6-8.27 4.25 4.25 0 01-3.78-4.63l2.85-24.59c.28-2.27 2.66-3.94 5.31-3.56z" fill="#fff" opacity=".5"/><path d="M290.86 411.17a272 272 0 0140.6 8.26 4.4 4.4 0 003-.21 249 249 0 00-18.93-24.3 257.87 257.87 0 00-27.37 14.88 4.4 4.4 0 002.7 1.37z" fill="#4a98f5"/><path d="M290.86 411.17a272 272 0 0140.6 8.26 4.4 4.4 0 003-.21 249 249 0 00-18.93-24.3 257.87 257.87 0 00-27.37 14.88 4.4 4.4 0 002.7 1.37z" fill="#fff" opacity=".7"/><path d="M314.28 400.81a270 270 0 0128.92-11.88 5.09 5.09 0 00-2.2-1.23 308.58 308.58 0 00-45.8-9.33 5.36 5.36 0 00-2.51.28 260.89 260.89 0 0121.59 22.16z" fill="#4a98f5"/><path d="M314.28 400.81a270 270 0 0128.92-11.88 5.09 5.09 0 00-2.2-1.23 308.58 308.58 0 00-45.8-9.33 5.36 5.36 0 00-2.51.28 260.89 260.89 0 0121.59 22.16z" fill="#fff" opacity=".2"/><path d="M168.52 296.75a248.23 248.23 0 00-13.29 26.76 271.65 271.65 0 0142.51-18 261.87 261.87 0 00-29.22-8.76z" fill="#4a98f5"/><path d="M156.57 321.4a274 274 0 0138.67-16.35 4.13 4.13 0 015.34 2.21l7.13 21.2a3.8 3.8 0 01-2.46 4.76A242.66 242.66 0 00171 347.71a4 4 0 01-5.26-1.49L154.6 326.7a3.91 3.91 0 011.97-5.3z" fill="#4a98f5"/><path d="M156.57 321.4a274 274 0 0138.67-16.35 4.13 4.13 0 015.34 2.21l7.13 21.2a3.8 3.8 0 01-2.46 4.76A242.66 242.66 0 00171 347.71a4 4 0 01-5.26-1.49L154.6 326.7a3.91 3.91 0 011.97-5.3z" fill="#fff" opacity=".5"/><path d="M171 347.71a243.15 243.15 0 0134.29-14.49 3.93 3.93 0 002.1-1.68 234.23 234.23 0 00-26.95-8.28 220.62 220.62 0 00-12.14 24.8 4 4 0 002.7-.35z" fill="#4a98f5"/><path d="M171 347.71a243.15 243.15 0 0134.29-14.49 3.93 3.93 0 002.1-1.68 234.23 234.23 0 00-26.95-8.28 220.62 220.62 0 00-12.14 24.8 4 4 0 002.7-.35z" fill="#fff" opacity=".7"/><path d="M182.62 328.23a231.35 231.35 0 0114.88-23.38 4.77 4.77 0 00-2.26.2 275.07 275.07 0 00-38.67 16.34 4.62 4.62 0 00-1.69 1.48 244.79 244.79 0 0127.74 5.36z" fill="#4a98f5"/><path d="M182.62 328.23a231.35 231.35 0 0114.88-23.38 4.77 4.77 0 00-2.26.2 275.07 275.07 0 00-38.67 16.34 4.62 4.62 0 00-1.69 1.48 244.79 244.79 0 0127.74 5.36z" fill="#fff" opacity=".2"/><path d="M202 358.88l-30.28 11c-9.79-11.05-5-27.39-14.81-38.44l30.28-11c9.74 11.05 4.98 27.39 14.81 38.44z" fill="#fff"/><path d="M194.84 352l-25.27 9.19c.24.64.5 1.27.79 1.89l25.27-9.18c-.28-.65-.55-1.28-.79-1.9zM183 349.52l-15.21 5.53q.22 1 .48 2l15.21-5.53q-.24-.98-.48-2zm7.76-2.82l-5 1.81q.22 1 .48 2l5-1.81q-.24-.98-.48-2zm1.09-7.15l-25.27 9.19c.12.68.25 1.36.37 2l25.28-9.19c-.13-.64-.23-1.32-.38-2zm-6.92-4.24l-19.68 7.15q.25 1 .48 2l19.68-7.15q-.22-1.01-.48-2zm3.52-8.04l-14.85 5.4c.28.62.54 1.25.79 1.89l14.85-5.4c-.24-.64-.5-1.27-.79-1.89zm-25.27 9.19l7.95-2.89c.28.62.55 1.25.79 1.89l-7.92 2.89c-.28-.64-.54-1.27-.82-1.89z" fill="#4a98f5" opacity=".3"/><path d="M198.86 341.34a249.27 249.27 0 0125.87 13.88 266.65 266.65 0 00-43.84 8.92 242 242 0 0117.97-22.8z" fill="#4a98f5"/><path d="M222.47 354.28a266.47 266.47 0 00-39.9 8.12 3.83 3.83 0 00-2.93 4.64l6.57 20.58a3.83 3.83 0 004.69 2.38 238.7 238.7 0 0135.37-7.2 3.71 3.71 0 003.29-4l-2.49-21.42c-.22-1.98-2.3-3.38-4.6-3.1z" fill="#4a98f5"/><path d="M222.47 354.28a266.47 266.47 0 00-39.9 8.12 3.83 3.83 0 00-2.93 4.64l6.57 20.58a3.83 3.83 0 004.69 2.38 238.7 238.7 0 0135.37-7.2 3.71 3.71 0 003.29-4l-2.49-21.42c-.22-1.98-2.3-3.38-4.6-3.1z" fill="#fff" opacity=".5"/><path d="M226.26 382.84A236 236 0 00190.9 390a3.88 3.88 0 01-2.63-.19 217.21 217.21 0 0116.48-21.16 221.38 221.38 0 0123.85 13 3.86 3.86 0 01-2.34 1.19z" fill="#4a98f5"/><path d="M226.26 382.84A236 236 0 00190.9 390a3.88 3.88 0 01-2.63-.19 217.21 217.21 0 0116.48-21.16 221.38 221.38 0 0123.85 13 3.86 3.86 0 01-2.34 1.19z" fill="#fff" opacity=".7"/><path d="M205.86 373.82a233.15 233.15 0 00-25.18-10.35 4.47 4.47 0 011.89-1.08 269.13 269.13 0 0139.89-8.12 4.67 4.67 0 012.19.25 225.52 225.52 0 00-18.79 19.3z" fill="#4a98f5"/><path d="M205.86 373.82a233.15 233.15 0 00-25.18-10.35 4.47 4.47 0 011.89-1.08 269.13 269.13 0 0139.89-8.12 4.67 4.67 0 012.19.25 225.52 225.52 0 00-18.79 19.3z" fill="#fff" opacity=".2"/><path d="M110.35 319l-.29-.83c2.61-.87 5.28-1.66 7.94-2.35l.23.85c-2.64.69-5.29 1.47-7.88 2.33zm8.47-.21a121.84 121.84 0 00-13.62 4.41 129.11 129.11 0 0120.13 8 115.51 115.51 0 00-6.51-12.41z" fill="#4a98f5"/><path d="M106.36 322.94a128.34 128.34 0 0118.32 7.31 1.83 1.83 0 011 2.46l-5 9.27a1.87 1.87 0 01-2.46.75 114.46 114.46 0 00-16.22-6.47 1.78 1.78 0 01-1.2-2.21q1.56-5 3.13-10a1.94 1.94 0 012.43-1.11z" fill="#4a98f5"/><path d="M106.36 322.94a128.34 128.34 0 0118.32 7.31 1.83 1.83 0 011 2.46l-5 9.27a1.87 1.87 0 01-2.46.75 114.46 114.46 0 00-16.22-6.47 1.78 1.78 0 01-1.2-2.21q1.56-5 3.13-10a1.94 1.94 0 012.43-1.11z" fill="#fff" opacity=".5"/><path d="M102 336.26a114.46 114.46 0 0116.24 6.47 1.88 1.88 0 001.27.14 104 104 0 00-5.94-11.52 108.19 108.19 0 00-12.57 4.14 1.81 1.81 0 001 .77z" fill="#4a98f5"/><path d="M102 336.26a114.46 114.46 0 0116.24 6.47 1.88 1.88 0 001.27.14 104 104 0 00-5.94-11.52 108.19 108.19 0 00-12.57 4.14 1.81 1.81 0 001 .77z" fill="#fff" opacity=".7"/><path d="M112.52 333.7a114.49 114.49 0 0113-2.78 2.17 2.17 0 00-.81-.68 129.83 129.83 0 00-18.31-7.3 2.31 2.31 0 00-1.07-.07 108.39 108.39 0 017.19 10.83z" fill="#4a98f5"/><path d="M112.52 333.7a114.49 114.49 0 0113-2.78 2.17 2.17 0 00-.81-.68 129.83 129.83 0 00-18.31-7.3 2.31 2.31 0 00-1.07-.07 108.39 108.39 0 017.19 10.83z" fill="#fff" opacity=".2"/><path fill="#4a98f5" d="M342 329.97l18.19 13.71-39.73-2.5L342 329.97z"/><path d="M358.42 342.71l-36-2.26c-2-.13-3.87.91-4.06 2.3l-2 15.09c-.19 1.39 1.33 2.64 3.37 2.77l36 2.26c2.05.13 3.87-.91 4.06-2.3l2-15.09c.21-1.39-1.33-2.64-3.37-2.77z" fill="#4a98f5"/><path d="M358.42 342.71l-36-2.26c-2-.13-3.87.91-4.06 2.3l-2 15.09c-.19 1.39 1.33 2.64 3.37 2.77l36 2.26c2.05.13 3.87-.91 4.06-2.3l2-15.09c.21-1.39-1.33-2.64-3.37-2.77z" fill="#fff" opacity=".5"/><path d="M355.7 362.87l-36-2.26a4.48 4.48 0 01-2.35-.79l22-10.29 18.86 12.86a4.91 4.91 0 01-2.51.48z" fill="#4a98f5"/><path d="M355.7 362.87l-36-2.26a4.48 4.48 0 01-2.35-.79l22-10.29 18.86 12.86a4.91 4.91 0 01-2.51.48z" fill="#fff" opacity=".7"/><path d="M338.87 353.19l-18.34-12.51a5.23 5.23 0 011.92-.23l36 2.26a4.7 4.7 0 011.83.47z" fill="#4a98f5"/><path d="M338.87 353.19l-18.34-12.51a5.23 5.23 0 011.92-.23l36 2.26a4.7 4.7 0 011.83.47z" fill="#fff" opacity=".2"/><path d="M190.86 206.72a3.17 3.17 0 002.74-3.55l-6.79-52.54-6.29.81 6.79 52.56a3.18 3.18 0 003.55 2.72z" fill="#4a98f5"/><path fill="#263238" d="M180.52 151.44l6.29-.81.89 6.94-6.23 1.23-.95-7.36z"/><path fill="#fff" d="M108.17 164.43l2.29-.39 2.37-.02 2.31-.53 2.34-.21 2.35-.23 2.34-.26 2.33-.37 2.34-.3 2.35-.24 2.34-.28 2.35-.28 2.33-.29 2.31-.51 2.34-.34 2.32-.38 2.38-.01 2.3-.6 2.35-.22 2.37-.12 2.33-.39 2.34-.24 2.32-.42 2.37-.1 2.32-.46 2.35-.26 2.35-.2 2.31-.54 2.35-.19 2.33-.42 2.34-.26 2.36-.22 2.34-.31 2.32-.43 2.35-.28 2.33-.33 2.35-.29 2.33-.34h2.38l2.33-.44 2.33-.36 2.34-.34 2.36-.11 2.34-.38 2.32-.43 2.33-.4 2.35-.18 2.36-.17 2.34-.29 2.32-.45 2.34-.32 2.36-.21 2.32-.44 2.37-.12 2.35-.24 2.31-.56 2.36-.2 2.36-.19 2.35-.23 2.33-.36 2.36-.24 2.32-.52 2.36-.14 2.34-.39 2.35-.28 2.3-.41-.4-2.97-.4-3.02-.32-3.04-.43-3.02-.24-3.05-.41-3.02-.56-3.01-.3-3.04-.39-3.02-.28-3.04-.42-3.02-.37-3.03-.59-3-.39-3.02-.44-3.03-.28-3.04-.31-3.04-.43-3.02-.35-3.03-.33-3.04-.49-3.02-.49-3.02-.35-3.03-.24-3.05-.61-3-.24-3.06-.33-3.04-.65-3-.3-2.99-2.29.26-2.36.16-2.33.34-2.34.23-2.32.44-2.32.42-2.36.15-2.32.47-2.33.35-2.37.12-2.32.42-2.35.18-2.33.35-2.36.14-2.31.54-2.37.03-2.31.58-2.36.12-2.34.31-2.35.24-2.3.6-2.38-.02-2.33.38-2.34.32-2.31.47-2.34.31-2.35.25-2.37.11-2.34.27-2.3.6-2.38.02-2.34.35-2.32.42-2.35.22-2.34.34-2.34.28-2.36.17-2.34.32-2.3.59-2.35.29-2.34.32-2.34.31-2.37.12-2.34.23-2.32.49-2.33.34-2.33.36-2.38.07-2.33.33-2.36.2-2.34.33-2.32.45-2.36.19-2.32.47-2.35.29-2.37.05-2.3.63-2.37.15-2.34.31-2.36.2-2.32.5-2.37.11-2.34.32-2.34.4-2.31.33.48 2.96.24 3.04.39 3.03.38 3.03.52 3.01.32 3.04.36 3.03.35 3.03.31 3.03.43 3.02.36 3.03.4 3.03.46 3.01.35 3.03.45 3.03.3 3.03.61 3 .29 3.04.31 3.05.43 3.02.55 3.01.33 3.04.28 3.04.41 3.03.38 3.03.35 3.04.54 3.01.36 3.05.39 2.99z"/><path d="M108.17 165a.57.57 0 01-.33-.11.55.55 0 01-.23-.38l-.75-6-.53-3-.74-6.1-.41-3-.61-6.09-.55-3-.43-3-.61-6.11-.6-2.94-.31-3.1-.44-3-.35-3-.46-3-1.2-9.17-1.33-12.17-.51-3-.78-6.05-.24-3.08-.48-2.91a.59.59 0 01.1-.43.57.57 0 01.38-.22l2.31-.33 2.32-.4 2.37-.32 2.41-.12 2.24-.48 2.42-.21 2.32-.31 2.34-.15 2.25-.62h.14l2.37-.05 2.29-.29 2.28-.46 2.42-.2 2.27-.44 2.36-.34 2.39-.2 2.3-.32 2.44-.07 4.6-.7 2.28-.48 2.41-.25 2.39-.11 7-.92 2.23-.58 2.4-.33 2.39-.18L167 67l2.33-.33 2.38-.22L174 66l2.35-.36h2.38l2.24-.58 2.42-.3 2.4-.11 2.32-.24 2.32-.31 2.28-.47 2.38-.32 2.31-.38h2.4l2.23-.59 2.43-.25 2.32-.31 2.36-.12 2.25-.57h2.44l2.25-.53 2.45-.15 2.28-.35 2.4-.19 2.26-.41 2.44-.12 2.27-.35 2.3-.47 2.43-.15 4.57-.85 2.4-.24 2.3-.34 2.4-.17 2.27-.25a.5.5 0 01.41.12.52.52 0 01.21.38l.3 3 .64 2.94.34 3.1.25 3.04.6 2.9.25 3.11.35 3 1 6 .69 6.09.43 3 .59 6.11.44 3 .39 3 .58 3 .8 6.09.29 3.06.38 3 .3 3.06.56 3 .41 3.06.25 3.07.42 3 .32 3.06.8 6a.58.58 0 01-.46.64l-2.3.4-2.38.29-2.31.39-2.43.14-2.23.51-2.42.25-2.3.36-7.11.62-2.23.55-2.42.26-2.4.12-2.25.43-2.41.22-2.31.31-2.29.45-2.38.29-4.74.35-6.93 1.21-2.43.12-4.62.69-2.3.43h-2.49l-6.94 1-2.35.28-2.29.42-2.37.32-4.71.48-2.28.42-2.42.19-2.22.53-2.44.22-2.33.25-2.27.45-2.45.12-2.25.4-2.39.18-2.29.39-2.43.13-2.33.21-2.21.59h-2.52l-2.23.38-2.35.34-2.26.5-7.08.86-2.36.24-2.32.3-2.32.37-4.72.5-2.35.2-2.23.52h-2.5l-2.19.38zM97.49 77.18l.39 2.39.24 3.09.77 6 .52 3 1.34 12.18.43 3 .76 6.06.46 3 .35 3.06.45 3 .3 3.07.6 2.94.61 6.14.43 3 .55 3 .33 3.08.29 3 .78 6 .36 3 .53 3 .68 5.48 1.7-.29h2.4l2.25-.51 7.1-.71 2.31-.37 2.35-.3 7-.8 2.33-.29 2.26-.5 4.69-.73h2.4l2.23-.59 2.44-.23 2.39-.12 2.26-.39 2.38-.25 2.29-.41 2.43-.11 2.24-.45 2.39-.26 2.37-.2 2.23-.54 2.44-.19 2.27-.42 7.06-.8 2.3-.42 2.38-.28 7-1H197l2.27-.42 4.7-.71 2.42-.12 6.91-1.2 4.77-.36 2.31-.28 2.28-.45 2.38-.32 2.38-.21 2.27-.43 2.44-.13 2.32-.24 2.24-.55 7.15-.63 2.3-.36 2.38-.24 2.25-.52 2.46-.14 2.28-.39 2.38-.29 1.72-.3-.72-5.46-.33-3-.42-3-.24-3.08-.41-3-.56-3-.31-3.09-.38-3-.24-2.99-.79-6-.59-3-.83-6.07-.59-6.11-.43-3-.77-6.09-1-6-.36-3.06-.24-3.06-.6-2.94-.26-3.12-.32-3-.64-2.94-.26-2.49-1.72.2-2.3.08-2.28.34-2.37.24-4.6.85-2.43.15-2.24.46-2.36.36-2.42.12-2.25.41-2.41.19-2.29.35-2.41.15-2.21.52h-2.43l-2.24.56h-.11l-2.36.12-2.29.31-2.37.24-2.21.59h-2.54l-2.22.38-2.36.32-2.28.46-2.38.32-2.36.25-2.4.11-2.3.28-2.23.58h-2.51l-2.26.34-2.31.42-2.4.22-2.31.34-2.36.28-2.38.18-2.3.31-2.25.58-7.08.93-2.42.12-2.32.24-2.25.48-4.7.7-2.44.08-2.27.32-2.39.2-2.31.33-2.29.44-2.42.2-2.26.46-2.39.3h-2.36l-2.24.62h-.11l-2.36.16-2.3.3-2.39.2-2.25.49-2.46.13-2.3.31z" fill="#263238"/><path fill="#4a98f5" opacity=".5" d="M240.25 65.449l10.612 70.415-134.007 20.195-10.611-70.415z"/><path fill="#4a98f5" d="M242.539 76.97l-13.298-9.444 2.512-3.538 13.298 9.443zm-118.211 80.028l-14.194-8.033 2.137-3.777 14.195 8.033z"/><path d="M135.31 88.52l12.28-2 .51 3.16-7.69 1.32.38 2.35 7.14-1.15.48 3-7.13 1.15.47 2.92 7.91-1.27.55 3.36-12.51 2zm17.43 12.4l-2.4-14.83 7.66-1.23a11.22 11.22 0 013.3-.16 3.5 3.5 0 012 1.06 4.1 4.1 0 011.08 2.29 4.29 4.29 0 01-.18 2.22A4.19 4.19 0 01163 92a5.58 5.58 0 01-1.51.85 4.62 4.62 0 011.28.35 4.9 4.9 0 01.86.66 6.09 6.09 0 01.79.82l2.91 3.94-5.18.83-3.15-4.18a3.46 3.46 0 00-1-1 1.91 1.91 0 00-1.18-.16l-.4.06 1 6zm3.17-9.56l1.94-.31a8 8 0 001.18-.4 1.28 1.28 0 00.67-.59 1.4 1.4 0 00.15-.9 1.38 1.38 0 00-.64-1 2.79 2.79 0 00-1.77-.11l-2 .33zm12.94 6.96l-2.39-14.83 7.63-1.23a11.29 11.29 0 013.31-.16 3.47 3.47 0 012 1.06 4.25 4.25 0 01-.32 6.19 5.82 5.82 0 01-1.52.85 4.42 4.42 0 011.28.35 4.15 4.15 0 01.86.66 5.51 5.51 0 01.79.82l2.95 3.97-5.18.83-3.18-4.13a3.45 3.45 0 00-1-1 2 2 0 00-1.18-.17l-.4.07 1 6zm3.15-9.56l1.93-.31a8 8 0 001.18-.4 1.25 1.25 0 00.67-.59 1.4 1.4 0 00.15-.9 1.38 1.38 0 00-.63-1 2.76 2.76 0 00-1.78-.11l-2 .32zm10.78-.28a8.16 8.16 0 0112.44-7.85 7.57 7.57 0 012.9 5.24 9.32 9.32 0 01-.18 4.41 6.38 6.38 0 01-2.12 3 8.51 8.51 0 01-4 1.59 9.54 9.54 0 01-4.28-.13 6.35 6.35 0 01-3.07-2.1 8.46 8.46 0 01-1.69-4.16zm4.58-.72a5.07 5.07 0 001.36 3.09 3.2 3.2 0 004.56-.72 5.58 5.58 0 00.25-3.58 4.6 4.6 0 00-1.34-2.92 3 3 0 00-2.45-.6 2.82 2.82 0 00-2.06 1.34 5.06 5.06 0 00-.32 3.39zM201.87 93l-2.4-14.83 7.64-1.23a11.29 11.29 0 013.31-.16 3.44 3.44 0 012 1.06 4.07 4.07 0 011.08 2.29 4.24 4.24 0 01-.18 2.21 4.15 4.15 0 01-1.2 1.66 5.58 5.58 0 01-1.51.85 4.62 4.62 0 011.28.35 4.43 4.43 0 01.86.66 6.09 6.09 0 01.79.82l2.91 3.94-5.17.83-3.19-4.13a3.34 3.34 0 00-1-1 2 2 0 00-1.18-.17l-.4.07 1 6zm3.13-9.57l1.94-.31a8 8 0 001.18-.4 1.28 1.28 0 00.67-.59 1.4 1.4 0 00.15-.9 1.37 1.37 0 00-.64-1 2.72 2.72 0 00-1.77-.11l-2 .32zm-53.44 53.01l-17.8 2.88-1.3-8 14.39-24 8.51-1.37 3.49 21.61 4.41-.71 1.23 7.58-4.42.71 1.06 6.57-8.51 1.29zm-1.23-7.58l-1.78-11.06-7.62 12.58zm46.85 6.96l-29.31 4.73a18.66 18.66 0 011.74-8.66q1.94-4.23 8.13-10.57a28.58 28.58 0 004.71-5.74 5.49 5.49 0 00.69-3.33 3.75 3.75 0 00-1.63-2.56 4.6 4.6 0 00-6 1 7.37 7.37 0 00-.93 4.4l-9.91.79a15.86 15.86 0 011.07-6.78 10 10 0 013.76-4.25 19.89 19.89 0 017.53-2.48 21.93 21.93 0 018.22-.12 9.86 9.86 0 015.09 2.88 9.62 9.62 0 012.52 5.19 11.27 11.27 0 01-.89 6.44q-1.41 3.24-5.81 7.54c-1.75 1.67-2.91 2.84-3.48 3.49s-1.24 1.49-2 2.51l15.26-2.46zm3.33-8.63l9.49-2.79a5.22 5.22 0 001.76 2.66 3.15 3.15 0 002.37.48 4.1 4.1 0 003.28-3q.67-1.9.24-7.65a12.16 12.16 0 01-3.17 3.22 10.33 10.33 0 01-4.13 1.53 10.8 10.8 0 01-8.52-2.07 11.84 11.84 0 01-4.62-8 12.61 12.61 0 01.63-6.64 10.86 10.86 0 013.85-5.09 16.18 16.18 0 017.05-2.65 17.35 17.35 0 018.76.44 13 13 0 016 4.93 24.46 24.46 0 013.59 10.12q1.53 9.52-1.76 14.59T215 133.56a18.66 18.66 0 01-6.77.1 10.44 10.44 0 01-4.49-2.19 13.19 13.19 0 01-3.23-4.28zM216 108.6a6.58 6.58 0 00-2.16-4.24 4.56 4.56 0 00-3.76-1.06 4.13 4.13 0 00-3 2 6.57 6.57 0 00-.58 4.59 6.91 6.91 0 002.06 4.3 4.28 4.28 0 003.57 1 4.47 4.47 0 003.19-2.07 6.28 6.28 0 00.68-4.52z" fill="#fff"/></svg>