<svg xmlns="http://www.w3.org/2000/svg" viewBox="0 0 500 500"><path fill="none" stroke="#ebebeb" stroke-miterlimit="10" stroke-width=".75" d="M443.88 72.03H417.4V60.84h26.48zm14.78-14.11h-26.48V46.73h26.48zM276.48 182.16H250v-11.19h26.48zm14.77-14.11h-26.48v-11.19h26.48zm14.71 14.11h-26.48v-11.19h26.48zM67.82 57.92H41.34V46.73h26.48zM82.6 321.04H56.12v-11.19H82.6zm-14.78-14.11H41.34v-11.19h26.48zm376.06 14.11H417.4v-11.19h26.48z"/><path fill="none" stroke="#ebebeb" stroke-miterlimit="10" d="M208.82 421.54V295.88l26.73-36.49v-68.33"/><path d="M233.18 188.73a2.38 2.38 0 102.37-2.38 2.37 2.37 0 00-2.37 2.38zm-17.47 232.81V300.29l26.73-36.49v-47.74" fill="none" stroke="#ebebeb" stroke-miterlimit="10"/><path d="M240.06 213.72a2.38 2.38 0 102.38-2.37 2.38 2.38 0 00-2.38 2.37zm-37.87 207.82V255.13m-2.38-2.38a2.38 2.38 0 102.38-2.37 2.38 2.38 0 00-2.38 2.37zm-4.01 168.79v-84.58l-18.14-34.22v-61.37" fill="none" stroke="#ebebeb" stroke-miterlimit="10"/><path d="M175.28 239a2.38 2.38 0 102.38-2.38 2.37 2.37 0 00-2.38 2.38zm14.17 182.54v-80.92l-21.39-37.84v-40.41" fill="none" stroke="#ebebeb" stroke-miterlimit="10"/><path d="M165.68 260a2.38 2.38 0 102.38-2.37 2.39 2.39 0 00-2.38 2.37z" fill="none" stroke="#ebebeb" stroke-miterlimit="10"/><path fill="none" stroke="#c7c7c7" stroke-miterlimit="10" d="M110.72 37.56V0"/><path fill="#ebebeb" d="M133.93 59.92l-1.87 4.11H89.38l-1.86-4.11 18.17-12.57h10.07l18.17 12.57z"/><path fill="#dbdbdb" d="M117.02 35.23l-1.26 12.12h-10.07l-1.26-12.12h12.59zm16.91 24.7l-1.87 4.1H89.38l-1.86-4.1h46.41z"/><path fill="none" stroke="#c7c7c7" stroke-miterlimit="10" d="M203.58 37.56V0"/><path fill="#ebebeb" d="M226.78 59.92l-1.87 4.11h-42.68l-1.86-4.11 18.17-12.57h10.07l18.17 12.57z"/><path fill="#dbdbdb" d="M209.87 35.23l-1.26 12.12h-10.07l-1.26-12.12h12.59zm16.91 24.7l-1.87 4.1h-42.68l-1.86-4.1h46.41z"/><path fill="none" stroke="#c7c7c7" stroke-miterlimit="10" d="M296.43 37.56V0"/><path fill="#ebebeb" d="M319.63 59.92l-1.86 4.11h-42.69l-1.86-4.11 18.17-12.57h10.07l18.17 12.57z"/><path fill="#dbdbdb" d="M302.72 35.23l-1.26 12.12h-10.07l-1.26-12.12h12.59zm16.91 24.7l-1.87 4.1h-42.68l-1.86-4.1h46.41z"/><path fill="none" stroke="#c7c7c7" stroke-miterlimit="10" d="M389.28 37.56V0"/><path fill="#ebebeb" d="M412.49 59.92l-1.87 4.11h-42.69l-1.86-4.11 18.18-12.57h10.06l18.18 12.57z"/><path fill="#dbdbdb" d="M395.57 35.23l-1.26 12.12h-10.06l-1.27-12.12h12.59zm16.91 24.7l-1.86 4.1h-42.69l-1.86-4.1h46.41z"/><ellipse cx="183.79" cy="443.41" rx="106.41" ry="16.99" fill="#ebebeb"/><path fill="#37474f" d="M267.37 176.42h65.02v245.17h-65.02z"/><path fill="#455a64" d="M332.39 176.42h119.66v245.17H332.39z"/><path fill="#37474f" d="M341.37 389.79h103.21v23.84H341.37z"/><path fill="#455a64" d="M345.71 393.73h58.75v2.01h-58.75zm0 3.49h58.75v2.01h-58.75zm0 3.49h58.75v2.01h-58.75zm0 3.48h58.75v2.01h-58.75zm0 3.49h58.75v2.01h-58.75z"/><path d="M415.17 395.73a2 2 0 11-2-2 2 2 0 012 2zm6.58 0a2 2 0 11-2-2 2 2 0 012 2zm6.58 0a2 2 0 11-2-2 2 2 0 012 2zm6.57 0a2 2 0 11-2-2 2 2 0 012 2zm6.58 0a2 2 0 11-2-2 2 2 0 012 2zm-26.31 5.98a2 2 0 11-2-2 2 2 0 012 2zm6.58 0a2 2 0 11-2-2 2 2 0 012 2zm6.58 0a2 2 0 11-2-2 2 2 0 012 2zm6.57 0a2 2 0 11-2-2 2 2 0 012 2zm6.58 0a2 2 0 11-2-2 2 2 0 012 2z" fill="#4a98f5"/><circle cx="413.18" cy="407.7" r="2" fill="#4a98f5"/><path d="M421.75 407.7a2 2 0 11-2-2 2 2 0 012 2z" fill="#4a98f5"/><circle cx="426.33" cy="407.7" r="2" fill="#4a98f5"/><path d="M434.9 407.7a2 2 0 11-2-2 2 2 0 012 2zm6.58 0a2 2 0 11-2-2 2 2 0 012 2z" fill="#4a98f5"/><path fill="#263238" d="M407.4 393.73h1.15v15.96h-1.15z"/><path fill="#37474f" d="M341.37 361.07h103.21v23.84H341.37z"/><path fill="#455a64" d="M345.71 365h58.75v2.01h-58.75zm0 3.49h58.75v2.01h-58.75zm0 3.49h58.75v2.01h-58.75zm0 3.49h58.75v2.01h-58.75zm0 3.48h58.75v2.01h-58.75z"/><path d="M415.17 367a2 2 0 11-2-2 2 2 0 012 2zm6.58 0a2 2 0 11-2-2 2 2 0 012 2zm6.58 0a2 2 0 11-2-2 2 2 0 012 2zm6.57 0a2 2 0 11-2-2 2 2 0 012 2zm6.58 0a2 2 0 11-2-2 2 2 0 012 2zm-26.31 6a2 2 0 11-2-2 2 2 0 012 2zm6.58 0a2 2 0 11-2-2 2 2 0 012 2zm6.58 0a2 2 0 11-2-2 2 2 0 012 2zm6.57 0a2 2 0 11-2-2 2 2 0 012 2zm6.58 0a2 2 0 11-2-2 2 2 0 012 2zm-26.31 6a2 2 0 11-2-2 2 2 0 012 2zm6.58 0a2 2 0 11-2-2 2 2 0 012 2zm6.58 0a2 2 0 11-2-2 2 2 0 012 2zm6.57 0a2 2 0 11-2-2 2 2 0 012 2zm6.58 0a2 2 0 11-2-2 2 2 0 012 2z" fill="#4a98f5"/><path fill="#263238" d="M407.4 365h1.15v15.96h-1.15z"/><path fill="#37474f" d="M341.37 332.34h103.21v23.84H341.37z"/><path fill="#455a64" d="M345.71 336.28h58.75v2.01h-58.75zm0 3.48h58.75v2.01h-58.75zm0 3.49h58.75v2.01h-58.75zm0 3.49h58.75v2.01h-58.75zm0 3.49h58.75v2.01h-58.75z"/><circle cx="413.18" cy="338.27" r="2" fill="#4a98f5"/><path d="M421.75 338.27a2 2 0 11-2-2 2 2 0 012 2z" fill="#4a98f5"/><circle cx="426.33" cy="338.27" r="2" fill="#4a98f5"/><path d="M434.9 338.27a2 2 0 11-2-2 2 2 0 012 2zm6.58 0a2 2 0 11-2-2 2 2 0 012 2zm-26.31 5.99a2 2 0 11-2-2 2 2 0 012 2zm6.58 0a2 2 0 11-2-2 2 2 0 012 2zm6.58 0a2 2 0 11-2-2 2 2 0 012 2zm6.57 0a2 2 0 11-2-2 2 2 0 012 2zm6.58 0a2 2 0 11-2-2 2 2 0 012 2zm-26.31 5.98a2 2 0 11-2-2 2 2 0 012 2zm6.58 0a2 2 0 11-2-2 2 2 0 012 2zm6.58 0a2 2 0 11-2-2 2 2 0 012 2zm6.57 0a2 2 0 11-2-2 2 2 0 012 2zm6.58 0a2 2 0 11-2-2 2 2 0 012 2z" fill="#4a98f5"/><path fill="#263238" d="M407.4 336.28h1.15v15.96h-1.15z"/><path fill="#37474f" d="M341.37 303.61h103.21v23.84H341.37z"/><path fill="#455a64" d="M345.71 307.55h58.75v2.01h-58.75zm0 3.48h58.75v2.01h-58.75zm0 3.49h58.75v2.01h-58.75zm0 3.49h58.75v2.01h-58.75zm0 3.49h58.75v2.01h-58.75z"/><path d="M415.17 309.54a2 2 0 11-2-2 2 2 0 012 2zm6.58 0a2 2 0 11-2-2 2 2 0 012 2zm6.58 0a2 2 0 11-2-2 2 2 0 012 2zm6.57 0a2 2 0 11-2-2 2 2 0 012 2zm6.58 0a2 2 0 11-2-2 2 2 0 012 2z" fill="#4a98f5"/><circle cx="413.18" cy="315.53" r="2" fill="#4a98f5"/><path d="M421.75 315.53a2 2 0 11-2-2 2 2 0 012 2z" fill="#4a98f5"/><circle cx="426.33" cy="315.53" r="2" fill="#4a98f5"/><path d="M434.9 315.53a2 2 0 11-2-2 2 2 0 012 2zm6.58 0a2 2 0 11-2-2 2 2 0 012 2z" fill="#4a98f5"/><circle cx="413.18" cy="321.51" r="2" fill="#4a98f5"/><path d="M421.75 321.51a2 2 0 11-2-2 2 2 0 012 2z" fill="#4a98f5"/><circle cx="426.33" cy="321.51" r="2" fill="#4a98f5"/><path d="M434.9 321.51a2 2 0 11-2-2 2 2 0 012 2zm6.58 0a2 2 0 11-2-2 2 2 0 012 2z" fill="#4a98f5"/><path fill="#263238" d="M407.4 307.55h1.15v15.96h-1.15z"/><path fill="#37474f" d="M341.37 274.88h103.21v23.84H341.37z"/><path fill="#455a64" d="M345.71 278.82h58.75v2.01h-58.75zm0 3.49h58.75v2.01h-58.75zm0 3.48h58.75v2.01h-58.75zm0 3.49h58.75v2.01h-58.75zm0 3.49h58.75v2.01h-58.75z"/><circle cx="413.18" cy="280.82" r="2" fill="#4a98f5"/><path d="M421.75 280.82a2 2 0 11-2-2 2 2 0 012 2z" fill="#4a98f5"/><circle cx="426.33" cy="280.82" r="2" fill="#4a98f5"/><path d="M434.9 280.82a2 2 0 11-2-2 2 2 0 012 2zm6.58 0a2 2 0 11-2-2 2 2 0 012 2z" fill="#4a98f5"/><circle cx="413.18" cy="286.8" r="2" fill="#4a98f5"/><path d="M421.75 286.8a2 2 0 11-2-2 2 2 0 012 2z" fill="#4a98f5"/><circle cx="426.33" cy="286.8" r="2" fill="#4a98f5"/><path d="M434.9 286.8a2 2 0 11-2-2 2 2 0 012 2zm6.58 0a2 2 0 11-2-2 2 2 0 012 2zm-26.31 5.99a2 2 0 11-2-2 2 2 0 012 2zm6.58 0a2 2 0 11-2-2 2 2 0 012 2zm6.58 0a2 2 0 11-2-2 2 2 0 012 2zm6.57 0a2 2 0 11-2-2 2 2 0 012 2zm6.58 0a2 2 0 11-2-2 2 2 0 012 2z" fill="#4a98f5"/><path fill="#263238" d="M407.4 278.82h1.15v15.96h-1.15z"/><path fill="#37474f" d="M341.37 246.15h103.21v23.84H341.37z"/><path fill="#455a64" d="M345.71 250.09h58.75v2.01h-58.75zm0 3.49h58.75v2.01h-58.75zm0 3.49h58.75v2.01h-58.75zm0 3.48h58.75v2.01h-58.75zm0 3.49h58.75v2.01h-58.75z"/><path d="M415.17 252.09a2 2 0 11-2-2 2 2 0 012 2zm6.58 0a2 2 0 11-2-2 2 2 0 012 2zm6.58 0a2 2 0 11-2-2 2 2 0 012 2zm6.57 0a2 2 0 11-2-2 2 2 0 012 2zm6.58 0a2 2 0 11-2-2 2 2 0 012 2zm-26.31 5.98a2 2 0 11-2-2 2 2 0 012 2zm6.58 0a2 2 0 11-2-2 2 2 0 012 2zm6.58 0a2 2 0 11-2-2 2 2 0 012 2zm6.57 0a2 2 0 11-2-2 2 2 0 012 2zm6.58 0a2 2 0 11-2-2 2 2 0 012 2zm-26.31 5.99a2 2 0 11-2-2 2 2 0 012 2zm6.58 0a2 2 0 11-2-2 2 2 0 012 2zm6.58 0a2 2 0 11-2-2 2 2 0 012 2zm6.57 0a2 2 0 11-2-2 2 2 0 012 2zm6.58 0a2 2 0 11-2-2 2 2 0 012 2z" fill="#4a98f5"/><path fill="#263238" d="M407.4 250.09h1.15v15.96h-1.15z"/><path fill="#37474f" d="M341.37 217.43h103.21v23.84H341.37z"/><path fill="#455a64" d="M345.71 221.36h58.75v2.01h-58.75zm0 3.49h58.75v2.01h-58.75zm0 3.49h58.75v2.01h-58.75zm0 3.49h58.75v2.01h-58.75zm0 3.48h58.75v2.01h-58.75z"/><path d="M415.17 223.36a2 2 0 11-2-2 2 2 0 012 2zm6.58 0a2 2 0 11-2-2 2 2 0 012 2zm6.58 0a2 2 0 11-2-2 2 2 0 012 2zm6.57 0a2 2 0 11-2-2 2 2 0 012 2zm6.58 0a2 2 0 11-2-2 2 2 0 012 2zm-26.31 5.99a2 2 0 11-2-2 2 2 0 012 2zm6.58 0a2 2 0 11-2-2 2 2 0 012 2zm6.58 0a2 2 0 11-2-2 2 2 0 012 2zm6.57 0a2 2 0 11-2-2 2 2 0 012 2zm6.58 0a2 2 0 11-2-2 2 2 0 012 2zm-26.31 5.98a2 2 0 11-2-2 2 2 0 012 2zm6.58 0a2 2 0 11-2-2 2 2 0 012 2zm6.58 0a2 2 0 11-2-2 2 2 0 012 2zm6.57 0a2 2 0 11-2-2 2 2 0 012 2zm6.58 0a2 2 0 11-2-2 2 2 0 012 2z" fill="#4a98f5"/><path fill="#263238" d="M407.4 221.36h1.15v15.96h-1.15z"/><path fill="#37474f" d="M341.37 188.7h103.21v23.84H341.37z"/><path fill="#455a64" d="M345.71 192.64h58.75v2.01h-58.75zm0 3.48h58.75v2.01h-58.75zm0 3.49h58.75v2.01h-58.75zm0 3.49h58.75v2.01h-58.75zm0 3.49h58.75v2.01h-58.75z"/><path d="M415.17 194.63a2 2 0 11-2-2 2 2 0 012 2zm6.58 0a2 2 0 11-2-2 2 2 0 012 2zm6.58 0a2 2 0 11-2-2 2 2 0 012 2zm6.57 0a2 2 0 11-2-2 2 2 0 012 2zm6.58 0a2 2 0 11-2-2 2 2 0 012 2z" fill="#4a98f5"/><circle cx="413.18" cy="200.62" r="2" fill="#4a98f5"/><path d="M421.75 200.62a2 2 0 11-2-2 2 2 0 012 2z" fill="#4a98f5"/><circle cx="426.33" cy="200.62" r="2" fill="#4a98f5"/><path d="M434.9 200.62a2 2 0 11-2-2 2 2 0 012 2zm6.58 0a2 2 0 11-2-2 2 2 0 012 2zm-26.31 5.98a2 2 0 11-2-2 2 2 0 012 2zm6.58 0a2 2 0 11-2-2 2 2 0 012 2zm6.58 0a2 2 0 11-2-2 2 2 0 012 2zm6.57 0a2 2 0 11-2-2 2 2 0 012 2zm6.58 0a2 2 0 11-2-2 2 2 0 012 2z" fill="#4a98f5"/><path fill="#263238" d="M407.4 192.64h1.15v15.96h-1.15z"/><path fill="#37474f" d="M291.69 168.86h136.05v7.56H291.69z"/><path fill="#263238" d="M277.86 384.07h15.19v15.19h-15.19zM63 226.7v-14.39h2.27v14.39zm7.79-10.13v10.13h-2.27v-14.39h1.78l8.23 10.38v-10.36h2.29v14.37h-1.88zm23.83-2.25h-4.78v12.38h-2.29v-12.38h-4.8v-2h11.87zm11.8 10.38v2h-9.87v-14.39h9.69v2h-7.42v4.09h6.43v1.89h-6.43v4.4zm2.35 2v-14.39H115a4 4 0 011.79.41 4.51 4.51 0 011.41 1.06 5 5 0 01.92 1.5 4.66 4.66 0 01.34 1.72 4.59 4.59 0 01-.21 1.39 4.52 4.52 0 01-.57 1.24 3.79 3.79 0 01-.89 1 3.47 3.47 0 01-1.15.62l3.38 5.47h-2.57l-3.12-5H111v5zm2.27-7h4a1.87 1.87 0 00.88-.21 2.12 2.12 0 00.68-.59 3 3 0 00.4-.9 3.17 3.17 0 00.16-1 2.78 2.78 0 00-.19-1 3.23 3.23 0 00-.5-.85 2.53 2.53 0 00-.73-.58 1.92 1.92 0 00-.87-.21H111zm13.4-3.13v10.13h-2.27v-14.39H124l8.23 10.38v-10.36h2.29v14.37h-1.88zm17.56-4.26h2l5.68 14.39h-2.4l-1.52-3.91h-5.55l-1.5 3.91h-2.41zm3.31 8.8l-2.31-6.18-2.39 6.18zm6.09 5.59v-14.39h2.27v12.39h7.72v2zm24.81-11a3.18 3.18 0 00-.59-.48 5 5 0 00-.9-.47 6.63 6.63 0 00-1.14-.37 5.86 5.86 0 00-1.26-.14 3.39 3.39 0 00-2.12.53 1.74 1.74 0 00-.68 1.46 1.61 1.61 0 00.21.86 1.89 1.89 0 00.66.58 5.21 5.21 0 001.12.45q.66.19 1.56.42a17.39 17.39 0 012 .58 5.64 5.64 0 011.49.79 3.39 3.39 0 01.95 1.15 3.73 3.73 0 01.33 1.65 4.12 4.12 0 01-.41 1.89 3.6 3.6 0 01-1.14 1.28 4.77 4.77 0 01-1.67.73 8.41 8.41 0 01-2.05.24 10.25 10.25 0 01-3.17-.5 9.05 9.05 0 01-2.77-1.45l1-2a3.79 3.79 0 00.76.59 6.5 6.5 0 001.15.6 10.9 10.9 0 001.43.47 6.49 6.49 0 001.6.19 3.87 3.87 0 002.07-.47 1.52 1.52 0 00.73-1.38 1.45 1.45 0 00-.28-.91 2.44 2.44 0 00-.78-.64 7 7 0 00-1.23-.49c-.49-.15-1-.31-1.66-.47a16.84 16.84 0 01-1.88-.6 4.69 4.69 0 01-1.33-.76 3 3 0 01-.8-1 3.51 3.51 0 01-.27-1.45 4.15 4.15 0 01.4-1.87 3.94 3.94 0 011.11-1.38 4.77 4.77 0 011.65-.84 7.24 7.24 0 012.07-.29 7.56 7.56 0 012.69.47 8.74 8.74 0 012.17 1.15zm13.79 9v2h-9.87v-14.39h9.69v2h-7.42v4.09h6.43v1.89h-6.43v4.4zm2.3 2v-14.39h6.27a4 4 0 011.79.41 4.51 4.51 0 011.41 1.06 5 5 0 01.92 1.5A4.47 4.47 0 01203 217a4.59 4.59 0 01-.21 1.39 4.8 4.8 0 01-.56 1.24 3.83 3.83 0 01-.9 1 3.47 3.47 0 01-1.15.62l3.38 5.47H201l-3.12-5h-3.33v5zm2.27-7h4a1.84 1.84 0 00.88-.21 2.12 2.12 0 00.68-.59 2.8 2.8 0 00.44-.86 3.18 3.18 0 00.17-1 2.79 2.79 0 00-.2-1 3 3 0 00-.5-.85 2.53 2.53 0 00-.73-.58 1.91 1.91 0 00-.86-.21h-3.86zm11.7-7.39l4.34 11.54 4.32-11.54h2.41l-5.76 14.39h-2l-5.77-14.39zM229 224.7v2h-9.9v-14.39h9.69v2h-7.42v4.09h6.43v1.89h-6.43v4.4zm2.32 2v-14.39h6.27a4 4 0 011.79.41 4.51 4.51 0 011.41 1.06 5 5 0 01.92 1.5 4.66 4.66 0 01.34 1.72 4.59 4.59 0 01-.21 1.39 4.8 4.8 0 01-.56 1.24 4 4 0 01-.9 1 3.47 3.47 0 01-1.15.62l3.38 5.47H240l-3.12-5h-3.33v5zm2.27-7h4a1.87 1.87 0 00.88-.21 2.12 2.12 0 00.68-.59 3 3 0 00.44-.86 3.17 3.17 0 00.16-1 2.78 2.78 0 00-.19-1 3.23 3.23 0 00-.5-.85 2.53 2.53 0 00-.73-.58 1.92 1.92 0 00-.87-.21h-3.85zm-101.51 26.19v2.92H122v-14.39h9.94v2.92h-6.61v2.79H131v2.7h-5.67v3.06zm2.03 2.92v-14.39h6.48a4.25 4.25 0 011.88.42A5.17 5.17 0 01144 236a5.48 5.48 0 011 1.56 4.57 4.57 0 01.35 1.76 5 5 0 01-.16 1.29 5.1 5.1 0 01-.46 1.16 4.57 4.57 0 01-.74 1 4.27 4.27 0 01-1 .74l3.16 5.35h-3.75l-2.75-4.64h-2.17v4.64zm3.32-7.54h3a1.25 1.25 0 001-.56 2.25 2.25 0 00.43-1.43 2 2 0 00-.49-1.42 1.4 1.4 0 00-1-.52h-2.94zm10.26 7.54v-14.39h6.48a4.25 4.25 0 011.88.42 5.17 5.17 0 011.49 1.12 5.27 5.27 0 011 1.56 4.58 4.58 0 01.36 1.76 5 5 0 01-.17 1.29 5.1 5.1 0 01-.46 1.16 4.57 4.57 0 01-.74 1 4.27 4.27 0 01-1 .74l3.17 5.35h-3.75l-2.76-4.64H151v4.64zm3.32-7.54h3a1.25 1.25 0 001-.56 2.25 2.25 0 00.43-1.43 2 2 0 00-.49-1.42 1.4 1.4 0 00-1.05-.52H151zm16.56 7.66a6.68 6.68 0 01-2.92-.63 7.21 7.21 0 01-2.25-1.65 7.61 7.61 0 01-1.45-2.34 7.46 7.46 0 01-.51-2.72 7.13 7.13 0 01.53-2.73 7.31 7.31 0 013.78-3.93 7 7 0 012.88-.59 6.82 6.82 0 012.92.62 7.11 7.11 0 012.25 1.67 7.55 7.55 0 011.44 2.35 7.36 7.36 0 01.51 2.67 7.16 7.16 0 01-.54 2.74 7.5 7.5 0 01-1.49 2.32 7.26 7.26 0 01-2.27 1.61 6.73 6.73 0 01-2.88.61zm-3.75-7.3a5.53 5.53 0 00.24 1.62 4.53 4.53 0 00.72 1.38 3.66 3.66 0 001.19 1 3.51 3.51 0 001.62.36 3.4 3.4 0 002.84-1.39 4.49 4.49 0 00.7-1.4 5.71 5.71 0 00.23-1.59 5.46 5.46 0 00-.24-1.61 4.15 4.15 0 00-.73-1.38 3.68 3.68 0 00-1.19-.95 3.87 3.87 0 00-3.26 0 3.75 3.75 0 00-1.18 1 4.46 4.46 0 00-.71 1.39 5.71 5.71 0 00-.23 1.57zm12.85 7.18v-14.39h6.49a4.2 4.2 0 011.87.42 5 5 0 011.49 1.12 5.3 5.3 0 011 1.56 4.76 4.76 0 01.35 1.76 5 5 0 01-.16 1.29 5.13 5.13 0 01-.47 1.16 4.27 4.27 0 01-.74 1 4.43 4.43 0 01-1 .74l3.16 5.35h-3.75l-2.76-4.64H180v4.64zm3.33-7.54h3a1.25 1.25 0 001-.56 2.32 2.32 0 00.43-1.43 2.06 2.06 0 00-.49-1.42 1.44 1.44 0 00-1.05-.52H180z"/><path d="M82.72 113.28v22.21a15.05 15.05 0 016.54-5.12 13.72 13.72 0 015.22-.91q10.26 0 15.15 7.18 4.22 6.2 4.22 17.51v22.29q0 11.48-7.27 18.83a23.45 23.45 0 01-17.5 7.1 22 22 0 01-17-7.43 24.71 24.71 0 01-6.52-17.34v-2.48L80.49 174l.33 3.55q.59 6.19 5 8.26a6.21 6.21 0 002.81.66q9.57 0 9.57-10v-25.38a9.63 9.63 0 00-3.32-7.51 6.35 6.35 0 00-4.4-1.4 6.72 6.72 0 00-6.14 3.22 11.45 11.45 0 00-1.66 5.94v2.81H67.12V97.59h45.66v15.69zm93.71 64.32a24.76 24.76 0 01-42.23 17.46 23.78 23.78 0 01-7.2-17.46v-56.48a24.75 24.75 0 0142.27-17.5 24 24 0 017.18 17.5zm-16.18-56.81a9 9 0 00-9-9 8.55 8.55 0 00-6.32 2.64 8.77 8.77 0 00-2.6 6.36v56.56a8.75 8.75 0 002.6 6.36 8.55 8.55 0 006.32 2.64 9 9 0 009-9zm79.1 56.81a24.73 24.73 0 01-49.46 0v-56.48a24.76 24.76 0 0142.28-17.5 24 24 0 017.18 17.5zm-16.19-56.81a9 9 0 00-9-9 8.53 8.53 0 00-6.32 2.64 8.73 8.73 0 00-2.6 6.36v56.56a8.71 8.71 0 002.6 6.36 8.53 8.53 0 006.32 2.64 9 9 0 009-9z" fill="#4a98f5"/><path fill="#37474f" d="M43.46 353.74h26.56v26.56H43.46z"/><circle cx="56.74" cy="367.01" r="8.87" fill="#455a64"/><path fill="#263238" d="M53.12 363.43h2v7.32h-2zm5.56 0h2v7.32h-2zm-21.83 58.16l53.29-.24 53.29-.09 106.57-.17 106.57.17 53.29.09 53.29.24-53.29.25-53.29.09-106.57.16-106.57-.17-53.29-.09-53.29-.24z"/><path d="M128.08 396.52c1 2.12-2.84 17.31-4 20.43s-5.39 20.53-7.43 21.28-11.93.54-13.33 0 0-3.51 1.61-4.55 3.54-2.63 3.54-2.63-2.89-26.89-2.35-29.9 19.36-10.32 21.96-4.63z" fill="#4a98f5"/><path d="M128.08 396.52c1 2.12-2.84 17.31-4 20.43s-5.39 20.53-7.43 21.28-11.93.54-13.33 0 0-3.51 1.61-4.55 3.54-2.63 3.54-2.63-2.89-26.89-2.35-29.9 19.36-10.32 21.96-4.63z" opacity=".1"/><path d="M107.4 437.06a3.9 3.9 0 01.65-1.49 5.6 5.6 0 011.13-1.15 3.68 3.68 0 011.42-.69.07.07 0 01.07.12c-.18.16-.38.3-.55.47s-.36.35-.52.53a6.07 6.07 0 00-.85 1.16c-.25.41-.48.83-.7 1.27s-.33.91-.5 1.37a.1.1 0 01-.2 0 3.67 3.67 0 01.05-1.59zm-2.89-1.58a5 5 0 012.41-2.11c.07 0 .14.05.08.1a8.13 8.13 0 00-1.92 2.17 3.66 3.66 0 00-.38 2.85s0 .06-.07 0a2.92 2.92 0 01-.12-3.01zm2.43-19.48l13.59 12.86c1.5-4.93 2.9-10.29 3.51-11.88 1.2-3.12 5-18.31 4-20.43-2.61-5.69-21.48 1.62-22 4.63-.21 1.39.29 8.09.9 14.82z" opacity=".1"/><path d="M179.41 411.72c.55.52 5.9-4.54 6.72-6.91s-2.6-9.06-2-10.2 3.55-2.05 5.06-.3 5.38 11.34 4.58 15.44-9.03 13.25-9.9 13.25-4.46-11.28-4.46-11.28z" fill="#4a98f5"/><path d="M179.41 411.72s3.61 11.2 4.46 11.25c.63 0 5.21-4.86 7.95-9.09l-7.49-6.31c-1.89 2.23-4.54 4.51-4.92 4.15z" opacity=".1"/><path d="M149.19 365.46h-44.4s-3.3 29.24-2.94 33.11 19.87 32.54 25.92 36.24 40.83 3.88 49.29 2c6.58-1.45 12.07-9.85 9.34-22.78-1.19-5.66-16.61-19.14-18.76-21.72s-18.45-26.85-18.45-26.85z" fill="#c7c7c7"/><path d="M101.85 398.57c.36 3.87 19.87 32.54 25.93 36.24s40.82 3.88 49.29 2c6.57-1.45 12.07-9.85 9.33-22.79-1.19-5.65-16.6-19.13-18.75-21.71-1.32-1.58-7.94-11.3-12.88-18.6-3.13-4.62-5.58-8.27-5.58-8.27h-44.4s-.83 7.34-1.61 15.15-1.51 16.05-1.33 17.98z" fill="#4a98f5"/><path d="M103.18 380.61c23.86 7.36 45.08-3.11 51.59-6.88-3.13-4.62-5.58-8.27-5.58-8.27h-44.4s-.79 7.34-1.61 15.15z" opacity=".1"/><path d="M177.91 412.64s-12.22-7.67-20.79-6.29-11.6 19-7.49 28.89c0 0-7.82 2.32-7.82 6.1 0 2.15 4.47 2.84 10.91 2.68s19.26-.28 19.54-1.9a7.68 7.68 0 00-.84-3.85s11.57-1.3 13.84-9-5.42-15.34-7.35-16.63z" fill="#4a98f5"/><path d="M161.22 436.11a31.06 31.06 0 0010.29 2.28c.07 0 .09.12 0 .13a16.82 16.82 0 01-10.33-2.33c-.04-.02-.01-.11.04-.08zm-14.38 7.96a6 6 0 012.66-3.44 9.23 9.23 0 012.26-1.14c.92-.31 1.86-.48 2.79-.77.07 0 .13.09 0 .12a15 15 0 00-2.3 1.06 22.45 22.45 0 00-2.17 1.28 13.51 13.51 0 00-3 3c-.03.13-.28.06-.24-.11zm1.58-6.07a.06.06 0 010 .12 9.84 9.84 0 00-5.26 5.22c0 .1-.22.1-.2 0a6.27 6.27 0 015.46-5.34zm-3.81-.55v.05a25.61 25.61 0 014.81-2.21c.2.35.41.7.64 1 0 .07.15 0 .11-.06a22.3 22.3 0 01-2.14-9.88 48.93 48.93 0 01.32-5.41 26.51 26.51 0 012.9-9 10.84 10.84 0 013.77-4.34 10.46 10.46 0 015.65-1 26 26 0 015.9 1.09 45.74 45.74 0 015.72 2 31.69 31.69 0 00-11.56-3.87 10.58 10.58 0 00-6.16 1 11.77 11.77 0 00-4.2 4.64 27.93 27.93 0 00-3.07 11.88v3.3a18.69 18.69 0 002.11 8.53 9.08 9.08 0 00-4.8 2.28z" opacity=".1"/><path d="M142.43 400.29c1 2.11-2.84 17.3-4 20.42S133 441.24 131 442s-11.93.54-13.33 0 0-3.51 1.61-4.55 3.53-2.63 3.53-2.63-2.88-26.89-2.35-29.9 19.37-10.33 21.97-4.63z" fill="#4a98f5"/><path d="M135.77 429.15c.91-2.74 2.1-5.4 3-8.13 0-.11.21-.06.17.05-.7 2.2-1.23 4.46-1.89 6.68.1-.15.19-.31.28-.46a10.87 10.87 0 001.57-2.77.09.09 0 01.18.05 6.42 6.42 0 01-.59 1.34c-.26.49-.53 1-.8 1.47s-.71 1.26-1.1 1.87v.13a78.59 78.59 0 01-3 8.13.13.13 0 01-.24-.07 85.77 85.77 0 012.42-8.29zm-15.72-19.95c0-.05.11-.07.12 0 .29 2 .41 4.1.62 6.15s.47 4.25.7 6.38c.47 4.23 1.18 8.45 1.52 12.69 0 .18-.31.2-.36 0A77.9 77.9 0 01120.6 422c-.22-2.08-.35-4.16-.45-6.24a59.07 59.07 0 01-.1-6.56zm1.22 31.41a3.73 3.73 0 01.64-1.49 5.4 5.4 0 011.14-1.15 3.55 3.55 0 011.42-.69.07.07 0 01.06.12c-.18.17-.38.3-.55.47l-.52.53a6.91 6.91 0 00-.85 1.16c-.24.41-.48.83-.69 1.27s-.34.91-.51 1.37a.1.1 0 01-.19 0 3.52 3.52 0 01.05-1.59zm-2.9-1.61a5 5 0 012.42-2.11c.06 0 .13.05.07.1a7.92 7.92 0 00-1.91 2.17 3.57 3.57 0 00-.38 2.85s0 .06-.07 0a2.92 2.92 0 01-.13-3.01z" opacity=".1"/><path d="M121.78 324.81c.48-1.76-3.9-8-5.57-10.05s-10.86-5.22-13.8-3.61c-1.15.63-3.29 5.05-6.18 8.88-4.48 5.94-9.7 12.17-7.8 13.84 4.6 4.07 15.11-2.35 18.52-4.5s6.52-4.78 7.35-4.69c1.1.12 3.4 1.86 4.33 2a3.23 3.23 0 003.15-1.87z" fill="#4a98f5"/><path d="M121.78 324.81c.48-1.76-3.9-8-5.57-10.05s-10.86-5.22-13.8-3.61c-1.15.63-3.29 5.05-6.18 8.88-4.48 5.94-9.7 12.17-7.8 13.84 4.6 4.07 15.11-2.35 18.52-4.5s6.52-4.78 7.35-4.69c1.1.12 3.4 1.86 4.33 2a3.23 3.23 0 003.15-1.87z" opacity=".1"/><path d="M143 318.59c10.73 6.42 15.49 23.48 15.78 26.21.24 2.22 5.35 10.1 4.44 18.57-.59 5.44-10.37 12.67-18.33 12.6-1.46 0-13.85 4.48-24.32 3.76s-18.39-8.15-18.7-8.78-8.87-1.85-9.37-10.6c-.85-14 13.4-37.76 17.47-41 6.75-5.35 25.69-5.12 33.03-.76z" fill="#4a98f5"/><path d="M137.9 326c-.2-1.9 5.37-7.61 7.45-9.5s12.14-3.61 14.92-1.45c1.09.85 2.58 5.78 4.94 10.24 3.65 6.91 8 14.24 5.8 15.66-5.46 3.46-15.3-4.94-18.48-7.75s-6-6-6.85-6.08c-1.16-.06-3.84 1.36-4.81 1.31a3.41 3.41 0 01-2.97-2.43z" fill="#4a98f5"/><path d="M137.9 326c-.2-1.9 5.37-7.61 7.45-9.5s12.14-3.61 14.92-1.45c1.09.85 2.58 5.78 4.94 10.24 3.65 6.91 8 14.24 5.8 15.66-5.46 3.46-15.3-4.94-18.48-7.75s-6-6-6.85-6.08c-1.16-.06-3.84 1.36-4.81 1.31a3.41 3.41 0 01-2.97-2.43zm-19.6 23.93c6.58.06 9.58 7.11 10.37 8.94s4.86 6 5 10.43-8.23 9.3-17 7.75-13.4-6.49-13.35-10.95c0-3.59 3.42-6.7 3.8-7.64s5.19-8.59 11.18-8.53zm16.18 12.38a15.06 15.06 0 012.21 3.31 14 14 0 011.29 3.82 6.9 6.9 0 01-.43 4.1 4.83 4.83 0 01-1.28 1.65 5.75 5.75 0 01-1.79.92 5.67 5.67 0 002.35-2.87 7.45 7.45 0 00.16-3.64 20.22 20.22 0 00-1-3.67c-.47-1.21-.99-2.42-1.51-3.62zm-30.15-2.63c-.57.71-1.11 1.4-1.61 2.1a13 13 0 00-1.27 2.18 7 7 0 00-.58 2.36 7.36 7.36 0 00.47 2.51 4.41 4.41 0 01-1.25-2.46 5.51 5.51 0 01.45-2.81 8.3 8.3 0 013.79-3.88z" opacity=".1"/><path d="M207.14 453.86c-10.77 0-22.66-.19-34.61-.41-6.16-.11-11-.2-14.06-.2-15.53 0-20-20-24.32-39.26-.6-2.69-1.2-5.38-1.83-8-1.24-5.17-2.25-10.38-3.24-15.43-3-15.61-5.67-29.08-12.55-29.82-9.09-1-17.18 12.62-20.13 33.83l-2-.27c3.11-22.36 12.08-36.66 22.32-35.55 8.35.89 11.11 15 14.3 31.43 1 5 2 10.22 3.22 15.34.64 2.65 1.24 5.36 1.85 8.06 4.34 19.38 8.44 37.69 22.36 37.69 3.05 0 7.93.09 14.1.2 13.52.26 32 .6 47.7.29 25.42-.5 28.43-2.5 28.74-3.11 0-4.16-26.84-9.16-36.94-11.05s-10.6-2-10.49-3.23 1.35-1.13 3.25-1.13h41.94c13.15 0 17.39-18.92 19.93-30.23a42.34 42.34 0 011.93-7.13c2.94-6.12 10.38-5.23 10.69-5.19l-.26 2c-.26 0-6.32-.74-8.63 4.07a44 44 0 00-1.78 6.7c-2.67 11.89-7.12 31.79-21.88 31.79h-36.4l2.09.39c24.42 4.56 38.56 8.17 38.56 13.1a1.94 1.94 0 01-.65 1.42c-2.97 2.89-20.64 3.7-43.21 3.7z" fill="#263238"/><path fill="#455a64" d="M89.493 392.367l12.258.735-.44 7.357-12.259-.735z"/><path fill="#37474f" d="M91.928 390.177l7.646.458-.14 2.336-7.646-.458z"/><path fill="#4a98f5" d="M91.67 399.889l1.447.086-.337 5.61-1.447-.087zm5.55.321l1.437.086-.336 5.61-1.438-.086z"/><path fill="#455a64" d="M283.05 397.81v-12.28h5.37v12.28z"/><path fill="#37474f" d="M278.72 395.5v-7.66h4.34v7.66z"/><path d="M110 360.6s2.61 3 3.62 2.38 3.54-6.58 3.54-6.58.61 7.56 2.56 7.77 5.29-2.78 5.29-2.78l-7.89-5.47z" fill="#4a98f5"/><path d="M110 360.6s2.61 3 3.62 2.38 3.54-6.58 3.54-6.58.61 7.56 2.56 7.77 5.29-2.78 5.29-2.78l-7.89-5.47zm38.65-9.39a18.76 18.76 0 00.8-7.54 13.36 13.36 0 00-.91-3.83 9.38 9.38 0 00-1-1.79 8.76 8.76 0 00-1.34-1.58 7.2 7.2 0 00-.81-.65c-.29-.2-.59-.36-.88-.54l-.45-.25-.47-.19a8.56 8.56 0 00-1-.36 10.59 10.59 0 00-4-.38 13.75 13.75 0 00-7.08 2.79 20 20 0 017.13-1.31 10.52 10.52 0 013.37.6c.27.08.52.23.78.33l.38.17.36.23c.23.15.48.28.71.44a6 6 0 01.63.52 8.14 8.14 0 011.94 2.69 14.77 14.77 0 011.09 3.33 35.93 35.93 0 01.75 7.32zm-48.78-5.11a28.54 28.54 0 011-6.15 9.2 9.2 0 013-4.76 6.73 6.73 0 011.18-.69 4.66 4.66 0 011.27-.35 10.83 10.83 0 012.89.06 40.09 40.09 0 016.06 1.57 15.32 15.32 0 00-2.69-1.82c-.48-.25-1-.48-1.48-.7a16.12 16.12 0 00-1.57-.54 9.22 9.22 0 00-3.42-.38 5.58 5.58 0 00-1.8.44 7.54 7.54 0 00-1.56.9 7.93 7.93 0 00-2.26 2.71 10.63 10.63 0 00-1 3.23 14.87 14.87 0 00.38 6.48z" opacity=".1"/><path d="M132.36 348.07c0-.11.26.15.25.28-.24 3 0 6.5 3 7.63.09 0 .07.19 0 .17-3.67-.63-4-5.26-3.25-8.08z" fill="#263238"/><path d="M135.46 345.05c5.34-.14 5.33 9.61.38 9.74s-4.84-9.63-.38-9.74zm-23.73.65c0-.11-.27.12-.28.25-.18 3-1 6.43-4 7.14-.09 0-.1.17 0 .17 3.67-.12 4.64-4.66 4.28-7.56z" fill="#263238"/><path d="M109.09 342.28c-5.26-.88-6.62 8.78-1.74 9.59s6.16-8.87 1.74-9.59zm7.82 13.84c1 .31 7.54-1.77 7-3.77-.55-2.16-9.81-2.67-11-1.27s3.01 4.72 4 5.04z" fill="#263238"/><path d="M125.13 361.29a22.13 22.13 0 01-3.35 2.09 4.46 4.46 0 01-1.82.52c-.38.07-.7-.44-.92-.93a14.25 14.25 0 01-.83-3.19c-.2-1.09-.31-2.21-.43-3.3l-.31-3-.91 2.95c-.28.91-.61 1.82-.94 2.73a20.82 20.82 0 01-1.18 2.64 3.85 3.85 0 01-.39.6 1.77 1.77 0 01-.46.48.83.83 0 01-.55.06 3.15 3.15 0 01-.72-.3 10.27 10.27 0 01-2.37-2.13 7.52 7.52 0 002 2.46 2.86 2.86 0 00.87.46 2.71 2.71 0 00.59.08 1.4 1.4 0 00.64-.15 2.72 2.72 0 00.74-.6 5.94 5.94 0 00.5-.65 16.62 16.62 0 001.43-2.69c.4-.91.74-1.83 1-2.76l-1.23-.09a29.65 29.65 0 00.46 3.37 16.5 16.5 0 00.42 1.68 8.7 8.7 0 00.67 1.67 3.5 3.5 0 00.59.82 1.71 1.71 0 00.53.37 1.31 1.31 0 00.41.12 1.51 1.51 0 00.37 0 4.89 4.89 0 002.16-.77 13.91 13.91 0 003.03-2.54zm-50.23 34.6a47.15 47.15 0 0111.86.81 47.23 47.23 0 01-11.86-.81zm28.79 6.33a42.64 42.64 0 015.47 2.34 41.43 41.43 0 015.13 3 47.1 47.1 0 01-10.6-5.35zM81.25 416a46.89 46.89 0 017.14-9.5 41.37 41.37 0 01-3.27 5 41.53 41.53 0 01-3.87 4.5zM70 384.07c1.55.49 3.06 1.05 4.56 1.63s3 1.2 4.48 1.83 3 1.28 4.41 2 2.92 1.39 4.34 2.17c-1.55-.5-3.06-1.06-4.56-1.64s-3-1.2-4.48-1.83-3-1.28-4.41-2-2.91-1.39-4.34-2.16zm35.13 8.86a26.48 26.48 0 014.34-1.72 25.63 25.63 0 014.55-1 28.44 28.44 0 01-8.89 2.73zm-14.38-5.06c-.82-1.3-1.56-2.63-2.29-4s-1.43-2.7-2.12-4.07-1.35-2.74-2-4.14-1.25-2.79-1.79-4.23c.82 1.3 1.57 2.64 2.3 4s1.43 2.7 2.12 4.06 1.34 2.74 2 4.14 1.24 2.8 1.78 4.24zM111 419.5c-.89-1-1.72-2.09-2.53-3.16s-1.59-2.18-2.37-3.28-1.51-2.23-2.22-3.38-1.42-2.3-2.06-3.49c.89 1 1.72 2.09 2.53 3.16s1.6 2.18 2.37 3.28 1.51 2.23 2.22 3.38 1.42 2.29 2.06 3.49z" fill="#263238"/><path fill="#a6a6a6" d="M379.94 168.86h-82.66l-6.4-56.14h82.66l6.4 56.14z"/><path fill="#fff" d="M375.44 165.1h-74.51l-5.54-48.61h74.51l5.54 48.61z"/><path fill="#4a98f5" d="M329.42 142.06l-1.19 1.42-11.72-10.12 1.19-1.42 11.72 10.12z"/><path fill="#4a98f5" d="M326.4 131.94l1.64 1.42-8.51 10.12-1.64-1.42 8.51-10.12zm28.08 10.12l-1.19 1.42-11.72-10.12 1.19-1.42 11.72 10.12z"/><path fill="#4a98f5" d="M351.46 131.94l1.64 1.42-8.51 10.12-1.64-1.42 8.51-10.12zm-36.45 19.85l-.32-2h45.43l.32 2h-45.43z"/><path fill="#a6a6a6" d="M297.86 165.1H404.2v3.77H297.86z"/><path fill="#c7c7c7" d="M320.96 165.1h92.22v3.77h-92.22z"/><path fill="#263238" d="M370.17 118.85l-.27-2.36h-74.51l.27 2.36h74.51z"/><path d="M301.66 117.67a.63.63 0 00.59.58.48.48 0 00.46-.58.63.63 0 00-.59-.59.49.49 0 00-.46.59z" fill="#c7c7c7"/><path d="M299.5 117.67a.64.64 0 00.6.58.49.49 0 00.46-.58.64.64 0 00-.59-.59.5.5 0 00-.47.59z" fill="#fff"/><path d="M297.35 117.67a.63.63 0 00.59.58.48.48 0 00.46-.58.63.63 0 00-.59-.59.49.49 0 00-.46.59z" fill="#4a98f5"/></svg>