<svg xmlns="http://www.w3.org/2000/svg" viewBox="0 0 750 500"><path fill="#e0e0e0" d="M569.997 279.371l89.047.762-.762 89.047-89.047-.762z"/><path d="M659 290.73s-14.28 9.74-32 21.65-32 21.52-32.09 21.48 14.28-9.74 32-21.66 32.02-21.52 32.09-21.47zm-.85 20.52c0 .05-14.28 9.74-32 21.65s-32.05 21.52-32.09 21.48 14.28-9.74 32-21.65 32.06-21.53 32.09-21.48zm.47 19.82c0 .05-12.38 8.46-27.71 18.79s-27.8 18.66-27.83 18.61 12.37-8.46 27.71-18.79 27.8-18.68 27.83-18.61zm-18.52-51.13s-10.15 7-22.74 15.43-22.82 15.32-22.85 15.27 10.14-7 22.74-15.44 22.82-15.31 22.85-15.26zm18.1 72.42s-5.17 3.8-11.61 8.37-11.7 8.26-11.74 8.21 5.17-3.79 11.62-8.38 11.7-8.25 11.73-8.2z" fill="#ebebeb"/><path fill="#ebebeb" d="M506.534 278.829l89.047.761-.762 89.047-89.047-.762z"/><path fill="#e0e0e0" d="M177.14 452.62l-77.04.15.66-77.84 77.03.65-.65 77.04z"/><path d="M177.2 385.7s-12.35 8.42-27.65 18.73-27.72 18.62-27.75 18.57 12.35-8.43 27.65-18.73 27.73-18.61 27.75-18.57zm-.7 17.75s-12.35 8.43-27.65 18.73-27.73 18.62-27.75 18.58 12.35-8.43 27.65-18.73 27.73-18.62 27.75-18.58zm.41 17.15s-10.71 7.32-24 16.25S128.89 453 128.86 453s10.71-7.32 24-16.25 24.02-16.19 24.05-16.15zm-16.02-44.24s-8.78 6-19.67 13.36-19.75 13.24-19.77 13.2 8.77-6 19.67-13.35 19.74-13.25 19.77-13.21zM176.55 439s-4.47 3.29-10.05 7.25-10.12 7.14-10.15 7.1 4.47-3.29 10.05-7.25 10.12-7.1 10.15-7.1z" fill="#ebebeb"/><path fill="#f5f5f5" d="M45.335 375.371l77.028.659-.66 77.027-77.026-.659z"/><path fill="#e0e0e0" d="M189.6 61.38v73.39H84.2L80.4 61.9l109.2-.52z"/><path fill="#fff" d="M80.4 134.62V61.9h105.41v72.72z"/><path d="M186.31 135.12H79.9V61.4h106.41zm-105.41-1h104.41V62.4H80.9z" fill="#e0e0e0"/><path fill="#fff" d="M91.82 70.93h82.57v54.65H91.82z"/><path d="M174.39 70.93h-6.1l-17 .06-59.44.12.23-.24v54.65l-.26-.26 82.57.05-.21.21c0-16.63.09-30.27.11-39.76 0-4.75 0-8.46.05-11v-3.89 3.85c0 2.53 0 6.22.05 11 0 9.53.06 23.21.11 39.89v.21H91.45V70.67h.24l59.59.12 17 .06h5.63z" fill="#e0e0e0"/><path d="M80.4 61.69a9.25 9.25 0 011.81 1.17c1.08.78 2.55 1.89 4.13 3.16s3 2.47 4 3.37a8.79 8.79 0 011.51 1.54A72.67 72.67 0 0186 66.42a56.83 56.83 0 01-5.6-4.73zm105.41.21a52.76 52.76 0 01-5.55 4.72 51.6 51.6 0 01-5.87 4.31 50.22 50.22 0 015.55-4.72 48.78 48.78 0 015.87-4.31z" fill="#e0e0e0"/><path d="M185.72 134.63L174 125.1" fill="#fff"/><path d="M174 125.1a54.92 54.92 0 016 4.56 54.3 54.3 0 015.71 5 56 56 0 01-6-4.56 55.59 55.59 0 01-5.71-5zm-93.6 9.52a49 49 0 015.49-4.68 51.18 51.18 0 015.81-4.26 50.93 50.93 0 01-5.49 4.67 50.59 50.59 0 01-5.81 4.27zm28.18-28.36v-18.3h51.96v18.3zm452.58-46.8h105.06v152.27H561.16z" fill="#e0e0e0"/><path fill="#f5f5f5" d="M555.89 59.46h105.06v152.27H555.89z"/><path fill="#fff" d="M568.94 75.96h78.95v119.29h-78.95z"/><path d="M647.9 195.25v-8.82c0-5.72 0-14.05-.07-24.58 0-21-.07-50.82-.13-85.89l.27.26h-78.95l.29-.28c0 45 0 86.49-.06 119.29l-.23-.23 57.47.12 15.88.06h5.61-21.35l-57.61.12h-.22v-.22c0-32.8 0-74.29-.06-119.29v-.29h79.47v.5c-.06 35.14-.1 65-.13 86.07 0 10.5-.06 18.81-.07 24.51v8.15c0 .38-.11.52-.11.52z" fill="#e0e0e0"/><path d="M661.24 59.46a18.29 18.29 0 01-1.87 2.73c-1.22 1.63-3 3.85-4.93 6.25s-3.82 4.52-5.19 6a18.5 18.5 0 01-2.31 2.36 19.7 19.7 0 012-2.62l5.06-6.11 5-6.14a21.49 21.49 0 012.24-2.47z" fill="#e0e0e0"/><path d="M648.3 194.86a97.29 97.29 0 0013.77 17.22" fill="#fff"/><path d="M662.07 212.08a15.25 15.25 0 01-2.4-2.18 77.23 77.23 0 01-5.2-5.86 76.25 76.25 0 01-4.57-6.36 15.6 15.6 0 01-1.6-2.82 21.54 21.54 0 011.93 2.6c1.16 1.62 2.79 3.85 4.69 6.22s3.71 4.46 5 5.94a22.27 22.27 0 012.15 2.46z" fill="#e0e0e0"/><path d="M555.88 211.62l13.76-17" fill="#fff"/><path d="M569.64 194.64a105.76 105.76 0 01-6.66 8.67 105.29 105.29 0 01-7.1 8.31 103.1 103.1 0 016.66-8.67 105.29 105.29 0 017.1-8.31zM555.89 59.46a94.13 94.13 0 016.68 8 92.16 92.16 0 016.23 8.34 96.69 96.69 0 01-6.68-8 95.23 95.23 0 01-6.23-8.34zm40.97 40.72h26.44v75.06h-26.44zM472.23 36.85h57.27v83.01h-57.27z" fill="#e0e0e0"/><path fill="#f5f5f5" d="M469.36 36.85h57.27v83.01h-57.27z"/><path fill="#fff" d="M476.47 45.84h43.04v65.03h-43.04z"/><path d="M519.52 110.87v-18.2c0-11.47 0-27.71-.07-46.83l.15.14h-43l.16-.15v65l-.13-.12 31.33.06h10.93-10.88l-31.41.07h-.12V45.55h43.3v.14c0 19.16 0 35.43-.07 46.92v17.81z" fill="#e0e0e0"/><path d="M526.79 36.85a9.29 9.29 0 01-1 1.48c-.66.89-1.61 2.1-2.69 3.41s-2.1 2.47-2.85 3.26a10 10 0 01-1.25 1.32 10.64 10.64 0 011.1-1.43c.76-.94 1.71-2.08 2.75-3.35l2.76-3.35a11.09 11.09 0 011.18-1.34z" fill="#e0e0e0"/><path d="M519.74 110.66a53 53 0 007.5 9.39" fill="#fff"/><path d="M527.24 120.05a8.07 8.07 0 01-1.31-1.19 42 42 0 01-2.83-3.19c-1-1.31-1.9-2.55-2.49-3.47a7.77 7.77 0 01-.87-1.54 14 14 0 011 1.42c.63.88 1.52 2.1 2.56 3.39s2 2.43 2.74 3.24a10.7 10.7 0 011.2 1.34z" fill="#e0e0e0"/><path d="M469.35 119.8l7.5-9.26" fill="#fff"/><path d="M476.85 110.54a57.94 57.94 0 01-3.63 4.73 58.44 58.44 0 01-3.87 4.53 56 56 0 013.63-4.73 58.72 58.72 0 013.87-4.53zm-7.49-73.69A48.58 48.58 0 01473 41.2a54 54 0 013.4 4.55 51.58 51.58 0 01-3.64-4.36 49.9 49.9 0 01-3.4-4.54zm22.33 22.19h14.41v40.92h-14.41z" fill="#e0e0e0"/><path d="M720.16 452.5c0 .14-154.54.26-345.14.26s-345.18-.12-345.18-.26 154.51-.26 345.18-.26 345.14.11 345.14.26z" fill="#263238"/><path fill="#4a98f5" d="M646.2 452.51l-84.27.03.72-84.26 84.26.72-.71 83.51z"/><path d="M646.82 379.06s-13.51 9.22-30.24 20.49-30.33 20.36-30.36 20.31 13.5-9.22 30.24-20.49 30.33-20.37 30.36-20.31zm-.77 19.41s-13.51 9.23-30.24 20.53-30.33 20.37-30.36 20.32 13.51-9.22 30.24-20.49 30.31-20.4 30.36-20.36zm.45 18.76s-11.71 8-26.22 17.78-26.3 17.66-26.34 17.61 11.71-8 26.22-17.78 26.3-17.66 26.34-17.61zM629 368.85s-9.6 6.59-21.52 14.61-21.62 14.54-21.65 14.44 9.6-6.59 21.52-14.62 21.59-14.48 21.65-14.43zm17.1 68.52c0 .05-4.89 3.6-11 7.93s-11.1 7.81-11.1 7.77 4.88-3.6 11-7.94 11.07-7.81 11.1-7.76z" fill="#fff" opacity=".4"/><path fill="#4a98f5" d="M502.583 367.792l84.257.72-.72 84.257-84.257-.72z"/><path fill="#fff" opacity=".2" d="M502.583 367.792l84.257.72-.72 84.257-84.257-.72z"/><path fill="#263238" d="M645.919 368.908l82.917.709-.714 83.427-82.917-.71z"/><path fill="#455a64" d="M669.01 452.62l-82.92-.12.71-84.13 82.92.71-.71 83.54z"/><path d="M728.73 379.48s-13.29 9.08-29.76 20.17-29.85 20-29.88 20 13.29-9.08 29.76-20.17 29.85-20.05 29.88-20zm-.73 19.11c0 .05-13.29 9.08-29.76 20.16s-29.84 20.05-29.88 20 13.3-9.08 29.77-20.17 29.81-20.04 29.87-19.99zm.41 18.46c0 .05-11.52 7.88-25.8 17.5s-25.88 17.37-25.92 17.32 11.52-7.88 25.8-17.5 25.89-17.37 25.92-17.32zm-17.24-47.62c0 .05-9.45 6.49-21.17 14.38s-21.26 14.26-21.29 14.19 9.45-6.48 21.17-14.38 21.26-14.24 21.29-14.19zM728 436.87c0 .05-4.81 3.54-10.81 7.8s-10.9 7.69-10.93 7.64 4.81-3.54 10.81-7.8 10.93-7.69 10.93-7.64z" fill="#455a64"/><path d="M238.75 197.85V287h76.66a44.56 44.56 0 1189.11 0h76v-89.15z" fill="#4a98f5"/><path d="M238.75 197.85V287h76.66a44.56 44.56 0 1189.11 0h76v-89.15z" opacity=".4"/><path d="M183.61 197.85V287h76.66a44.56 44.56 0 1189.11 0h76v-89.15zm296.95 4.8s-12.21 8.5-27.34 18.87-27.41 18.75-27.45 18.7 12.21-8.49 27.34-18.87 27.41-18.75 27.45-18.7zm.44 17.02c0 .05-12.21 8.49-27.33 18.87s-27.42 18.75-27.45 18.7 12.2-8.5 27.33-18.87S481 219.62 481 219.67zm-.54 17.66s-12.2 8.49-27.33 18.87-27.42 18.74-27.45 18.7 12.2-8.5 27.32-18.9 27.43-18.72 27.46-18.67zm-.46 17.05c0 .05-10.58 7.38-23.7 16.37S432.55 287 432.51 287s10.58-7.38 23.7-16.38S480 254.33 480 254.38zm-22.08-56.53l-.32.24-.93.67-3.46 2.41-11.44 7.88-11.48 7.84-3.49 2.35-1 .63a3.33 3.33 0 01-.34.21 3.34 3.34 0 01.32-.24l.93-.67 3.45-2.4 11.45-7.89 11.52-7.88 3.49-2.35 1-.63z" fill="#4a98f5"/><path d="M326.07 247.64s-12.78 8.88-28.61 19.74S268.77 287 268.73 287s12.78-8.89 28.61-19.75 28.66-19.66 28.73-19.61zm-7.3 22.36l-.24.19-.71.51-2.64 1.85-8.74 6-8.77 6-2.67 1.77-.73.48-.27.2.24-.19.71-.51 2.64-1.85 8.74-6 8.77-6 2.67-1.79.73-.48zm-15.34-27.17s-8.87 6.21-19.88 13.77-20 13.64-20 13.59 8.87-6.21 19.89-13.76 19.96-13.64 19.99-13.6zm177.38 29.86c0 .05-4.41 3.32-9.92 7.3s-10 7.19-10.05 7.14 4.41-3.32 9.92-7.3 10.01-7.19 10.05-7.14z" fill="#4a98f5"/><path fill="#263238" d="M416.49 286.96h76.61v76.61h-76.61z"/><path fill="#455a64" d="M361.9 286.96h76.61v76.61H361.9z"/><path d="M493.1 296.1s-12.21 8.5-27.33 18.87-27.42 18.75-27.45 18.7 12.2-8.49 27.33-18.87 27.42-18.75 27.45-18.7zm-.55 17.66c0 .05-12.2 8.5-27.33 18.87s-27.42 18.75-27.45 18.7 12.2-8.49 27.33-18.87 27.42-18.75 27.45-18.7zm.55 17.05c0 .05-10.58 7.38-23.69 16.38s-23.78 16.25-23.81 16.2S456.17 356 469.29 347s23.78-16.24 23.81-16.19zM476.8 287s-8.67 6.07-19.44 13.46-19.53 13.33-19.56 13.28 8.67-6.07 19.44-13.46 19.53-13.37 19.56-13.28zm16.1 62.12c0 .05-4.41 3.32-9.92 7.31s-10 7.18-10.05 7.13 4.41-3.31 9.92-7.3 10.01-7.18 10.05-7.14z" fill="#455a64"/><path fill="#263238" d="M247.61 286.96h76.61v76.61h-76.61z"/><path fill="#455a64" d="M193.01 286.96h76.61v76.61h-76.61z"/><path d="M324.22 296.1S312 304.6 296.88 315s-27.41 18.75-27.45 18.7 12.21-8.49 27.34-18.87 27.41-18.78 27.45-18.73zm-.55 17.66c0 .05-12.21 8.5-27.33 18.87s-27.42 18.75-27.45 18.7 12.2-8.49 27.33-18.87 27.42-18.75 27.45-18.7zm.55 17.05c0 .05-10.58 7.38-23.7 16.38s-23.78 16.25-23.81 16.2 10.58-7.39 23.7-16.39 23.77-16.24 23.81-16.19zM307.91 287s-8.67 6.07-19.44 13.46-19.47 13.29-19.56 13.24 8.67-6.07 19.45-13.46 19.52-13.33 19.55-13.24zM324 349.12c0 .05-4.41 3.32-9.92 7.31s-10 7.18-10 7.13 4.41-3.31 9.92-7.3 10-7.18 10-7.14z" fill="#455a64"/><path fill="#4a98f5" d="M425.42 363.56h54.05v89.11h-54.05z"/><path opacity=".4" d="M425.42 363.56h54.05v89.11h-54.05z"/><path fill="#4a98f5" d="M183.61 363.56h241.81v89.11H183.61zM479 368.65s-11.89 8.45-26.61 18.77-26.7 18.64-26.73 18.59 11.87-8.44 26.61-18.77S479 368.6 479 368.65zm.47 16.92c0 .05-11.88 8.45-26.61 18.77s-26.7 18.65-26.73 18.6 11.88-8.45 26.61-18.77 26.7-18.64 26.73-18.6zm-.53 17.57s-11.89 8.45-26.61 18.77-26.7 18.64-26.73 18.59 11.88-8.44 26.61-18.77 26.69-18.64 26.73-18.59zm-.44 16.96s-10.29 7.34-23.06 16.28-23.16 16.17-23.19 16.12 10.29-7.34 23.07-16.29 23.15-16.16 23.18-16.11z"/><path d="M457 363.87l-.3.24-.91.66-3.37 2.4-11.16 7.83-11.18 7.8-3.4 2.34-.93.63a3.47 3.47 0 01-.33.2l.31-.24.91-.66 3.36-2.39 11.14-7.85 11.18-7.79 3.4-2.34.93-.63zm22.27 74.44c0 .05-4.29 3.3-9.66 7.26s-9.74 7.15-9.78 7.1 4.29-3.3 9.66-7.26 9.75-7.15 9.78-7.1zM233.73 197.93l272.98-.4L370.02 62.12l-61.34.09-74.95 135.72z" fill="#4a98f5"/><path fill="#4a98f5" d="M172.39 198.02l272.98-.4L308.68 62.21 172.39 198.02z"/><path d="M450.32 141.67l-.36.26-1 .74-3.84 2.69-12.74 8.8-12.77 8.75-3.88 2.63-1.07.71c-.24.16-.37.23-.37.23a4.09 4.09 0 01.35-.27l1-.74 3.85-2.68 12.73-8.8 12.78-8.75 3.89-2.63 1.06-.71a4 4 0 01.37-.23zm13.04 13.2l-.35.27-1 .74-3.85 2.68-12.74 8.8-12.77 8.75-3.88 2.63-1.06.71-.38.24.35-.27 1-.74 3.85-2.69 12.74-8.8 12.73-8.75 3.88-2.63 1.06-.71zM476 167.54l-.35.27-1 .74-3.85 2.69c-3.33 2.3-7.8 5.38-12.73 8.8l-12.78 8.74-3.88 2.64-1.06.7-.38.24.35-.27 1-.74 3.85-2.69 12.74-8.8 12.77-8.74 3.88-2.64 1.06-.7zm13.68 13.12s-.08.07-.23.19l-.7.5-2.58 1.82-8.55 5.92L469 195l-2.61 1.76-.72.47-.26.15.24-.19.69-.5 2.58-1.81 8.55-5.93c3.31-2.25 6.29-4.3 8.59-5.87l2.62-1.76c.26-.17.5-.32.71-.47zM437 128.46l-.36.27-1 .74-3.84 2.69L419 141l-12.77 8.75c-1.59 1.08-2.9 2-3.88 2.64l-1.07.7-.37.24a4.09 4.09 0 01.35-.27l1-.74 3.85-2.69 12.73-8.8 12.84-8.83 3.89-2.63 1.06-.7zm-13.3-13.2l-.36.27-1 .74-3.89 2.73-12.73 8.8-12.72 8.7-3.88 2.63-1.07.71c-.24.16-.37.23-.37.23a4.09 4.09 0 01.35-.27l1-.74 3.85-2.68 12.73-8.8 12.77-8.75 3.89-2.63 1.06-.71a4 4 0 01.37-.23zm-13.31-13.21s-.12.1-.36.27l-1 .74-3.85 2.69-12.73 8.8-12.77 8.75-3.88 2.63-1.07.7-.37.24a4.09 4.09 0 01.35-.27l1-.74 3.85-2.69 12.73-8.8 12.77-8.74L409 103l1.06-.7zm-13.31-13.2l-.36.27-1 .74-3.85 2.68-12.73 8.8-12.77 8.75-3.88 2.63-1.07.71c-.24.16-.37.23-.37.23l.35-.26 1-.74 3.85-2.69 12.73-8.8 12.77-8.75 3.89-2.63 1.06-.71a4 4 0 01.38-.23zm-13.31-13.2l-.36.26-1 .74-3.85 2.69-12.73 8.8L353 96.89l-3.88 2.63-1.07.71a4 4 0 01-.38.23l.36-.27 1-.74 3.85-2.68L365.67 88l12.77-8.75 3.89-2.63 1.06-.71a4 4 0 01.38-.26zm-13.31-13.21l-.36.27-1 .74-3.85 2.69-12.73 8.79-12.77 8.75c-1.59 1.08-2.9 2-3.88 2.64l-1.07.7-.38.24s.12-.1.36-.27l1-.74 3.85-2.69 12.73-8.8L365.13 66l3.87-2.62 1.06-.7zm-32.78.19s-3.66 2.64-8.24 5.8-8.33 5.67-8.37 5.62 3.66-2.64 8.25-5.8 8.33-5.67 8.36-5.62z" opacity=".4" fill="#fff"/><path fill="#fff" opacity=".2" d="M172.39 198.02l272.98-.4L308.68 62.21 172.39 198.02z"/><path d="M553.82 448l-.2-8.59-16.11.26.16 12.58 1 .05c4.45.17 22.63.57 25.58-.38 3.3-1.04-10.43-3.92-10.43-3.92z" fill="#4a98f5"/><path d="M560.53 449.66s4.82 1.3 4.23 2.1-19 1.09-27.09.51v-.36l21.45-.15s.47-2.05 1.41-2.1z" fill="#fff" opacity=".4"/><path d="M537.43 451.9a1.07 1.07 0 00.28 0h.8l2.93.08c2.47.05 5.89.07 9.66 0s7.2-.18 9.67-.3l2.92-.17.8-.06h.27-1.07l-2.93.11c-2.47.09-5.88.19-9.66.25s-7.19.05-9.66 0h-4.01z" fill="#263238"/><path d="M559.14 452a6.28 6.28 0 01.52-1.41 7.2 7.2 0 011-1.14 2.24 2.24 0 00-1.14 1 2.17 2.17 0 00-.38 1.55zm-4.79-2.33s.27-.25.5-.63a1.78 1.78 0 00.33-.72s-.27.25-.5.62-.38.7-.33.73zM553 449s.29-.13.57-.39.46-.49.42-.53-.28.14-.56.39-.43.53-.43.53zm-.81-1.51c0 .06.37.1.84.1a2 2 0 00.84-.1c0-.06-.38-.1-.84-.1a1.92 1.92 0 00-.84.1zm-.3-1.06a1.7 1.7 0 00.94.25 1.57 1.57 0 001-.14 4.48 4.48 0 00-.95-.05 4.39 4.39 0 00-.99-.06z" fill="#263238"/><path d="M554.87 448.26a3.12 3.12 0 001 0A5.54 5.54 0 00557 448a2.54 2.54 0 00.62-.27.52.52 0 00.25-.32.4.4 0 00-.16-.41 1.89 1.89 0 00-2.34.59 1.78 1.78 0 00-.32.69.67.67 0 000 .28 3.46 3.46 0 01.46-.89 1.86 1.86 0 01.88-.58 1.55 1.55 0 011.23.06c.17.12.11.31-.08.43a2.66 2.66 0 01-.57.25 7.68 7.68 0 01-1.06.3c-.64.09-1.04.09-1.04.13z" fill="#263238"/><path d="M555.14 448.3a1 1 0 00.11-.72 1.87 1.87 0 00-.29-.75 1 1 0 00-.87-.51.41.41 0 00-.32.48 1.2 1.2 0 00.19.46 3 3 0 00.5.62 1.54 1.54 0 00.59.41s-.2-.18-.49-.51a3.11 3.11 0 01-.45-.61c-.14-.22-.25-.61 0-.66s.53.22.69.43a1.58 1.58 0 01.3.67 3 3 0 01.04.69zm-17.45-.81s.46-.05 1.19 0a5.06 5.06 0 014.28 3.29c.25.69.28 1.15.32 1.15a.84.84 0 000-.33 4.27 4.27 0 00-.18-.86 5 5 0 00-1.67-2.38 4.94 4.94 0 00-2.72-1 3.85 3.85 0 00-.89 0 1.09 1.09 0 00-.33.13z" fill="#263238"/><path d="M539.26 440.76a25.44 25.44 0 00-.09 3.31 27.24 27.24 0 00.11 3.31 54.83 54.83 0 000-6.62zm6.25 9.69a9.26 9.26 0 002.35.19 8.93 8.93 0 002.35-.22c0-.06-1.05 0-2.35 0s-2.35-.03-2.35.03zm-3.16.04s.09.22.2.46.17.46.23.45.08-.25 0-.53-.4-.42-.43-.38zm-1.21-1.49s.07.2.24.37.33.27.37.23-.07-.2-.24-.37-.33-.23-.37-.23zm-1.72-.62c0 .06.23.05.47.13s.41.2.45.17-.1-.26-.39-.36-.54.01-.53.06zm-1.21-.3c0 .05.07.13.21.18s.26.05.27 0-.07-.13-.2-.18-.26-.08-.28 0z" fill="#263238"/><path d="M537.71 447.06l16.08-.52-.05-1.94-16.17 1.44.14 1.02z" opacity=".3"/><path d="M568.78 446.24l2.73-8.16-15.24-5.21-4.12 11.88.92.39c4.13 1.67 21.1 8.21 24.2 8.32 3.46.13-8.49-7.22-8.49-7.22z" fill="#4a98f5"/><path d="M574.54 450.05s4.09 2.87 3.27 3.42-18.22-5.41-25.66-8.72l.14-.33 20.23 7.13s1.12-1.76 2.02-1.5z" fill="#fff" opacity=".4"/><path d="M552.05 444.33l.26.12.73.3 2.73 1.07c2.31.89 5.52 2.07 9.09 3.3s6.83 2.27 9.19 3l2.81.83.77.21.27.07a1.4 1.4 0 00-.26-.1l-.76-.25-2.78-.88c-2.36-.76-5.61-1.82-9.18-3.05s-6.78-2.38-9.1-3.24l-2.75-1-.75-.27a1 1 0 00-.27-.11z" fill="#263238"/><path d="M572.44 451.79a6.48 6.48 0 011-1.15 6.82 6.82 0 011.3-.73 2.57 2.57 0 00-2.27 1.88zm-3.72-3.79s.34-.15.68-.42.6-.53.56-.58-.34.15-.68.42-.59.5-.56.58zm-1.01-1.11c0 .05.32 0 .66-.17s.61-.31.59-.36-.32 0-.66.18-.61.3-.59.35zm-.28-1.7c0 .05.32.21.76.37a1.8 1.8 0 00.82.19c0-.05-.32-.22-.76-.37a1.85 1.85 0 00-.82-.19zm.08-1.11s.29.35.79.56a1.62 1.62 0 001 .19 6 6 0 00-.88-.37 5.14 5.14 0 00-.91-.38z" fill="#263238"/><path d="M569.7 446.81a2.82 2.82 0 001 .33 5.75 5.75 0 001.12.13 2.69 2.69 0 00.68 0 .54.54 0 00.35-.22.41.41 0 000-.44 1.9 1.9 0 00-2.4-.24 1.7 1.7 0 00-.54.54.63.63 0 00-.12.26 3.13 3.13 0 01.73-.68 1.92 1.92 0 011-.26 1.64 1.64 0 011.14.48c.11.17 0 .33-.22.38a3.33 3.33 0 01-.63 0 7.08 7.08 0 01-1.1-.08c-.63-.1-1-.23-1.01-.2z" fill="#263238"/><path d="M569.93 447s.24-.18.35-.64a1.72 1.72 0 000-.81 1.06 1.06 0 00-.65-.78.41.41 0 00-.45.35 1 1 0 000 .5 3.12 3.12 0 00.26.75 1.63 1.63 0 00.43.59s-.14-.25-.3-.65a3.77 3.77 0 01-.21-.73c-.06-.25 0-.65.23-.61s.42.39.5.63a1.58 1.58 0 01.06.73 3.59 3.59 0 01-.22.67zm-16.14-6.73s.45.11 1.12.42a5.1 5.1 0 012.9 4.55c0 .74-.12 1.18-.09 1.19a.86.86 0 00.11-.31 4.13 4.13 0 00.11-.87 4.87 4.87 0 00-3-4.68 4.12 4.12 0 00-.84-.27.92.92 0 00-.31-.03zm3.76-5.8a28.63 28.63 0 00-1.21 3.08 30.83 30.83 0 00-1 3.15 28.63 28.63 0 001.21-3.08 29.13 29.13 0 001-3.15zm2.59 11.23a9.49 9.49 0 002.15 1 9.13 9.13 0 002.29.59c0-.06-1-.34-2.22-.77s-2.19-.87-2.22-.82z" fill="#263238"/><path d="M557.16 444.67v.5c0 .26 0 .49.06.5s.16-.21.13-.52-.15-.51-.19-.48zm-.65-1.79s0 .22.1.43.23.37.27.35 0-.22-.09-.43-.23-.37-.28-.35zm-1.39-1.19c0 .06.2.12.39.28s.32.33.37.31 0-.28-.25-.46-.51-.18-.51-.13zm-1.04-.69s0 .15.13.24.23.13.27.09 0-.15-.14-.24-.23-.09-.26-.09z" fill="#263238"/><path d="M553.95 439.87l15.31 4.96.61-1.84-15.71-4.13-.21 1.01z" opacity=".3"/><path d="M580.26 287.07l-19 .82-29.07-.82 3.32 159.33 23.42-.78v-4.88l12.37 3.2s23.31-47.87 28.33-68.27c4.23-17.02-19.37-88.6-19.37-88.6zM558.89 416.4c-.39-36.77 1.25-99.31 1.79-107 0 0 14.34 55.06 14.47 59.4.09 2.68-9.98 28.1-16.26 47.6z" fill="#263238"/><path d="M558.78 406a10.58 10.58 0 01.09 1.54c0 1.07 0 2.49.08 4.22.06 3.55.09 8.47.11 13.9s0 10.34 0 13.9c0 1.72 0 3.14-.06 4.21a10 10 0 01-.08 1.54 10.58 10.58 0 01-.09-1.54c0-1.07 0-2.49-.09-4.22-.05-3.55-.09-8.47-.1-13.9s0-10.34 0-13.89c0-1.73 0-3.15.06-4.22a10 10 0 01.08-1.54zM547.5 289.23a2.3 2.3 0 010 .82 9.92 9.92 0 01-.46 2.2 10.69 10.69 0 01-11.67 7.27 9.32 9.32 0 01-2.18-.55 2.49 2.49 0 01-.73-.36 24.42 24.42 0 002.94.6 10.84 10.84 0 0011.34-7.07 22.58 22.58 0 00.76-2.91zm15.29.24a3.17 3.17 0 01.09.83c0 .54.06 1.32.09 2.28 0 1.92.09 4.58.11 7.52v4.14a6 6 0 01-.77 3.34 2.88 2.88 0 01-1.93 1.28c-.57.06-.85-.1-.84-.12a4.06 4.06 0 00.81-.06 2.75 2.75 0 001.65-1.28 6 6 0 00.63-3.17v-11.65c0-1 0-1.74.05-2.27a3.21 3.21 0 01.11-.84zm19.21 9.92a1.88 1.88 0 01-.64 0 10.29 10.29 0 01-1.74-.28 14.34 14.34 0 01-5.22-2.48 14.06 14.06 0 01-3.83-4.33 9.2 9.2 0 01-.75-1.6c-.14-.39-.2-.61-.17-.62s.41.82 1.19 2.05a15.87 15.87 0 008.87 6.68c1.39.41 2.29.5 2.29.58zm-23.43-8.33c0 .07-.54.16-.85.87a1.43 1.43 0 000 1.21 1.3 1.3 0 002.3-.38 1.43 1.43 0 00-.37-1.15c-.51-.57-1.08-.47-1.07-.55s.11-.1.36-.09a1.5 1.5 0 01.95.41 1.71 1.71 0 01.56 1.45 1.71 1.71 0 01-3.12.5 1.72 1.72 0 01.08-1.55 1.5 1.5 0 01.76-.69c.26-.09.4-.09.4-.03z" fill="#455a64"/><path d="M531 291.78c-.68-6 .27-28.83.27-28.83-.85-10.87-4.5-22.7-5.14-30.6-2.19-26.72 18.8-25.94 18.8-25.94l6.79-.77c7 5.06 14.28 8.42 15.47 15.85L582 289.23z" fill="#455a64"/><path d="M534.93 208.05a13.61 13.61 0 002.93.34l7.07.45c2.76.17 5.25.35 7.06.52a20 20 0 002.93.19 11.26 11.26 0 00-2.88-.63c-1.8-.28-4.3-.53-7.07-.7s-5.28-.24-7.1-.27a15 15 0 00-2.94.1z" fill="#263238"/><path d="M533.32 235.58l29.92 22.79-3.22-16.15-26.7-6.64z" opacity=".2"/><path d="M580.89 284.13c0 .15-11.25.66-25.13 1.15s-25.15.77-25.16.63 11.25-.66 25.14-1.15 25.14-.76 25.15-.63zm-.55-2.52c0 .15-11.14.66-24.9 1.14s-24.91.77-24.92.62 11.14-.65 24.9-1.14 24.91-.76 24.92-.62z" fill="#fafafa"/><path d="M548.9 168a9.64 9.64 0 001.63-7.24 7.9 7.9 0 00-4.55-5.73 6.71 6.71 0 00-7.09 1.25c-1.6 1.55-2.4 4-4.46 4.88-1.91.8-4.49 0-5.92 1.5-.81.85-.9 2.17-1.58 3.14-.86 1.24-2.47 1.67-3.71 2.54a6.09 6.09 0 00-2.5 5.56c.26 2.27 1.76 4.16 3.09 6s2.57 4 2.2 6.28" fill="#263238"/><path d="M535.68 210.07L522.93 176l.82-1.13c5.54-7.62 8-11.76 17.31-10.64a12.71 12.71 0 019.55 8c1.86 4.91 4.24 11.38 5.37 15.43 2 7.19-4.81 10.42-4.81 10.42l2.83 11.5z" fill="#ffbe9d"/><path d="M549.57 177.19a1.08 1.08 0 111.45-.5 1.09 1.09 0 01-1.45.5z" fill="#263238"/><path d="M551 174.85c-.08.16-.94-.18-1.93.11s-1.55 1-1.7.91 0-.3.22-.63a2.53 2.53 0 012.89-.81c.35.15.52.35.52.42zM540.16 179a1.08 1.08 0 11-1.34.76 1.09 1.09 0 011.34-.76z" fill="#263238"/><path d="M540.78 178.64c-.07.16-.94-.18-1.93.11s-1.55 1-1.7.91 0-.29.22-.62a2.55 2.55 0 011.31-.89 2.59 2.59 0 011.59.07c.38.16.55.35.51.42zM547 186a5.36 5.36 0 011.5-.8c.25-.11.44-.23.41-.37a1.49 1.49 0 00-.4-.69c-.45-.57-.9-1.16-1.37-1.77a28.7 28.7 0 01-3.25-4.78 28.68 28.68 0 013.71 4.41l1.33 1.81a1.7 1.7 0 01.46 1 .7.7 0 01-.33.54 1.38 1.38 0 01-.42.19 4.82 4.82 0 01-1.64.46z" fill="#263238"/><path d="M551.17 198a18 18 0 01-10.17 0s3.62 4.55 10.58 1.8z" fill="#eb996e"/><path d="M547 173.94a1.46 1.46 0 001.61.08c.59-.25 1.09-.7 1.06-1.22s-.86-.89-1.79-.5-1.26 1.27-.88 1.64zm-9.95 3.45c.44.29 1.11.07 1.78-.16s1.3-.55 1.43-1.06c0-.25-.12-.53-.52-.7a2.26 2.26 0 00-2.76 1.05c-.18.39-.13.71.07.87zm5.81 9.76c-.15.06.42 1.21 1.81 1.75s2.57.11 2.51-.05-1.11 0-2.29-.53-1.89-1.32-2.03-1.17z" fill="#263238"/><path d="M548.9 168c-1.85 2.12-5.87 2.81-8.62 2.21-1.94-.43-3.94-1.58-5.79-.86s-2.34 2.22-2.39 4.07a3.84 3.84 0 01-4 3.58c1.09 3.48 2.22 6 1.92 9.51-.06.63-.77 1.27-1.13 1.78a1.42 1.42 0 01-1.63.59 2.17 2.17 0 01-1-1.49c-1-3.47-2.61-7.07-3.64-10.54a7.48 7.48 0 01.09-3.87 7.89 7.89 0 012.63-3.68 37.34 37.34 0 017.05-5.69 12.63 12.63 0 018.72-1.7c3 .63 6.71 2.29 7.16 5.29" fill="#263238"/><path d="M527.89 184.19c-.14 0-5.41.34-3.71 5.2 1.48 4.2 5.9 2.05 5.87 1.91s-2.16-7.11-2.16-7.11z" fill="#ffbe9d"/><path d="M527.9 189.71s-.06.07-.17.16a.79.79 0 01-.55.16c-.49-.05-1-.67-1.27-1.43a2.49 2.49 0 01-.06-1.11.9.9 0 01.41-.71.4.4 0 01.49.09c.09.11.08.2.1.2s.08-.09 0-.26a.47.47 0 00-.24-.22.58.58 0 00-.43 0 1.11 1.11 0 00-.61.86 2.67 2.67 0 000 1.25c.25.84.89 1.53 1.55 1.55a.82.82 0 00.64-.28c.16-.15.16-.25.14-.26z" fill="#eb996e"/><path d="M670.23 220.86l4.12-.41c2.4-.45 5.86-1.53 7.7-3 1-.81 1.62-1.54 1.42-2.31a1.54 1.54 0 00-1.77-1.14s2.47-.61 1.68-2.35c-.54-1.17-2.41-.56-2.41-.56s3.08-1.46 2.68-2.87a1.35 1.35 0 00-1.25-1.05c1.54-1.16 1.42-2 .88-2.62-.68-.81-2-.6-3-.22l-3.37 1.3c-2.09.81-3.61 2.08-1.72-1.35s2-6.79 1.45-7.72a1.22 1.22 0 00-2.19.75 14.18 14.18 0 01-1.21 3.76 9.19 9.19 0 01-1.73 2.65c-.85.91-1.61 1.64-2.27 2.25l-3.35 3.87z" fill="#ffbe9d"/><path fill="#4a98f5" d="M637.418 262.356l-69.08 12.689-12.689-69.08 69.08-12.689z"/><path opacity=".4" d="M637.418 262.356l-69.08 12.689-12.689-69.08 69.08-12.689z"/><path d="M554.94 212.87c0-.05 12.53 5.5 27.93 12.39s27.88 12.52 27.86 12.58-12.53-5.5-27.94-12.39-27.88-12.52-27.85-12.58zm3.41 15.9c0-.05 12.53 5.49 27.94 12.38s27.87 12.53 27.85 12.58-12.53-5.49-27.94-12.39-27.87-12.52-27.85-12.57zm2.32 15.52S571.54 249 584.9 255s24.17 10.87 24.15 10.92-10.87-4.75-24.24-10.73-24.17-10.84-24.14-10.9zm7.51-42.39c0-.05 8.94 3.89 19.91 8.8s19.84 8.92 19.81 9-8.93-3.89-19.9-8.79-19.84-8.91-19.82-9.01zm-4.3 58.94c0-.06 4.62 2.09 10.27 4.79s10.2 4.93 10.18 5-4.62-2.09-10.27-4.79-10.21-4.95-10.18-5zm123.148-7.508l-69.08 12.688-12.689-69.08 69.08-12.688z" fill="#4a98f5"/><path d="M680.58 204.31l-4.16 1.69a4.17 4.17 0 00-1.43.79 1.44 1.44 0 00-.46 1.48 1.47 1.47 0 001.32.85 4.3 4.3 0 001.61-.34l4.52-1.57" fill="#ffbe9d"/><path d="M679.9 207.83l-4.44 1.75a4.47 4.47 0 00-1.53.84 1.52 1.52 0 00-.48 1.59 1.55 1.55 0 001.4.9 4.6 4.6 0 001.71-.36l4.82-1.68" fill="#ffbe9d"/><path d="M680 211.24l-3.73 1.47a3.87 3.87 0 00-1.29.71 1.16 1.16 0 00.78 2.09 4 4 0 001.44-.3l4.05-1.41" fill="#ffbe9d"/><path d="M681.48 213.71l-3.74 1.47a3.9 3.9 0 00-1.28.7 1.16 1.16 0 00.77 2.09 3.66 3.66 0 001.45-.3l4.05-1.41" fill="#ffbe9d"/><path d="M682.73 206.86a10.29 10.29 0 01-3 1.34 10.73 10.73 0 01-3.18.84 10.29 10.29 0 013-1.34 10.73 10.73 0 013.18-.84zm-1.26 3.97a7.32 7.32 0 01-2.68 1.28 7.62 7.62 0 01-2.91.61 10.1 10.1 0 012.75-1.11 9.92 9.92 0 012.84-.78zm.44 2.99c.05.14-.85.53-2 .89a4.93 4.93 0 01-2.15.39c0-.14.85-.54 2-.89a4.76 4.76 0 012.15-.39z" fill="#eb996e"/><path d="M641.31 197.76c-1.5-1.71-8.93 4.19-9.59 4.64s-1.34-.49-.72-.87c.89-.54 10.15-6.46 8.7-8.15-.81-.94-2.36.67-2.36.67s-8.26 6.17-8.92 5.35 4.06-4.62 5.74-5.79 1.79-2.41.67-2.72c-.76-.21-6 3.23-7.64 4.42s-6.07 4.54-5.23 1.11.2-6.38-.53-7.06-1.93.09-1.73 1.17a12.57 12.57 0 01-.18 3.55 8.31 8.31 0 01-.89 2.71c-.23.43-.45.81-.66 1.18-5.94 3.23-39 21.19-42.46 22.87-3.83 1.85-33.23-6.15-33.23-6.15l-4.58 18.38s29.16 9.55 36.66 10c6.11.37 37.57-22.6 48.95-31.08a133 133 0 0013-5.88c4.59-2.57 4.37-3 4-3.46-1-1.3-8.24 4.2-7.38 2.12s9.53-5.7 8.38-7.01z" fill="#ffbe9d"/><path d="M536.39 236.34l26.19 9 5.08-24.89s-10.33-3.71-20.12-6.68c-7.09-2.15-17.87 0-18.77 7.36-2.77 8.08 2.33 13.19 7.62 15.21z" fill="#455a64"/><path d="M560.91 244.75a27.22 27.22 0 00.81-3.63c.46-2.25 1.15-5.34 2-8.75s1.56-6.49 2.05-8.74a21.81 21.81 0 00.64-3.67 25.25 25.25 0 00-1.07 3.56c-.59 2.22-1.4 5.29-2.22 8.71s-1.44 6.54-1.79 8.81a18.6 18.6 0 00-.42 3.71zM530.69 233s-.38-.56-1-1.61a13.1 13.1 0 01-1.5-4.82 12.24 12.24 0 011.35-7.24 12.76 12.76 0 016.76-5.85 13.74 13.74 0 014.66-.78 21.63 21.63 0 014.41.43 53.65 53.65 0 017.27 2.19c2.05.73 3.71 1.31 4.87 1.67.58.18 1 .3 1.35.39a1.47 1.47 0 00.48.09 13 13 0 00-1.75-.7l-4.8-1.85a49.15 49.15 0 00-7.31-2.32 17.43 17.43 0 00-9.38.33 13.17 13.17 0 00-7 6.14 12.78 12.78 0 00.43 12.43 10 10 0 00.82 1.15 2 2 0 00.34.35z" fill="#263238"/><path d="M564.19 219.25c.14 0-1.32 5.46-3.27 12.1s-3.64 12-3.78 12 1.33-5.46 3.28-12.1 3.64-12.04 3.77-12zm-2.51-.67c.13 0-1.41 5.37-3.44 11.9s-3.81 11.78-3.94 11.74 1.4-5.37 3.44-11.9 3.8-11.78 3.94-11.74z" fill="#fafafa"/><path d="M169.46 238.19c-31.43 6.57-63.55 6.2-102 1.42L85.1 166.7c37 4.49 64 5.53 98 .82z" fill="#e0e0e0"/><path d="M146 191.81s0 .23-.11.68-.22 1.13-.38 2c-.36 1.75-.87 4.28-1.53 7.49l-5.61 27v.17h-.18l-11.59.1h-.28l.05-.28c1.13-6.41 2.38-13.45 3.68-20.81A7.24 7.24 0 00127 202a10.72 10.72 0 00-7.26-1.12 9.23 9.23 0 00-3.82 1.66 10.41 10.41 0 00-2.72 3.12 11.35 11.35 0 00-.86 1.88c-.23.64-.35 1.33-.52 2l-.93 4c-1.23 5.34-2.43 10.49-3.56 15.4v.18H92.68l.07-.27c3-11.3 5.46-20.67 7.2-27.25l2-7.59c.23-.85.42-1.51.55-2s.21-.67.21-.67 0 .23-.15.69-.28 1.15-.49 2l-1.92 7.61c-1.7 6.59-4.12 16-7 27.3l-.21-.28h14.18l-.24.19c1.13-4.91 2.31-10.06 3.53-15.41.31-1.33.62-2.68.93-4a20.81 20.81 0 01.53-2.06 12.86 12.86 0 01.9-2 10.78 10.78 0 012.85-3.28 9.81 9.81 0 014-1.76 11.14 11.14 0 017.63 1.19 7 7 0 012.53 2.92 8.67 8.67 0 01.8 3.71L126.83 229l-.23-.27 11.59-.06-.21.17c2.41-11.18 4.4-20.43 5.79-26.91.7-3.2 1.26-5.72 1.64-7.47q.28-1.26.45-2c.14-.46.14-.65.14-.65z" fill="#263238"/><path d="M101.59 191.61a.75.75 0 01.24 0h.7l2.71-.05 10-.08 15-.06c5.65 0 11.89-.05 18.48 0l-.12.49-3.46-1.76-19.14-9.79h.2L106.69 189l-5.56 2.4-1.48.62a4.29 4.29 0 01-.52.19 2.55 2.55 0 01.49-.26l1.45-.69 5.51-2.52 19.42-8.8.1-.05.1.05 19.11 9.73 3.46 1.77 1 .51h-1.11c-6.59-.1-12.83-.07-18.48-.09l-15-.06-10-.08h-3.41z" fill="#263238"/><path d="M146 191.81a2.76 2.76 0 01.64-.09l1.84-.15 6.74-.44h.26l-.06.25-4.1 18.5L147 229v.15h-.15l-6.35-.15-1.71-.07a2.41 2.41 0 01-.6-.06 3.56 3.56 0 01.6 0h8l-.18.15c1.1-5 2.59-11.72 4.23-19.13 1.63-7.12 3.12-13.6 4.24-18.48l.19.24-6.75.27h-1.84a2.53 2.53 0 01-.68-.11zm10.28-.48a6.1 6.1 0 01-1.19-.51l-3.17-1.55c-2.66-1.33-6.33-3.2-10.36-5.29l-6.91-3.62h.1c-2.58 0-4.74 0-6.25-.09a14.77 14.77 0 01-2.38-.14 15.77 15.77 0 012.38-.13c1.51 0 3.67-.07 6.25-.09h.11l6.94 3.57c4 2.09 7.67 4 10.29 5.42l3.09 1.7a5.47 5.47 0 011.1.73z" fill="#263238"/><path d="M149.52 218.47c0 .14-4.68.23-10.45.19a103.21 103.21 0 01-10.44-.33c0-.14 4.68-.23 10.45-.19a103.39 103.39 0 0110.44.33zm1.95-10.29a104.31 104.31 0 01-10.58.23c-5.85 0-10.59-.14-10.59-.28s4.74-.25 10.59-.24 10.58.11 10.58.29zm-33.06 10.26c0 .14-5.1.23-11.39.19s-11.39-.19-11.39-.33 5.1-.23 11.39-.19 11.4.18 11.39.33zm2.28-10.29c0 .15-5.09.25-11.37.24S98 208.24 98 208.1s5.09-.25 11.37-.24 11.32.14 11.32.29z" fill="#263238"/><path d="M127.43 202a1.2 1.2 0 01-.41.06h-.49c-.19 0-.41.08-.66.12a5.59 5.59 0 00-1.67.69 6.65 6.65 0 00-1.71 1.66 9.93 9.93 0 00-1.29 2.61c-.33 1-.5 2.13-.77 3.31-.52 2.36-1.08 4.95-1.67 7.67-.9 4-1.73 7.7-2.43 10.83v.17h-.18l-6.58-.09-1.84-.06a2.32 2.32 0 01-.64-.07 2.69 2.69 0 01.64-.06l1.84-.06 6.58-.1-.21.17c.68-3.13 1.48-6.85 2.35-10.84.6-2.71 1.18-5.3 1.71-7.66.29-1.17.46-2.31.83-3.35a10.05 10.05 0 011.41-2.69 6.72 6.72 0 011.85-1.69 5.29 5.29 0 011.78-.64 6.71 6.71 0 01.69-.07h.5a1.91 1.91 0 01.37.09zm38.41-21.85c.14 0-2.35 11.06-5.56 24.61s-5.93 24.52-6.07 24.49 2.35-11.05 5.56-24.61 5.93-24.52 6.07-24.49z" fill="#263238"/><path d="M163 229.32a63.21 63.21 0 01-8.2.08 66.84 66.84 0 01-8.19-.45 64.57 64.57 0 018.2-.07 65.77 65.77 0 018.19.44z" fill="#263238"/><path d="M155.59 230.75c-.13.07-.59-.62-1.18-1.43s-1.11-1.46-1-1.57.8.4 1.43 1.26.88 1.68.75 1.74zM167.36 208a60.36 60.36 0 01-7.9.3 60.58 60.58 0 01-7.91-.21 59.59 59.59 0 017.91-.31 61.45 61.45 0 017.9.22z" fill="#263238"/><path d="M160.4 207.16c.09.11-.4.65-1.1 1.2s-1.33.9-1.42.78.4-.64 1.1-1.19 1.33-.9 1.42-.79zm9.27-14.92a54.6 54.6 0 01-7.45-.07 54 54 0 01-7.44-.59 54.76 54.76 0 017.46.07 51.9 51.9 0 017.43.59z" fill="#263238"/><path d="M165.17 191.05c.07.13-.55.57-1.38 1s-1.55.64-1.62.51.56-.57 1.38-1 1.56-.64 1.62-.51zm4.02-9.81c0 .14-7.72 0-17.23-.28s-17.21-.66-17.21-.81 7.72 0 17.23.29 17.21.66 17.21.8z" fill="#263238"/><path d="M168 179.8c.08.12-.81.86-2 1.66a6.64 6.64 0 01-2.28 1.22c-.08-.12.81-.86 2-1.66a6.73 6.73 0 012.28-1.22zm-75.78 23.31c-3.29-5.56-4.24-13-5.07-19.38-.39-3-1.08-7.31 1-9.2 2.28-2 2.49-5.13 5.11-6.69a8 8 0 018.61.09" fill="#263238"/><path d="M101.34 222.81a8.92 8.92 0 009.62-8.53c.2-4.85.38-9.77.38-9.77s7.37-.66 7.92-7.95.36-24.1.36-24.1A25.39 25.39 0 0094 174l.38 25.65v13.79c-.05 4.66 2.35 9 6.96 9.37z" fill="#b78876"/><path d="M112 187.65a3.74 3.74 0 00-5-1.1 4.24 4.24 0 00-1.43 5.29 5.58 5.58 0 003.57 2.71 2.78 2.78 0 012.18 3c-.21 1.83-3.26 2.5-4.63 4-2.15 2.35-6.84 3.33-10 3.7s-2.73.39-4.53-2.17a9.78 9.78 0 01-1.76-5.92q-.13-8.06-.28-16.11a22.89 22.89 0 01.38-5.79 7.74 7.74 0 013.07-4.77c1.77-1.16 4-1.25 6-1.9 2.52-.81 4.67-2.48 7-3.68s5.26-1.91 7.63-.71c1.7.85 2.84 2.56 4.49 3.5 2.35 1.35 5.56 1.05 6.69 4.52a5.89 5.89 0 01-.05 3.71c-1.61 4.7-7.45 6.59-11.65 4.54-.09.8.69 2.57-.15 5.09-.28.81-.37 2-1.63 2.06" fill="#263238"/><path d="M110.71 192.19s0 .14-.1.32a1.1 1.1 0 01-.82.4 2 2 0 01-1.88-2 2.15 2.15 0 01.54-1.54 2.2 2.2 0 011.14-.65c.75-.16 1.19.12 1.15.17s-.44 0-1 .18a1.84 1.84 0 00-1.26 1.82 1.7 1.7 0 001.37 1.67 1.37 1.37 0 00.86-.37z" fill="#aa6550"/><path d="M89.73 182.81a9.05 9.05 0 00-6.24-4.81 7.63 7.63 0 00-7.28 2.64 6.63 6.63 0 00-.35 7.6c1.76 2.57 5.13 3.38 8.21 3.79a12.67 12.67 0 01-9 4.3 8.17 8.17 0 008.33.42l-5 4.26a11.18 11.18 0 009.23-19.93" fill="#263238"/><path d="M85.1 191.72a5.11 5.11 0 002.43-.42 6.22 6.22 0 003.26-4.72 6.71 6.71 0 00-1.72-5.53 13 13 0 00-1.95-1.6s.26 0 .66.23a6.09 6.09 0 011.55 1.11 6.69 6.69 0 012 5.86 6.33 6.33 0 01-3.62 5 3.92 3.92 0 01-1.91.3c-.48-.08-.71-.2-.7-.23z" fill="#4a98f5"/><path d="M74.57 184.37c-.06 0 .38-1 1.91-1.73a10.41 10.41 0 016.2-.36 13.63 13.63 0 015.66 2.6 11 11 0 011.39 1.28c.29.34.43.54.41.56s-.73-.66-2-1.54a15.14 15.14 0 00-5.54-2.39 11.07 11.07 0 00-6 .19 6 6 0 00-2.03 1.39z" fill="#455a64"/><path d="M76.76 189.26c0-.08.69.08 1.78.1a9.29 9.29 0 007.46-3.44c.69-.85 1-1.46 1.08-1.43a3.66 3.66 0 01-.79 1.65 8.48 8.48 0 01-7.73 3.58 3.64 3.64 0 01-1.8-.46zm11.07 9.81c0-.07.68-.52 1.61-1.5a10.11 10.11 0 002.53-9.7c-.34-1.31-.76-2.05-.68-2.1a4.88 4.88 0 011 2 9.61 9.61 0 01-2.62 10.07 5 5 0 01-1.84 1.23zm15.36-28.87a5.85 5.85 0 00-6.1-.52 7.78 7.78 0 00-3 2.72 17.39 17.39 0 00-2.35 7.12 17.92 17.92 0 01-.58 3.13 20.38 20.38 0 01.21-3.18 16.36 16.36 0 012.29-7.36 7.92 7.92 0 013.22-2.87 6.36 6.36 0 013.48-.52 4.9 4.9 0 012.21.87c.43.33.64.6.62.61zm20.5 7.51a5.88 5.88 0 00.88-.51 2.35 2.35 0 00.84-2.38 2.43 2.43 0 00-1-1.42 3.64 3.64 0 00-2.06-.34A6.16 6.16 0 01121 173a3 3 0 01-1.25-.57 14.38 14.38 0 01-1.85-2 8.8 8.8 0 00-4.26-2.51 9.69 9.69 0 00-4.09-.22A12.52 12.52 0 00106 169a3.08 3.08 0 01.84-.64 8.35 8.35 0 012.69-1 9.58 9.58 0 014.27.11 9.05 9.05 0 014.52 2.63 16.08 16.08 0 001.78 1.93 3.21 3.21 0 002.2.56 4 4 0 012.3.46 2.69 2.69 0 011.17 1.7 2.39 2.39 0 01-.23 1.68 2.66 2.66 0 01-.84 1 2 2 0 01-.73.32c-.19-.02-.28-.02-.28-.04zm-19.56 20.22a2.76 2.76 0 01-1.06-.41 5.78 5.78 0 01-2.66-6.82 5.89 5.89 0 011.42-2.4 10.74 10.74 0 012.39-1.75c.87-.5 1.72-1 2.49-1.46a8.14 8.14 0 001.92-1.76 8.71 8.71 0 001.73-4.06 10.89 10.89 0 00-.29-4.12s.07.08.15.26a4.38 4.38 0 01.28.8 7.91 7.91 0 01.23 3.11 8.8 8.8 0 01-1.72 4.3 8.31 8.31 0 01-2 1.89c-.79.54-1.66 1-2.51 1.49a10.68 10.68 0 00-2.29 1.66 5.62 5.62 0 00-1.33 2.19 5.57 5.57 0 00.33 4.28 6 6 0 002 2.22c.56.4.94.53.92.58z" fill="#455a64"/><path d="M91.53 187.2c0-.11 1.37.16 3.53-.07a17.12 17.12 0 007.87-2.84 13.23 13.23 0 005.29-6.36 6.32 6.32 0 00.11-3.43 2.23 2.23 0 01.36.9 5.54 5.54 0 01-.12 2.64c-.57 2.19-2.53 4.78-5.35 6.68a16.11 16.11 0 01-8.13 2.77 13.62 13.62 0 01-2.62-.08 3.24 3.24 0 01-.94-.21z" fill="#455a64"/><path d="M174.75 229l-4.37 4.84-21.63 25.51a12 12 0 01-20.37-3.5l-7.53-16.14 12.83-7.22c.61.47 7.29 13.49 7.29 13.49 1.95-.62 24-22.77 24-22.77l.28-1.4c.11-.57.23-1.21.34-1.94a7.53 7.53 0 00-.05-2.55 11.72 11.72 0 00-.89-3.05c-.48-.85.29-1.85 1.08-1.49s2.18 2.66 2.49 5.79 2.87-.08 3.86-1.56c1.31-2 3.9-.79 2.95 1.58a1.7 1.7 0 011.17.77 2.92 2.92 0 01.12 2.28 7.77 7.77 0 01.19 3 11.46 11.46 0 01-1.76 4.36zm-62.58 121.49l20.86 96.22 15.74-.36-13.71-92.02-22.89-3.84z" fill="#b78876"/><path d="M150.92 448l-.07-1.76-17.82.51.15 5.81h1.11c4.9.12 24.94.3 28.19-.71 3.61-1.14-11.56-3.85-11.56-3.85z" fill="#4a98f5"/><path d="M139.61 452.21a5.66 5.66 0 00-2.37-3.45 6.3 6.3 0 00-4.18-1.09l.13 4.61z" fill="#fff" opacity=".6"/><path d="M158.34 449.55s5.33 1.27 4.7 2.1-20.9 1.36-29.86.87v-.37l23.64-.44s.49-2.1 1.52-2.16z" fill="#fff" opacity=".6"/><path d="M132.92 452.14h1.19l3.22.05c2.73 0 6.5 0 10.66-.11s7.92-.28 10.64-.44l3.22-.21.88-.07h.3-1.18l-3.23.14c-2.72.12-6.48.27-10.64.38s-7.92.15-10.65.17h-4.1z" fill="#263238"/><path d="M156.84 452a7.21 7.21 0 01.56-1.45 7 7 0 011.06-1.17 2.38 2.38 0 00-1.25 1.07 2.13 2.13 0 00-.37 1.55zm-5.31-2.36c.05 0 .29-.26.54-.65s.41-.72.36-.75-.3.26-.54.65-.41.72-.36.75zm-1.46-.64s.32-.14.62-.41.5-.5.46-.54-.31.14-.61.4-.54.48-.47.55zm-.95-1.56a2.34 2.34 0 00.93.08 2.41 2.41 0 00.92-.11 4.13 4.13 0 00-1.85 0zm-.35-1.09a2 2 0 001 .25 1.93 1.93 0 001.07-.16 6.21 6.21 0 00-1.06 0 5.8 5.8 0 00-1.01-.09z" fill="#263238"/><path d="M152.09 448.18a3.75 3.75 0 001.14 0 7.51 7.51 0 001.2-.28 3.64 3.64 0 00.69-.29.56.56 0 00.27-.34.4.4 0 00-.18-.42 2.2 2.2 0 00-2.57.64 1.73 1.73 0 00-.35.72.6.6 0 000 .29 2.78 2.78 0 01.49-.92 2 2 0 011-.62 1.93 1.93 0 011.36.05c.18.12.12.32-.08.44a3.52 3.52 0 01-.63.27 9.15 9.15 0 01-1.17.32c-.74.1-1.17.11-1.17.14z" fill="#263238"/><path d="M152.39 448.23a1.05 1.05 0 00.1-.74 1.6 1.6 0 00-.33-.77 1.15 1.15 0 00-1-.51.41.41 0 00-.33.49 1 1 0 00.21.47 3.18 3.18 0 00.55.63 1.61 1.61 0 00.67.41s-.23-.18-.56-.51a3.74 3.74 0 01-.5-.62c-.16-.22-.28-.62 0-.68a1.07 1.07 0 01.76.43 1.67 1.67 0 01.34.68 4.56 4.56 0 01.09.72zm-19.24-.61s.5-.06 1.31 0a5.91 5.91 0 012.89 1 5.4 5.4 0 011.86 2.3c.29.7.33 1.18.37 1.17s0-.12 0-.33a3.89 3.89 0 00-.22-.89 5.08 5.08 0 00-1.87-2.41 5.73 5.73 0 00-3-1 4.57 4.57 0 00-1 .05.94.94 0 00-.34.11zm8.65 2.93a15.71 15.71 0 005.18-.09c0-.06-1.16 0-2.59.06s-2.59-.03-2.59.03z" fill="#263238"/><path d="M138.32 450.63s.1.23.23.47.19.46.26.46.08-.26-.07-.54-.38-.43-.42-.39zm-1.32-1.48s.08.21.27.38.38.27.42.23-.08-.21-.27-.38-.42-.27-.42-.23zm-1.93-.64c0 .05.25.05.51.12s.45.21.5.17-.11-.26-.44-.36-.59.02-.57.07zm-1.35-.29s.09.13.23.18.29.05.31 0-.08-.13-.23-.18-.29-.06-.31 0z" fill="#263238"/><path fill="#b78876" d="M73.65 347.24l-5.07 93.96 15.49 3.74 11.62-95.72-22.04-1.98z"/><path fill="#4a98f5" d="M68.12 440.84l-2.64 11.6h17.83l.76-7.55-15.95-4.05z"/><path d="M83.67 450.76a13.38 13.38 0 01-2.59.15c-1.61 0-3.83 0-6.27-.12l-6.26-.27a14.42 14.42 0 01-2.59-.2 12.26 12.26 0 012.6-.14c1.61 0 3.82 0 6.27.12l6.25.26a14.42 14.42 0 012.59.2z" fill="#263238"/><path d="M76.12 443.1a14.34 14.34 0 010 3.76 15.05 15.05 0 01-.49 3.72 14.06 14.06 0 010-3.76 14.24 14.24 0 01.49-3.72z" fill="#263238"/><path fill="#fff" d="M65.48 452.44h17.83l.17-1.68-17.68-.44-.32 1.92" opacity=".6"/><path d="M65.82 245.45l-6 14.24a8.09 8.09 0 005.23 10.14 8.08 8.08 0 0010.13-5.09L80 250.69z" fill="#b78876"/><path d="M82.13 275.77s-10.87 18.17-10.87 29l-7.39 116.86L93.33 425l7.16-114.46S124.58 426.7 125.6 426.7s26.83-1.7 26.83-1.7l-27.85-148.65z" fill="#263238"/><path d="M147 425.13c-.14 0-6.11-33.25-13.34-74.33s-13-74.4-12.84-74.42 6.12 33.25 13.35 74.33 12.96 74.4 12.83 74.42zm-8.69 1.6c-.14 0-6-33.62-13.17-75.13s-12.81-75.2-12.66-75.22 6 33.61 13.17 75.13 12.8 75.19 12.66 75.22zm-7.84-.28c-.14 0-6.78-33.74-14.83-75.4s-14.46-75.48-14.31-75.51 6.77 33.73 14.82 75.41 14.46 75.47 14.32 75.5zm-41.06-1.87c-.15 0 1.46-33.29 3.58-74.31s4-74.3 4.1-74.3-1.46 33.28-3.58 74.32-3.96 74.29-4.1 74.29zm1-148.81s0 .12-.16.35l-.48 1c-.4.9-1 2.24-1.63 4a61.49 61.49 0 00-3.54 15.44c-1 13.4-1.88 32-3 52.44s-2.07 39-2.78 52.47l-.88 15.89-.26 4.33-.08 1.12a1.65 1.65 0 010 .38 2.21 2.21 0 010-.38v-1.13l.17-4.33.71-15.9c.63-13.43 1.54-32 2.63-52.48s2.06-39 3.14-52.45A59.59 59.59 0 0188 281.07c.68-1.76 1.29-3.09 1.73-4 .22-.44.4-.77.52-1a2.33 2.33 0 01.16-.3zm-7.04-.23a1.32 1.32 0 01-.13.36c-.1.26-.24.61-.42 1-.38.91-1 2.24-1.6 4a86.57 86.57 0 00-4.14 15.25c-.58 3.29-1.06 6.92-1.41 10.83s-.55 8.11-.75 12.53c-.33 8.85-1.14 18.55-1.86 28.73-1.51 20.37-2.88 38.8-3.88 52.17-.52 6.65-.94 12-1.23 15.8l-.37 4.3-.1 1.11a2 2 0 01-.06.38 1.83 1.83 0 010-.38l.06-1.12c.06-1 .15-2.46.26-4.3.26-3.77.62-9.16 1.07-15.82 1-13.37 2.28-31.81 3.73-52.17.72-10.19 1.55-19.88 1.9-28.72.21-4.42.44-8.62.8-12.55s.87-7.56 1.47-10.86A83.77 83.77 0 0181 280.87c.65-1.76 1.28-3.07 1.69-4l.47-1a2 2 0 01.21-.33z" fill="#e0e0e0"/><path d="M112.48 313.5c0 .14-5.76-1.14-12.79-2.86S87 307.42 87 307.28s5.75 1.14 12.78 2.86 12.73 3.22 12.7 3.36z" fill="#455a64"/><path d="M82.13 275.77L87.21 261l-3.53-17.88-2.76 7.88-17.05-6.26s11-22.08 11.6-23.24c5-10.6 18.49-10.6 18.49-10.6l17.12.45a18.72 18.72 0 0114.71 5.7c4.9 4.94 15.4 27.67 15.4 27.67l-15.4 8.1-5.5-10.28 1 14.06 3.55 21.42z" fill="#4a98f5"/><path d="M117.88 216c0 .05-.48.07-1.26.39a5.88 5.88 0 00-2.61 2.33 7.76 7.76 0 00-1.06 5.05 19.59 19.59 0 002 6.18c2 4.25 3.74 8.13 5 10.94l1.46 3.34a7.33 7.33 0 01.47 1.25 6.21 6.21 0 01-.66-1.17l-1.6-3.27c-1.35-2.77-3.15-6.61-5.14-10.87a19.63 19.63 0 01-2-6.35 8 8 0 011.23-5.29 5.82 5.82 0 012.85-2.33 3.68 3.68 0 011-.21c.2.01.32.01.32.01zm-30.5 45.84c-.15 0-2.2-9.25-4.59-20.72s-4.21-20.8-4.07-20.83 2.19 9.25 4.58 20.72 4.22 20.8 4.08 20.83z" fill="#263238"/><path d="M88.64 260.69c3.21 2.41 8 1.6 11.91.95a17.22 17.22 0 0010.37-5.64 7 7 0 001.92-4.9c-.15-1.8-1.74-3.53-3.53-3.32-2 .25-3 2.55-4 4.36a15.9 15.9 0 01-16.6 7.86s-.64.26-.07.69z" opacity=".2"/><path d="M113.1 247.92a4.16 4.16 0 010 1.23 11.85 11.85 0 01-.83 3.27 15.86 15.86 0 01-7.48 8A22 22 0 0194 262.57a25.53 25.53 0 01-3.34-.34 5.37 5.37 0 01-1.19-.28c0-.1 1.73.22 4.54.25a22.94 22.94 0 0010.55-2.26 16.09 16.09 0 007.38-7.67 18 18 0 001.16-4.35z" fill="#263238"/><path d="M113.1 225.83c1 8.07 2.31 14.7 4 22.66.83 3.91 1.83 8 4.54 10.95l-1.56-17.9z" opacity=".2"/></svg>