<svg xmlns="http://www.w3.org/2000/svg" viewBox="0 0 750 500"><defs><clipPath id="a"><path d="M586.83 355.12L584.31 378c0 .29-.08.57-.13.86a10 10 0 01-10 7.85h-11.24a3.48 3.48 0 01-3.39-4.21l5.3-27.46a3.87 3.87 0 013.77-3.08H584a2.9 2.9 0 012.87 3.22z" fill="#4a98f5"/></clipPath></defs><path d="M76.69 139.25s-11.64 4.41 1.11 29.2 21.58 37.05 21.58 37.05 2.26 5.76-2.59 6.67-15.54-.76-17.68 5.19c-2.22 6.17 2.27 12 11.36 17s28.59 16.89 30.35 18 3.46 3.73.26 4.88-27.23 3.76-25.32 15.07 29.55 21.28 32.55 22.42 3.72 2.42 3.48 4.06-8.4 1.76-15.2 2.78-14.51 3.38-12.86 9.83 18 19.93 57.76 23.69l18.51.53L190 320c19.41-34.85 17.58-56 13.2-61s-10.69 0-15.38 5-9.41 11.69-10.9 11-2.13-2.05-1.37-5.17 8.21-31.54 0-39.53-24 10.34-26.76 12.33-4-1-3.88-3 1.41-24.83 2.39-35.19-1.26-17.35-7.6-19c-6.11-1.6-10.79 8.15-14.29 11.63s-7-1.65-7-1.65-5.11-14.21-18.31-38.77-23.66-17.23-23.66-17.23" fill="#f5f5f5"/><path d="M181 340c-9.62-18.08-26.19-50.48-40.55-78.23S113 208.91 103.49 190.8c-4.76-9-8.63-16.36-11.31-21.45a992.7 992.7 0 00-3.07-5.83c-.34-.66-.6-1.16-.78-1.53a5.59 5.59 0 01-.25-.52s.11.16.3.5l.83 1.49 3.17 5.79c2.74 5 6.66 12.32 11.47 21.36 9.63 18.07 22.71 43.14 37.08 70.88s30.87 60.18 40.4 78.3" fill="#e0e0e0"/><path d="M94 220.29a7.17 7.17 0 011.3.36c.82.26 2 .67 3.44 1.19 2.89 1.06 6.85 2.61 11.19 4.4l11.07 4.63 3.36 1.38a6.3 6.3 0 011.22.55 5.46 5.46 0 01-1.29-.34c-.82-.26-2-.68-3.44-1.21-2.88-1.08-6.82-2.69-11.16-4.48l-11.12-4.55-3.37-1.36a5.85 5.85 0 01-1.2-.57zm32.83 11.33c-.14-.06 2.7-8.36 6.35-18.55s6.74-18.4 6.89-18.35-2.69 8.36-6.35 18.55-6.72 18.4-6.89 18.35zm20.17 43.6a6.06 6.06 0 01.75-1.15l2.19-3c1.83-2.54 4.36-6.06 7-10.05s4.93-7.67 6.56-10.35l1.93-3.18a7.6 7.6 0 01.76-1.14 5.18 5.18 0 01-.57 1.25c-.4.78-1 1.9-1.77 3.27-1.54 2.74-3.77 6.47-6.43 10.47s-5.23 7.49-7.16 10c-1 1.23-1.76 2.23-2.33 2.9a6.31 6.31 0 01-.93.98zm-32-3.7a4.88 4.88 0 011.26 0l3.43.26c2.89.25 6.88.63 11.28 1.08s8.39.89 11.27 1.24l3.41.44a5.44 5.44 0 011.24.24 5.54 5.54 0 01-1.26 0l-3.43-.26c-2.89-.25-6.88-.63-11.29-1.08s-8.38-.89-11.26-1.24l-3.41-.44a5.27 5.27 0 01-1.24-.24zm12.89 40.74a9 9 0 011.61 0l4.4.32c3.7.29 8.82.74 14.47 1.26s10.76 1 14.46 1.43l4.38.5a8.88 8.88 0 011.6.26 8.37 8.37 0 01-1.62 0l-4.4-.32c-3.7-.29-8.82-.74-14.47-1.27s-10.76-1-14.46-1.43l-4.38-.49a8.81 8.81 0 01-1.59-.26zm39.96 3.45a10.57 10.57 0 01.91-1.48l2.63-3.91c2.22-3.31 5.27-7.89 8.49-13s6-9.88 8-13.32c1-1.65 1.76-3 2.38-4.08a10.3 10.3 0 01.92-1.46 8.58 8.58 0 01-.73 1.57c-.5 1-1.25 2.42-2.21 4.17-1.92 3.49-4.66 8.27-7.9 13.43s-6.33 9.71-8.63 13c-1.16 1.62-2.11 2.92-2.78 3.81a9.94 9.94 0 01-1.08 1.27z" fill="#e0e0e0"/><path d="M523.71 373.82c-26.68-17.43-33.66-51.11-33.57-81.58 0-5.08-.71-10.42 1.56-14.95s7.83-7.76 12.44-5.76c3.83 1.66 5.61 6 7.84 9.56a29.64 29.64 0 0012.27 11c3.28 1.58 7.32 2.48 10.46.62 4.3-2.55 4.63-8.62 4.44-13.68l-1-28.24c-.19-5.06-.37-10.21 1.06-15.06s4.75-9.41 9.52-10.9 10.79 1.09 12 6c.49 2 .14 4.2.34 6.29s1.26 4.38 3.27 4.91 4-1 5.47-2.5c5.06-5.26 8.39-11.94 11.5-18.58s6.11-13.43 10.66-19.14 11-10.33 18.2-11 15.07 3.59 17.12 10.63-1.88 14.43-6.22 20.34a113 113 0 01-22.79 23.11c-1.56 1.18-3.24 2.46-3.79 4.35-1 3.4 2.3 6.65 5.66 7.65 3.8 1.14 7.88.62 11.83 1s8.28 2 9.89 5.63c2.23 5.1-1.92 10.64-6.06 14.32a96.61 96.61 0 01-28.09 17.4c-3.67 1.47-7.55 2.79-10.46 5.49s-4.59 7.31-2.66 10.81 6.6 4.5 10.47 3.66 7.29-3.07 11-4.58c6.86-2.84 15.84-2.64 20.48 3.22 3.05 3.86 3.47 9.34 2.14 14.09s-4.2 8.89-7.27 12.72c-10.72 13.41-24.64 24.36-40.58 30.45s-30.81 8.06-47 2.71" fill="#f5f5f5"/><path d="M531 354.49c4-15.5 9.8-32.12 16.46-49.3q2.52-6.44 5-12.71c1.65-4.16 3.28-8.29 5.12-12.24a225.71 225.71 0 0111.89-22c4.12-6.83 8.28-13.16 12.21-19s7.73-11.3 11.39-16.09a179.68 179.68 0 0118.92-21.29c2.43-2.33 4.36-4.07 5.69-5.24l1.52-1.32a4.2 4.2 0 01.54-.42 4.23 4.23 0 01-.47.5l-1.46 1.38c-1.29 1.21-3.19 3-5.57 5.37a189.08 189.08 0 00-18.65 21.43c-3.61 4.8-7.36 10.22-11.27 16.12s-8 12.24-12.12 19.06a230.27 230.27 0 00-11.8 22c-1.82 3.92-3.43 8-5.08 12.19s-3.29 8.41-5 12.7c-6.65 17.17-12.46 33.74-16.49 49.18" fill="#e0e0e0"/><path d="M557.78 280.2a11.18 11.18 0 01-.56-2.14c-.31-1.39-.69-3.41-1.12-5.92-.87-5-1.84-12-2.87-19.64s-2.1-14.6-3.05-19.58c-.46-2.5-.86-4.51-1.15-5.9a9.16 9.16 0 01-.35-2.18 10.74 10.74 0 01.7 2.1c.4 1.36.9 3.36 1.44 5.84 1.12 5 2.29 11.91 3.33 19.59s1.91 14.43 2.6 19.67q.5 3.56.83 6a9.47 9.47 0 01.2 2.16zm64.59-14.2a14.46 14.46 0 01-2.58.39c-1.66.2-4.07.48-7 .91-5.93.83-14.08 2.26-23 4.23s-16.92 4.13-22.66 5.85c-2.88.84-5.19 1.58-6.79 2.08a13.68 13.68 0 01-2.52.7 14.7 14.7 0 012.4-1.05c1.57-.61 3.85-1.45 6.71-2.37 5.71-1.88 13.71-4.13 22.66-6.13a231 231 0 0123.13-4c3-.35 5.4-.53 7.08-.62a13.73 13.73 0 012.57.01zm-90.64 87.27a3 3 0 01-.47-.78l-1.18-2.31c-1-2-2.42-5-4.1-8.65-3.37-7.34-7.7-17.63-12.32-29s-8.86-21.75-12.07-29.15l-3.82-8.76-1-2.39a3.64 3.64 0 01-.3-.86 3 3 0 01.47.78c.32.62.71 1.39 1.19 2.31 1 2 2.41 5 4.09 8.64 3.37 7.35 7.7 17.64 12.33 29.07s8.85 21.74 12.06 29.14l3.79 8.69 1 2.39a3.13 3.13 0 01.33.88zm85.46-30.51a3.52 3.52 0 01-.84.38l-2.48.92-9.15 3.28c-7.73 2.78-18.36 6.73-30.1 11.12s-22.41 8.25-30.2 10.86c-3.89 1.31-7 2.34-9.25 3l-2.54.75a3.52 3.52 0 01-.9.2 3.49 3.49 0 01.85-.38l2.48-.92 9.15-3.28c7.72-2.77 18.35-6.73 30.09-11.11s22.42-8.25 30.2-10.86c3.89-1.31 7-2.34 9.25-3l2.54-.75a3.52 3.52 0 01.9-.21z" fill="#e0e0e0"/><path d="M151.6 97.55c.8-5.86-7.46-10.68-13.68-11.18-3-.24-6 .22-8.84-.76-6.08-2.12-8.51-10-14.44-12.48-4.44-1.87-9.55-.2-13.85 2S92.24 80 87.44 80.28c-4.18.27-8.72-1.28-12.38.76-2.72 1.53-4.15 4.66-6.66 6.52s-5.66 2.19-8.71 2.36-6.2.19-9 1.47-5.07 4.2-4.49 7.2z" fill="#ebebeb"/><path d="M564.83 151.22c.84-6.06-7.72-11-14.15-11.56-3.06-.25-6.25.22-9.15-.79-6.29-2.2-8.8-10.32-14.94-12.91-4.59-1.94-9.88-.22-14.33 2s-8.84 5.06-13.82 5.38c-4.32.28-9-1.33-12.8.79-2.82 1.57-4.29 4.82-6.89 6.73s-5.86 2.28-9 2.45-6.42.2-9.3 1.52-5.24 4.35-4.65 7.45zm128.32 26.61c.51-3.73-4.75-6.8-8.71-7.12-1.89-.15-3.85.14-5.64-.49-3.87-1.35-5.42-6.35-9.2-7.95-2.82-1.19-6.08-.13-8.82 1.25s-5.44 3.12-8.51 3.31c-2.66.17-5.55-.82-7.88.49-1.73 1-2.64 3-4.24 4.14a10.14 10.14 0 01-5.55 1.54 15.44 15.44 0 00-5.72.93c-1.77.81-3.24 2.68-2.87 4.59z" fill="#f5f5f5"/><path d="M673.9 92.54c.94-6.79-8.65-12.38-15.85-13-3.43-.28-7 .25-10.26-.89-7-2.45-9.86-11.56-16.74-14.46C625.91 62.06 620 64 615 66.5s-9.91 5.67-15.48 6c-4.85.31-10.11-1.48-14.35.88-3.16 1.77-4.81 5.41-7.72 7.55s-6.57 2.55-10.1 2.74-7.2.23-10.41 1.7-5.88 4.88-5.22 8.36z" fill="#ebebeb"/><path d="M279.69 117.48c2.75-1.18 5.69 1.33 7.19 3.92s2.71 5.72 5.45 6.92c2.13.93 4.58.4 6.91.49 7.15.28 12.69 6.45 15.9 12.85 2 4 3.46 8.59 2.13 12.84-1.17 3.74-4.32 6.52-7.6 8.66a37.69 37.69 0 01-22.33 6.34 28.84 28.84 0 01-20.6-10.06c-3.85-4.72-5.9-10.69-6.79-16.71s-.69-12.14-.49-18.22" fill="#263238"/><path d="M310.63 149c-.05 0 0-.65-.12-1.78a13.7 13.7 0 00-1.33-4.62 14.93 14.93 0 00-4.51-5.44 18.84 18.84 0 00-8-3.37c-3.05-.55-6.09-.27-8.82-.85a14 14 0 01-6.45-3.34 22.07 22.07 0 01-3.26-3.66c-.33-.47-.58-.84-.74-1.11a2.45 2.45 0 01-.22-.41 16.1 16.1 0 011.12 1.4 25.27 25.27 0 003.34 3.5 13.71 13.71 0 006.31 3.15c2.63.54 5.66.25 8.81.81a18.8 18.8 0 018.18 3.5 15 15 0 014.56 5.66 13.24 13.24 0 011.2 4.76 9 9 0 010 1.33 1.62 1.62 0 01-.07.47z" fill="#455a64"/><path d="M338.46 135.93l-10.53 39.42-21.38-23a55.66 55.66 0 00-33.2-9l-33.26-1.55-18.36 6.61a67.9 67.9 0 00-12.66 6.15l-35.78 24.69c-7.57 5.47-13.79 9.65-15.25 18-1.92 11 3.65 23.33 15.24 25.37l50.61.61 1.56 32 79.55-7.4-2.13-48.29c16.24 12.51 23.87 17.38 36.09 15 4.07-.79 9.89-5.07 11.78-11.41 6.75-22.6 7.9-58.15 7.9-58.15zM213.7 192.5l4.62-1.31.29 1.67z" fill="#4a98f5"/><path d="M172.53 222.64h6.51l17.78-.05h58.87l-.26.25c0-.58.06-1.2.09-1.82.37-7.95.73-15.64 1.06-22.79l.23.27c-17.91-1.67-33.26-4.25-44.21-5.64-5.48-.72-9.86-1.2-12.86-1.55l-3.44-.38-.89-.11-.3-.05h.31l.89.07 3.45.3c3 .29 7.39.73 12.88 1.41 11 1.3 26.32 3.81 44.21 5.45h.24v.24c-.33 7.14-.68 14.84-1 22.79 0 .62-.06 1.24-.09 1.81v.25h-.25l-58.87-.2-17.88-.13-4.83-.06h-1.25a2.43 2.43 0 01-.39-.06zm1.02-34.19a3 3 0 01.81-.4 17.71 17.71 0 012.34-.77 23.27 23.27 0 0115.91 1.6 16.75 16.75 0 012.14 1.22 3.25 3.25 0 01.72.55c-.06.08-1.13-.62-3-1.44a25.64 25.64 0 00-15.68-1.57c-2.01.43-3.21.9-3.24.81z" fill="#263238"/><path d="M184.56 179.26a9.86 9.86 0 012.18 1.16 40.54 40.54 0 014.79 3.52c1.74 1.51 3.34 3 4 4.43a3.93 3.93 0 01.41 1.8 1.32 1.32 0 01-.15.66 5.17 5.17 0 00-.58-2.29 17.79 17.79 0 00-4-4.2c-1.75-1.5-3.43-2.74-4.66-3.61a14.45 14.45 0 01-1.99-1.47zM219 193.05a20.23 20.23 0 01-.9-3.13c-.5-1.94-1.16-4.63-2-7.57s-1.66-5.58-2.35-7.46-1.15-3-1.08-3.06a2.9 2.9 0 01.45.76c.26.5.59 1.24 1 2.17a67.4 67.4 0 012.5 7.45c.81 3 1.41 5.67 1.82 7.63a19.91 19.91 0 01.56 3.21zm84.9 28.89c-.14 0-.71-12-1.28-26.83s-.91-26.86-.76-26.86.72 12 1.28 26.84.91 26.85.76 26.85z" fill="#263238"/><path d="M302.29 173.76c.83 5.16 3 10 4.79 14.91s3 10.26 1.94 15.37l-6-4.81" opacity=".3"/><path d="M333.15 196.53a3.23 3.23 0 01-.46-.75c-.27-.5-.61-1.24-1-2.17a47.78 47.78 0 01-3.69-15.3c-.07-1-.09-1.83-.08-2.39a3.41 3.41 0 01.08-.92 28 28 0 01.39 3.24 62.07 62.07 0 003.61 15.23c.72 1.88 1.22 3.02 1.15 3.06z" fill="#263238"/><path opacity=".3" d="M214.08 175.1l1.29 16.93 2.95-.84-4.24-16.09z"/><path d="M300.47 175a.86.86 0 01-.26-.11l-.75-.36a22.05 22.05 0 00-2.95-1.16 22.67 22.67 0 00-11.49-.58 24.17 24.17 0 00-7.4 3c-2.49 1.46-5 3.32-7.72 5.13a29.66 29.66 0 01-9.3 4.38 27.18 27.18 0 01-11 .45 30.62 30.62 0 01-5.43-1.48 27.89 27.89 0 01-4.87-2.49 26.26 26.26 0 01-4.1-3.33 37.44 37.44 0 01-3.29-3.82c-2-2.62-3.67-5.23-5.39-7.57a33.55 33.55 0 00-5.35-6 21.25 21.25 0 00-5.61-3.45 14.53 14.53 0 00-4.85-1.09 13 13 0 00-4.2.6l.26-.11.78-.27c.35-.11.8-.19 1.32-.3a12.57 12.57 0 011.85-.12 14 14 0 014.94 1 21.27 21.27 0 015.75 3.44 32.69 32.69 0 015.45 6c1.75 2.33 3.44 4.94 5.43 7.52a38.07 38.07 0 003.26 3.77 26.08 26.08 0 004 3.25 27.9 27.9 0 004.78 2.44 28.78 28.78 0 005.34 1.44 26.63 26.63 0 0010.81-.43 29.3 29.3 0 009.17-4.29c2.73-1.78 5.23-3.63 7.77-5.1a24.36 24.36 0 017.54-3 22.41 22.41 0 0111.63.75 20.44 20.44 0 012.93 1.25l.72.41zm19.53-8.17a4.38 4.38 0 01.11 1.23 17.29 17.29 0 01-.28 3.38 17.77 17.77 0 01-1.59 4.77 30.64 30.64 0 01-3.3 5.18 24.51 24.51 0 01-8.68 6.94 21.41 21.41 0 01-3.15 1.21 5.14 5.14 0 01-1.21.27c0-.1 1.68-.53 4.2-1.81a25.77 25.77 0 008.43-6.93 32 32 0 003.28-5.08 18.57 18.57 0 001.66-4.62 40.49 40.49 0 00.53-4.54zm12.1 47.73s-.14-.05-.38-.21a9.4 9.4 0 01-1-.71 16.42 16.42 0 01-3.21-3.31A24.75 24.75 0 01323 196a50.22 50.22 0 012.59-14.92c.57-1.86 1.08-3.34 1.44-4.36a11.77 11.77 0 01.62-1.57 11.62 11.62 0 01-.42 1.63c-.33 1.13-.77 2.61-1.29 4.4a53.89 53.89 0 00-2.42 14.82 25.24 25.24 0 004.26 14.15 22.53 22.53 0 004.32 4.41zm23.58-44.79a4.85 4.85 0 01-1 .53c-.64.3-1.57.71-2.75 1.15a25.12 25.12 0 01-9.69 1.64 16.3 16.3 0 01-9.22-3.3 11.35 11.35 0 01-2.1-2.13 3.59 3.59 0 01-.58-.93 20.47 20.47 0 002.91 2.77 16.79 16.79 0 009 3.07 27.1 27.1 0 009.55-1.47c2.42-.78 3.84-1.41 3.88-1.33zm-148.79 22.08c-.09 0-.49-1.56-1.42-4a45.17 45.17 0 00-11.29-16.93c-1.91-1.8-3.21-2.79-3.16-2.86a4.54 4.54 0 011 .62 28.88 28.88 0 012.44 2 40.43 40.43 0 0111.38 17.07 29.87 29.87 0 01.88 3 4.75 4.75 0 01.17 1.1zm11.68 1.72a2 2 0 01-.26.53 11.52 11.52 0 01-.95 1.42 15.59 15.59 0 01-4.86 4 28.78 28.78 0 01-8.84 2.89c-3.45.59-7.3.83-11.25 1.47a33.22 33.22 0 00-5.66 1.39 23.3 23.3 0 00-4.85 2.39 24.76 24.76 0 00-6.6 6.31 25.37 25.37 0 00-2.92 5.47c-.54 1.37-.71 2.17-.77 2.15a2.27 2.27 0 01.11-.58 12.16 12.16 0 01.47-1.64 23.52 23.52 0 012.81-5.61 24.38 24.38 0 016.64-6.5 23.27 23.27 0 014.94-2.47 33.94 33.94 0 015.74-1.43c4-.64 7.84-.86 11.26-1.42a29.47 29.47 0 008.75-2.74 16.18 16.18 0 004.87-3.77c.94-1.16 1.32-1.89 1.37-1.86zm21.35 2.75a4.11 4.11 0 01.35 1 20.08 20.08 0 01.59 2.78 26.59 26.59 0 01.25 4.22 26.41 26.41 0 01-2.21 10.06 25.18 25.18 0 01-2 3.72 20.28 20.28 0 01-1.7 2.28c-.45.5-.7.77-.73.74s.89-1.18 2.12-3.21a30.53 30.53 0 001.87-3.72 31.29 31.29 0 001.53-4.84 30.6 30.6 0 00.64-5.05 28.26 28.26 0 00-.14-4.15c-.26-2.38-.67-3.81-.57-3.83zm62.32 15.16a28 28 0 00-6.72-1.92 28.84 28.84 0 00-7 .28 5.9 5.9 0 012-.62 16.48 16.48 0 019.92 1.18 5.86 5.86 0 011.8 1.08z" fill="#fafafa"/><path fill="#ffbe9d" d="M348.88 111.12l-10.06 24.98 18.93 8.48 4.86-21.24-13.73-12.22z"/><path d="M370.6 135.78l-17-21.1c-3.43-4.74-8.89-12.37-9.14-13-.35-1-.48-7.82-.32-9.55a54.54 54.54 0 00-.43-6.64l-14 5.31-2.99-10.8-1.92.6s-5.07 8.77-3.5 13.76 8.2 7.25 9.84 8.26 7.87 3.69 14.9 14.3l1.13 1.64 2.85 4.12 13 18.7a4.73 4.73 0 107.59-5.63z" fill="#455a64"/><path d="M337.21 87.91l-3.66-10.32 1.32-.43s6.46 4 7.85 8.66z" fill="#455a64"/><path d="M333.3 101.54l.16-.07.44-.2 1.65-.74 6-2.72-.15-.09a16 16 0 000 1.83 5.15 5.15 0 00.44 2c.69 1.18 1.53 2.34 2.39 3.58 1.73 2.45 3.65 5.11 5.68 7.87a2.5 2.5 0 01.58 1.16 1.95 1.95 0 01-2.32 2.2 1.91 1.91 0 01-1-.59c-.25-.31-.5-.68-.75-1l-1.47-2-5.07-6.84a6 6 0 00-1.25-1.22c-.44-.33-.87-.61-1.27-.88-.81-.52-1.53-.94-2.12-1.27s-1.06-.58-1.37-.75l-.37-.18h-.13l.12.07.35.21 1.34.79c.59.35 1.29.78 2.09 1.31.4.27.83.56 1.25.89a5.5 5.5 0 011.21 1.2l5 6.87 1.46 2c.25.34.48.67.76 1a2.26 2.26 0 001.18.67 2.22 2.22 0 002.65-2.5 2.81 2.81 0 00-.63-1.28c-2-2.76-4-5.41-5.7-7.86-.85-1.23-1.71-2.4-2.38-3.54a5 5 0 01-.43-1.85 13.76 13.76 0 010-1.81v-.17l-.15.07-6 2.86-1.6.78-.41.2z" fill="#263238"/><path d="M332 96.51l6.29-2.33-.04-3.52-6.35 2.42.1 3.43z" opacity=".3"/><path d="M336.91 90.45a6.5 6.5 0 00-.25 2.6 6.53 6.53 0 00.3 2.59 6.26 6.26 0 00.25-2.6 6.53 6.53 0 00-.3-2.59zm-1.91.7a6.43 6.43 0 00-.24 2.6 6.32 6.32 0 00.3 2.59 6.36 6.36 0 00.24-2.6 6.32 6.32 0 00-.3-2.59zm-1.82.45a6.46 6.46 0 00-.25 2.6 6.53 6.53 0 00.3 2.59 6.5 6.5 0 00.25-2.6 6.53 6.53 0 00-.3-2.59z" fill="#263238"/><path d="M339.47 134.49l.68-4.89.46-13-.5-9.09s3 .23 4.67 4.15 1.7 9.91 1.7 9.91 12.7 5 8.22 17m1.96-23.91a4.93 4.93 0 00-.58-2.93 4.22 4.22 0 00-2.83-1.76 8.09 8.09 0 00-3.1 0l2.39 3.33a48.16 48.16 0 00-1.06 6.09c-.13 1.05-.12 2.36.79 2.9a2 2 0 002.34-.53 5.69 5.69 0 001.08-2.35 21.66 21.66 0 00.97-4.75z" fill="#ffbe9d"/><path d="M360.25 118.51a5.08 5.08 0 00-.58-2.93 4.22 4.22 0 00-2.84-1.76 8 8 0 00-3.09 0l2.38 3.33a50 50 0 00-1.06 6.09c-.12 1-.12 2.36.8 2.9a2 2 0 002.34-.53 5.67 5.67 0 001.07-2.35 21.68 21.68 0 00.98-4.75z" fill="#ffbe9d"/><path d="M364 122.31a5 5 0 00-.58-2.94 4.22 4.22 0 00-2.83-1.76 8.5 8.5 0 00-3.1 0l2.39 3.33a48.16 48.16 0 00-1.06 6.09c-.13 1.06-.12 2.36.79 2.91a2 2 0 002.34-.54A5.75 5.75 0 00363 127a21.7 21.7 0 001-4.69z" fill="#ffbe9d"/><path d="M356.4 112.31a9.27 9.27 0 01.19 4.44 9.42 9.42 0 01-1.41 4.21c-.15-.06.57-1.9.9-4.29s.17-4.34.32-4.36zm3.84 5.22a9.33 9.33 0 01-1.59 7.49c-.14-.08.67-1.62 1.09-3.68s.34-3.8.5-3.81zM345 112.31a17.2 17.2 0 01.55 2.62c.29 1.65.68 4 1.12 6.77l-.16-.2a13.67 13.67 0 018.28 8 14.1 14.1 0 011 4.79 13.73 13.73 0 01-.31 3.28 4.1 4.1 0 01-.34 1.16 27.07 27.07 0 00.28-4.42 14.36 14.36 0 00-1.08-4.63 13.6 13.6 0 00-3.26-4.78 13.36 13.36 0 00-4.74-2.92h-.14v-.14c-.4-2.77-.72-5.13-.93-6.8a19.08 19.08 0 01-.27-2.73z" fill="#eb996e"/><path d="M343.68 85.46l-.22.09-.64.24-2.36.88-7.76 3-7.75 3-2.36.88-.65.23c-.14.06-.22.08-.22.07l.21-.1.63-.27 2.33-1c2-.79 4.71-1.87 7.73-3s5.78-2.19 7.79-2.9c1-.35 1.81-.63 2.38-.81l.65-.21a.79.79 0 01.24-.1z" fill="#263238"/><path d="M256.83 201.82s12.46-3.41 14.59-3.49c1.63-.05 11.08 1.55 15.43 2.3a3.16 3.16 0 012.67 3.51 2.63 2.63 0 01-.08.3 2.87 2.87 0 01-2.4 1.84 3.34 3.34 0 011.82 3.46c-.34 2.46-3.39 2.53-3.39 2.53s.15.16.36.44a3 3 0 01-2.19 4.71l-1.39.1a2.94 2.94 0 011.42 2.72c-.54 3.23-7.92 2.74-7.92 2.74l-19.82-.38z" fill="#ffbe9d"/><path d="M285.76 196.55c-.24 1-.84 3.29-2.81 4l-10-1.92s7.87-1.44 9.12-2.56a8.82 8.82 0 011.65-1.18 1.44 1.44 0 012.04 1.66z" fill="#ffbe9d"/><path d="M277.71 199.29c0 .17 2 .68 4.53 1s4.59.56 4.62.37-2-.68-4.53-1-4.59-.55-4.62-.37zm1.4 5.94c0 .17 1.68.75 3.89 1s4 .09 4-.09-1.77-.31-3.94-.56-3.91-.53-3.95-.35zm-5-1.49c-.16.07-.05.65.46 1.1s1.09.49 1.14.32-.31-.46-.7-.81-.73-.69-.9-.61zm2.89 7.68c0 .18 1.91.56 4.29.84s4.35.37 4.38.19-1.9-.55-4.3-.84-4.32-.37-4.37-.19zm-5.29-3.55c-.08 0-.26.14-.37.53a2.08 2.08 0 00.21 1.53 2.12 2.12 0 001.21 1c.38.1.63 0 .64-.05s-.82-.42-1.28-1.25-.24-1.7-.41-1.76zm2.86 9.54c0 .18 1.76.38 3.93.44s3.94 0 3.94-.21-1.75-.38-3.92-.44-3.94.03-3.95.21zm-5.11-4.01c-.08 0-.24.17-.29.56a2.53 2.53 0 00.33 1.45c.6 1 1.38 1.45 1.49 1.34s-.42-.82-.92-1.66-.45-1.64-.61-1.69z" fill="#eb996e"/><path d="M217.87 103.29c-.4-3.21-3.92-5.46-7.11-5a8.64 8.64 0 00-6.64 6.3 13.94 13.94 0 001 9.42c1 2.32 2.76 4.61 5.25 5.12a6.81 6.81 0 006.19-2.47 20 20 0 003.3-6.12z" fill="#263238"/><path d="M221.93 102.59a2.53 2.53 0 00-3.2.71 5.44 5.44 0 00-1 3.37 13.63 13.63 0 001.12 5.81 2.08 2.08 0 001.14 1.31 1.49 1.49 0 001.52-.56 3.68 3.68 0 00.67-1.57 18.05 18.05 0 00-.49-10.09m56.9-14.42c5.62-2.75 8.85-5.6 8.38-7.93s-11.78-5.94-14.43-6.92c-6.25-2.32-12.16 3.2-22 5.18-19.17 3.85-33.93 10.87-33 15.68.46 2.32 4.5 3.7 10.7 4.08" fill="#4a98f5"/><path d="M275.24 87.65c5-2.44 8-5 7.43-7-1.52-5.66-15.32-5-32.32-1.54s-30.07 9.6-29.21 13.89c.41 2.06 4 3.28 9.48 3.62" opacity=".4"/><path d="M230.65 94.82a24 24 0 0120.06-27.94c12.69-1.89 24.52 7 27.11 19.55 2.27 11 4.31 22.15 4.48 26.22.5 12.28-6.43 17.44-9.26 19a15.92 15.92 0 01-3.19 1 .08.08 0 00-.06.1l3.48 13.94c1.73 9.17-3 17.67-12.13 19.51s-16.78-4.86-18.69-14z" fill="#ffbe9d"/><path d="M274.07 94.08a2 2 0 01-1.46 2.31 1.87 1.87 0 01-2.32-1.33 2 2 0 011.46-2.31 1.87 1.87 0 012.32 1.33zm1.1-4.16c-.19.29-1.86-.49-3.92-.07s-3.36 1.75-3.63 1.55 0-.59.58-1.2a5.3 5.3 0 012.85-1.55 5.16 5.16 0 013.18.36c.77.36 1.03.77.94.91zm-21.36 8.23a2 2 0 01-1.46 2.31 1.88 1.88 0 01-2.35-1.33 2 2 0 011.46-2.31 1.87 1.87 0 012.35 1.33zm1.19-3.78c-.18.3-1.85-.48-3.91-.07s-3.36 1.76-3.64 1.55c-.13-.09 0-.59.58-1.2a5.45 5.45 0 012.85-1.55 5.15 5.15 0 013.18.37c.71.36 1.02.76.94.9zm10.54 13.78a14 14 0 013.22-1.27c.52-.16 1-.37 1-.74a2.75 2.75 0 00-.66-1.49l-2.37-3.7c-3.3-5.27-5.81-9.65-5.6-9.78s3.07 4 6.38 9.31l2.3 3.73a3.11 3.11 0 01.69 2 1.32 1.32 0 01-.71.94 3.4 3.4 0 01-.87.31 13.35 13.35 0 01-3.38.69z" fill="#263238"/><path d="M269.77 132.68s-7.83 2.25-19-1.74c0 0 5.26 9.89 19.92 5.49zm-4.11-19.38a3.79 3.79 0 00-3.61-.71 3.43 3.43 0 00-2.08 1.72 2.17 2.17 0 00.33 2.49 2.52 2.52 0 002.83.14 7.73 7.73 0 002.32-2.1 2.18 2.18 0 00.47-.73.7.7 0 00-.16-.76" fill="#eb996e"/><path d="M259.76 110.8c.33-.09.78 2.15 3 3.35s4.57.48 4.65.79c.06.13-.44.54-1.44.77a5.69 5.69 0 01-3.86-.53 5 5 0 01-2.39-2.84c-.26-.92-.12-1.52.04-1.54zm-5.31-23.08c-.09.6-2.2.75-4.56 1.53s-4.19 1.83-4.61 1.39c-.19-.21.05-.81.73-1.51a8.31 8.31 0 017-2.22c.99.18 1.47.53 1.44.81zm18.9-2.96c-.27.54-1.79.34-3.5.66s-3.09 1-3.53.52c-.19-.21-.06-.72.49-1.29a5.14 5.14 0 015.65-1c.7.4 1 .85.89 1.11z" fill="#263238"/><path d="M259.63 75.1a13.39 13.39 0 01-8.56 7.57c-2.49.71-5.45.84-7 2.89-1.15 1.5-1.15 3.54-1.41 5.41-.41 2.85.31 6.13-1.86 8-1.7 1.47-3.3 1.43-4.34 3.42s-.84 4.8-.41 7.13 1 6-.91 7.48c-1.78-8.44-6.34-17.47-8.11-25.91a10.31 10.31 0 01-.32-3.82c.5-2.86 3.24-4.72 5.83-6 7.35-3.68 15.45-5.57 23.45-7.43" fill="#263238"/><path d="M281.74 77.92s-9.06-19.41-9.69-20.32-8.23-8.67-22.64-8.44l-11.49 2.31S222.66 60 220.48 64.56s.42 24.12.42 24.12l30.81-13.47 23 .94z" fill="#4a98f5"/><path d="M245.18 47.58l3.17-.64a3.3 3.3 0 013.38 1.35 10.18 10.18 0 011.38 3.09c.95 3.53 6.68 27.87 6.68 27.87l-14.54 2.23-5.61-30.35-4.64 2.06-.09-.9a2.7 2.7 0 01.31-1.58 2.64 2.64 0 011.76-1.31z" fill="#4a98f5"/><path d="M278.11 80.77L275.17 74l-23.93-2.5-25.47 13.41 1.6 8s20.95-13.71 50.74-12.14z" fill="#455a64"/><path d="M272.54 72.3l1.14.73 8.74 4.15s-15.79-2-31.26 1.26S219 90.52 219 90.52l9-8.24a18.1 18.1 0 0111.46-8.14l19.39-4.29a18 18 0 0113.69 2.45z" fill="#4a98f5"/><path d="M280.26 77.91s-.18-.14-.57-.33a9.1 9.1 0 00-1.76-.67 28.41 28.41 0 00-6.84-.94 73.84 73.84 0 00-22.45 3.14c-4.26 1.18-8.35 2.22-12 3.51a92.37 92.37 0 00-9.39 4c-1.3.65-2.45 1.31-3.43 1.93a6.51 6.51 0 00-2.26 2 2.7 2.7 0 00-.38 1.88c.1.44.27.62.29.61a2.66 2.66 0 01.38-2.31 6.41 6.41 0 012.23-1.73c1-.58 2.15-1.18 3.45-1.8 2.61-1.2 5.81-2.57 9.38-3.83s7.69-2.25 12-3.43a80.13 80.13 0 0122.21-3.36 32.5 32.5 0 016.76.65c1.54.34 2.33.77 2.38.68zM278 80.55c2.77 6.19 12.43 15 3.17 23.55 0 0-2.92-14-5.16-19.23a11.32 11.32 0 00-2.68-4.21m-42.82 11.47a12.5 12.5 0 00-10 14.07c.31 1.65 1 3.28.79 5s-1.08 3.07-1.49 4.66c-.81 3.14-1 8.31.11 11.38 2.54 7.3 11.8 16.3 20.19 14.62" fill="#263238"/><path d="M236.72 135.81a5.51 5.51 0 004.89-1.47 10.17 10.17 0 002.59-4.57 17.81 17.81 0 00-3.26-16.09 26.12 26.12 0 00.32-24.7l-11.76 3.48z" fill="#263238"/><path d="M218 110.48a5.17 5.17 0 01-1.86 1.67 9.05 9.05 0 01-5.9 1.29 8.87 8.87 0 01-5.41-2.68 3.69 3.69 0 01-1.15-2.23 9.06 9.06 0 001.41 2 9.31 9.31 0 005.21 2.42 9.44 9.44 0 005.65-1.1c1.32-.74 1.98-1.44 2.05-1.37z" fill="#455a64"/><path d="M217.1 108.9a5 5 0 01-2.07.74 10.61 10.61 0 01-9.81-3.16 5.08 5.08 0 01-1.24-1.82c.07 0 .54.65 1.5 1.56a11.5 11.5 0 009.49 3.06c1.31-.18 2.1-.46 2.13-.38zm25.53-16.68a4.23 4.23 0 01-.07 1.18 16 16 0 01-.75 3.15 17.69 17.69 0 01-16.23 12 15.61 15.61 0 01-3.23-.21 4.08 4.08 0 01-1.15-.29 33.4 33.4 0 004.36.13 18.08 18.08 0 0015.91-11.74 37.42 37.42 0 001.16-4.22zm.37 17.63s-.17.28-.58.69a10 10 0 01-2 1.5 15.53 15.53 0 01-7.87 2 31.3 31.3 0 01-8-1.24c-1-.28-1.8-.52-2.35-.71a3.23 3.23 0 01-.84-.33 25.67 25.67 0 013.28.68 36.84 36.84 0 007.94 1.08 16.49 16.49 0 007.69-1.79 25.93 25.93 0 002.73-1.88z" fill="#455a64"/><path d="M282.25 75.9a3.19 3.19 0 01-.7-.2l-1.94-.7-7.13-2.56-1.84-1.65a11.24 11.24 0 00-2.06-1.62 6.69 6.69 0 00-2.63-.81 11.76 11.76 0 00-3 .28c-4.08.68-8.55 1.63-13.21 2.71-4.33 1-8.47 2-12.25 3a8.38 8.38 0 00-2.61 1 6.33 6.33 0 00-1.88 1.73c-.93 1.45-1.75 2.91-2.53 4.2l-6.93 5.12-1.91 1.38a4.85 4.85 0 01-.68.45 4.19 4.19 0 01.62-.54l1.84-1.46 6.72-5.23v.06c.78-1.32 1.55-2.75 2.51-4.27a6.85 6.85 0 012-1.9 8.85 8.85 0 012.73-1c3.78-1 7.91-2 12.26-3 4.66-1.08 9.14-2 13.25-2.69a11.73 11.73 0 013.07-.25 7 7 0 012.8.88 11.37 11.37 0 012.12 1.7l1.81 1.67h-.06l7.08 2.71 1.91.76a4.9 4.9 0 01.64.23z" fill="#263238"/><path d="M243.58 72.54a4.68 4.68 0 01-.28-1c-.15-.65-.35-1.58-.59-2.74-.47-2.31-1.09-5.51-1.75-9-.31-1.77-.62-3.45-.9-5-.13-.76-.25-1.49-.37-2.18a.93.93 0 00-1.18-.76l-2.57 1a3.34 3.34 0 01-1 .32 4.29 4.29 0 01.9-.5c.6-.3 1.43-.71 2.54-1.21a1.32 1.32 0 011.71 1c.14.69.28 1.42.43 2.18.29 1.54.6 3.22.94 5 .65 3.54 1.21 6.75 1.59 9.08.19 1.16.34 2.11.43 2.76a3.48 3.48 0 01.1 1.05zm13.89-3.09a13.74 13.74 0 01-1.05-2.89c-.55-1.82-1.18-4.36-1.85-7.17s-1.24-5.37-1.63-7.22a17.33 17.33 0 01-.52-3 18.35 18.35 0 01.88 3c.48 1.83 1.11 4.37 1.78 7.18s1.23 5.2 1.7 7.2a25 25 0 01.69 2.9zM282 109.64a16.09 16.09 0 005.94-1.42 12.74 12.74 0 005.13-4 9.63 9.63 0 001.26-7.68 10.08 10.08 0 00-4.52-6.38 63.27 63.27 0 00-6.12-2.67 10.41 10.41 0 01-3.69-2.68 5.68 5.68 0 01-.69-1c-.12-.25-.18-.39-.16-.4a14.9 14.9 0 001 1.31 11 11 0 003.71 2.44 56.64 56.64 0 016.22 2.6 10.41 10.41 0 014.77 6.67 10 10 0 01-1.37 8.08 12.83 12.83 0 01-5.37 4.09 14 14 0 01-4.42 1.12 8.65 8.65 0 01-1.24 0 1.15 1.15 0 01-.45-.08zm-74.85-3.98s-.09 0-.23-.17a4.39 4.39 0 01-.55-.6 6.24 6.24 0 01-1.13-2.75 6.61 6.61 0 01.79-4.35 6.53 6.53 0 019.69-1.46 6.61 6.61 0 012.05 3.91 6.35 6.35 0 01-.27 3 3.57 3.57 0 01-.35.73c-.09.16-.15.24-.16.23s.14-.36.31-1a6.73 6.73 0 00.11-2.85 6.37 6.37 0 00-2-3.61 6.15 6.15 0 00-9 1.35 6.43 6.43 0 00-.84 4 6.71 6.71 0 00.94 2.68c.4.58.67.85.64.89zm31.12 34.54a1.37 1.37 0 01-.42.15c-.28.09-.69.19-1.23.32a27.45 27.45 0 01-4.64.69 15.17 15.17 0 01-6.87-1.06 13.26 13.26 0 01-6.18-5.82 17.33 17.33 0 01-2.09-8.25 24.4 24.4 0 011-6.89 32.25 32.25 0 011.64-4.38c.23-.5.42-.89.56-1.14a1.73 1.73 0 01.23-.38 13.81 13.81 0 01-.6 1.6 38.94 38.94 0 00-1.47 4.4 24.89 24.89 0 00-.91 6.78 17 17 0 002.07 8 12.85 12.85 0 005.91 5.63A15.29 15.29 0 00232 141a32.51 32.51 0 004.61-.52 12.92 12.92 0 011.66-.28z" fill="#263238"/><path d="M216.93 115.51a1.42 1.42 0 01-.12.47 5.51 5.51 0 01-.64 1.27 7.53 7.53 0 01-4.19 3 7.44 7.44 0 01-3.6.16 8.91 8.91 0 01-3.76-1.76 10.14 10.14 0 01-2.86-3.57 11.39 11.39 0 01-1.06-4.8 13.78 13.78 0 013.12-8.79 8.72 8.72 0 016.74-3.42 6.9 6.9 0 014.77 1.88 3.92 3.92 0 011.07 1.56 9.26 9.26 0 00-1.2-1.41 6.9 6.9 0 00-4.64-1.66 8.39 8.39 0 00-6.37 3.35 13.47 13.47 0 00-3 8.49 11 11 0 001 4.58 9.87 9.87 0 002.7 3.42 8.73 8.73 0 003.54 1.71 7.29 7.29 0 003.43-.1 7.58 7.58 0 004.12-2.74 11.75 11.75 0 00.95-1.64z" fill="#263238"/><rect x="162.74" y="223.59" width="354.59" height="234.49" rx="14.57" fill="#455a64"/><path d="M148.88 442.94h384.17v2.72a17.8 17.8 0 01-17.8 17.8H166.68a17.8 17.8 0 01-17.8-17.8v-2.72z" fill="#455a64"/><path fill="#263238" d="M172.26 232.91h334.56v198.02H172.26zm132.82 207.83l4.77 7.58h67.08l4.43-7.58h-76.28z"/><rect x="179.15" y="239.61" width="321.47" height="190.68" rx="3.27" fill="#ebebeb"/><path fill="#fafafa" d="M500.27 430.58H178.81l.34-176.71h321.12v176.71z"/><path d="M205.51 247a2.57 2.57 0 11-2.56-2.57 2.56 2.56 0 012.56 2.57zM190 247a2.57 2.57 0 11-2.56-2.57A2.56 2.56 0 01190 247zm7.42 0a2.57 2.57 0 11-2.56-2.57 2.57 2.57 0 012.56 2.57zm316.86 193.74c0 .13-78.7.23-175.76.23s-175.78-.1-175.78-.23 78.69-.23 175.78-.23 175.76.1 175.76.23z" fill="#263238"/><path d="M380.92 396.09c0 .14-19.28.26-43.06.26s-43.06-.12-43.06-.26 19.28-.26 43.06-.26 43.06.17 43.06.26z" fill="#e0e0e0"/><path fill="#f5f5f5" d="M186.58 350.8h95.93v72.1h-95.93z"/><path fill="#e0e0e0" d="M186.62 422.95l33.46-44.85 20.78 28.02 14.07-15 27.62 31.74-95.93.09zm63.02-50.37a7.55 7.55 0 11-7.56-7.54 7.54 7.54 0 017.56 7.54z"/><path fill="#f5f5f5" d="M393.57 350.91h95.93v72.1h-95.93z"/><path fill="#e0e0e0" d="M393.6 423.06l33.47-44.85 20.78 28.02 14.06-15 27.62 31.74-95.93.09zm63.03-50.37a7.56 7.56 0 11-7.56-7.55 7.56 7.56 0 017.56 7.55zm17.69-36.11a13.61 13.61 0 012.69-.18c1.66 0 4-.08 6.49-.08h2.82l-.25.25c0-1.85.05-3.44.1-4.57a7.46 7.46 0 01.15-1.79 7.72 7.72 0 01.16 1.79c0 1.13.07 2.72.09 4.57v.25h-3.07c-2.53 0-4.83 0-6.49-.08a13.61 13.61 0 01-2.69-.16zm-24 0a69.36 69.36 0 0112 0 69.36 69.36 0 01-12 0zm-24 0a69.36 69.36 0 0112 0 69.36 69.36 0 01-12 0zm-24 0a69.36 69.36 0 0112 0 69.36 69.36 0 01-12 0zm-24 0a69.36 69.36 0 0112 0 69.36 69.36 0 01-12 0zm-24 0a69.36 69.36 0 0112 0 69.36 69.36 0 01-12 0zm-24 0a69.36 69.36 0 0112 0 69.36 69.36 0 01-12 0zm-24 0a69.36 69.36 0 0112 0 69.36 69.36 0 01-12 0zm-24 0a35.32 35.32 0 016-.26 35.22 35.22 0 016 .26 35.22 35.22 0 01-6 .26 35.32 35.32 0 01-6-.26zm-24 0a35.32 35.32 0 016-.26 35.22 35.22 0 016 .26 35.22 35.22 0 01-6 .26 35.32 35.32 0 01-6-.26zm-24 0a35.32 35.32 0 016-.26 35.22 35.22 0 016 .26 35.22 35.22 0 01-6 .26 35.32 35.32 0 01-6-.26zm-24 0a35.32 35.32 0 016-.26 35.22 35.22 0 016 .26 35.22 35.22 0 01-6 .26 35.32 35.32 0 01-6-.26zm-23.98-.01a36.74 36.74 0 016-.25 35.22 35.22 0 016 .26 35.22 35.22 0 01-6 .26 36.74 36.74 0 01-6-.25zm0-24a69.36 69.36 0 010 12 69.36 69.36 0 010-12zm0-24a35.22 35.22 0 01.26 6 35.32 35.32 0 01-.26 6 34.12 34.12 0 01-.26-6 34 34 0 01.26-6zm0-24a35.22 35.22 0 01.26 6 35.32 35.32 0 01-.26 6 34.12 34.12 0 01-.26-6 34 34 0 01.26-6zm20.82-3.18a35.32 35.32 0 01-6 .26 35.22 35.22 0 01-6-.26 34 34 0 016-.26 34.12 34.12 0 016 .26zm24 0a35.32 35.32 0 01-6 .26 35.22 35.22 0 01-6-.26 34 34 0 016-.26 34.12 34.12 0 016 .26zm24 0a35.32 35.32 0 01-6 .26 35.22 35.22 0 01-6-.26 34 34 0 016-.26 34.12 34.12 0 016 .26zm24 0a35.32 35.32 0 01-6 .26 35.22 35.22 0 01-6-.26 34 34 0 016-.26 34.12 34.12 0 016 .26zm24 0a69.36 69.36 0 01-12 0 34 34 0 016-.26 34.12 34.12 0 016 .26zm24 0a69.36 69.36 0 01-12 0 69.36 69.36 0 0112 0zm24 0a69.36 69.36 0 01-12 0 69.36 69.36 0 0112 0zm24 0a69.36 69.36 0 01-12 0 69.36 69.36 0 0112 0zm24 0a69.36 69.36 0 01-12 0 69.36 69.36 0 0112 0zm24 0a69.36 69.36 0 01-12 0 69.36 69.36 0 0112 0zm24 0a69.36 69.36 0 01-12 0 69.36 69.36 0 0112 0zm24 0a69.36 69.36 0 01-12 0 69.36 69.36 0 0112 0zm15.16 8.83a35.32 35.32 0 01-.26-6v-2.83l.23.23a14.39 14.39 0 01-3.16-.23 13.67 13.67 0 013.16-.23h.23v3.07a34.12 34.12 0 01-.2 5.99zm0 24a35.32 35.32 0 01-.26-6 35.32 35.32 0 01.26-6 34.12 34.12 0 01.26 6 34.12 34.12 0 01-.26 6zm0 24a69.36 69.36 0 010-12 69.36 69.36 0 010 12zM380.92 420.4c0 .15-19.28.26-43.06.26s-43.06-.11-43.06-.26 19.28-.26 43.06-.26 43.06.12 43.06.26zm0-11.12c0 .14-19.28.26-43.06.26s-43.06-.12-43.06-.26 19.28-.26 43.06-.26 43.06.12 43.06.26z"/><path fill="#263238" d="M111.98 323.53h5.18v139.73h-5.18z"/><circle cx="114.57" cy="298.39" r="30.12" fill="#4a98f5"/><path d="M141.69 298a2.19 2.19 0 01-.05-.44c0-.31 0-.74-.09-1.28 0-.29 0-.6-.06-.95s-.12-.72-.18-1.13a18.71 18.71 0 00-.57-2.79 25.79 25.79 0 00-3-7.18 27.11 27.11 0 00-6.86-7.63 26.82 26.82 0 00-25.45-3.84 27.77 27.77 0 00-3.5 1.54c-.57.31-1.12.67-1.68 1a14.62 14.62 0 00-1.62 1.12 30.84 30.84 0 00-3 2.59 29.39 29.39 0 00-2.64 3.12 26 26 0 00-3.83 7.4 28.51 28.51 0 00-1.44 8.47 28.88 28.88 0 001.38 8.47 26.08 26.08 0 003.84 7.41 31.53 31.53 0 002.63 3.12 31 31 0 003.05 2.59 14.62 14.62 0 001.62 1.12c.56.33 1.11.69 1.68 1a26.39 26.39 0 003.5 1.54 26.94 26.94 0 0032.31-11.47 25.63 25.63 0 003-7.17 18.81 18.81 0 00.57-2.8c.07-.4.14-.78.18-1.13s0-.66.06-.94q.06-.83.09-1.29a2.19 2.19 0 01.05-.44 2.44 2.44 0 010 .44v2.29c0 .35-.1.72-.15 1.14a20.08 20.08 0 01-.53 2.82 25.86 25.86 0 01-3 7.27 27.29 27.29 0 01-18.36 12.93 27.35 27.35 0 01-14.36-1.16 28.12 28.12 0 01-3.58-1.56c-.57-.31-1.13-.67-1.7-1a14.24 14.24 0 01-1.67-1.18 29.65 29.65 0 01-3.11-2.63 31.48 31.48 0 01-2.69-3.17 26.77 26.77 0 01-3.92-7.54 27.18 27.18 0 010-17.28 26.77 26.77 0 013.92-7.54 31.55 31.55 0 012.69-3.16 29.75 29.75 0 013.11-2.68 13 13 0 011.65-1.13c.57-.34 1.13-.71 1.7-1a29.62 29.62 0 013.58-1.56 27.33 27.33 0 0114.36-1.15A27.24 27.24 0 01138 284.1a25.79 25.79 0 013 7.28 19.82 19.82 0 01.53 2.82c.05.41.12.79.15 1.14s0 .66 0 1v1.29a2.44 2.44 0 01.01.37z" fill="#fff"/><path fill="#fafafa" d="M98.89 294.63h31.37v6.54H98.89z"/><path fill="#fff" d="M225.006 283.326l293.396-23.554 6.838 85.176-293.396 23.554z"/><path d="M525.26 344.91c-.1-1.23-2.59-31.49-7-85.16l.17.15-293.37 23.67.23-.28c2.36 29.4 4.66 58 6.84 85.17l-.27-.23 209.7-16.73 83.7-6.59-1.43.13-4.24.36-16.45 1.35-61.39 5-209.86 17h-.25v-.26c-2.19-27.15-4.49-55.77-6.85-85.17v-.26h.26l293.35-23.49h.17v.16c4.22 53.68 6.6 83.95 6.69 85.18z" fill="#263238"/><path fill="#4a98f5" d="M233.057 291.993l92.65-6.485 4.875 69.64-92.65 6.485z"/><path d="M440.82 344.88a35.57 35.57 0 01-6 .76l-.28-.24v-1.19c0-.38-.06-.75-.08-1.12 0-.66-.07-1.29-.11-1.91a6.1 6.1 0 010-1.76 6 6 0 01.33 1.73c.07.61.14 1.24.22 1.9 0 .36.07.74.1 1.12l.06.59v.59l-.28-.24a35.92 35.92 0 016.04-.23zm27.18-2.29a46.18 46.18 0 01-6.76.83 43 43 0 01-6.81.31 46.18 46.18 0 016.76-.83 43 43 0 016.81-.31zm27.1-2.29a46.18 46.18 0 01-6.76.83 44.45 44.45 0 01-6.81.31 46.18 46.18 0 016.76-.83 43 43 0 016.81-.31zm19.04-7.63a33.55 33.55 0 01.77 5.95c-.48.57-.14.16-.24.29h-1.21l-1.12.08-1.9.11a6.19 6.19 0 01-1.77 0 6.18 6.18 0 011.74-.33l1.89-.22 1.12-.11.6-.05h.6c-.1.12.24-.28-.23.28a35.36 35.36 0 01-.25-6zm-1.89-22.39a59.55 59.55 0 011 11.19 30.65 30.65 0 01-.73-5.57 31.41 31.41 0 01-.27-5.62zm-1.89-22.38a30.09 30.09 0 01.74 5.57 30.81 30.81 0 01.21 5.62 29.83 29.83 0 01-.73-5.58 31.3 31.3 0 01-.22-5.61zm-7.43-16.67a35.78 35.78 0 016-.76l.28.24v1.19c0 .38.05.75.08 1.12 0 .66.07 1.29.1 1.91a5.93 5.93 0 010 1.76 6 6 0 01-.33-1.73c-.07-.61-.14-1.24-.22-1.9 0-.36-.07-.74-.11-1.12l-.05-.59v-.59l.29.24a36 36 0 01-6.04.23zm-27.13 2.29a45.68 45.68 0 016.76-.83 42.86 42.86 0 016.8-.31 45.68 45.68 0 01-6.76.83 42.84 42.84 0 01-6.8.31zm-27.14 2.29a45.68 45.68 0 016.76-.83 44.43 44.43 0 016.81-.31 46.2 46.2 0 01-6.77.83 42.84 42.84 0 01-6.8.31zm-19.05 7.63a35.34 35.34 0 01-.76-5.95c.47-.57.13-.16.24-.28h.61l.59-.05 1.12-.08 1.91-.11a6.19 6.19 0 011.77 0 6.3 6.3 0 01-1.74.33l-1.9.22-1.12.11-.59.05h-.61l.24-.28a33.52 33.52 0 01.24 6.04zm1.89 22.39a31 31 0 01-.73-5.58 29.66 29.66 0 01-.21-5.61 30.65 30.65 0 01.73 5.57 29.76 29.76 0 01.21 5.62zm1.89 22.38a30.65 30.65 0 01-.73-5.57 29.76 29.76 0 01-.21-5.62 30.86 30.86 0 01.73 5.58 29.66 29.66 0 01.21 5.61z" fill="#e0e0e0"/><path fill="#4a98f5" d="M237.68 360.51l29.21-45.47 21.92 25.59 12.53-15.41 28.76 28.72-92.42 6.57zM295 307.72a7.3 7.3 0 11-7.8-6.76 7.31 7.31 0 017.8 6.76z"/><path d="M237.68 360.51l29.21-45.47 21.92 25.59 12.53-15.41 28.76 28.72-92.42 6.57zM295 307.72a7.3 7.3 0 11-7.8-6.76 7.31 7.31 0 017.8 6.76z" opacity=".2"/><path d="M421.51 296.44c0 .15-17.95 1.92-40.12 4s-40.16 3.59-40.18 3.44 18-1.91 40.13-4 40.16-3.58 40.17-3.44zm2.33 13.36c0 .15-18.16 1.94-40.57 4s-40.61 3.63-40.63 3.49 18.15-1.94 40.58-4 40.6-3.63 40.62-3.49zm2.32 13.37c0 .14-18.35 1.95-41 4s-41 3.67-41 3.53 18.34-1.95 41-4.05 40.99-3.65 41-3.48zm.48 13.24c0 .15-18.37 2-41.05 4.06s-41.1 3.67-41.11 3.53 18.37-2 41.06-4.05 41.09-3.68 41.1-3.54z" fill="#263238"/><path fill="#4a98f5" d="M339.402 291.015l42.274-3.394.268 3.349-42.273 3.394z"/><path d="M472.82 318.51c-.14 0-.69-4.92-1.22-11s-.84-11.05-.69-11.06.68 4.92 1.21 11 .88 11.05.7 11.06z" fill="#e0e0e0"/><path d="M482.06 306.94c0 .14-4.74.56-10.6.93s-10.63.56-10.63.42a104.23 104.23 0 0110.6-.94c5.86-.35 10.62-.55 10.63-.41z" fill="#e0e0e0"/><path d="M518.42 259.73s-.24-.07-.71-.25l-2-.78-7.88-3.06-29.13-11.41-97.28-38.34h.21L369.32 212l-102 50.53-30.92 15.25-8.4 4.12-2.2 1.06c-.49.24-.75.35-.75.35l.73-.4 2.17-1.1 8.38-4.21 30.86-15.41 101.92-50.67 12.31-6.11h.21l97.22 38.49 29 11.56 7.84 3.15 2 .83zM458.68 120a6.69 6.69 0 00-12.15-.08l-10.45.86 10.56 20.83 6.62-12.18a6.38 6.38 0 002.1-.57 6.69 6.69 0 003.32-8.86zm-60.32-30.16l6.82-2.91-16.45-4.14a6.69 6.69 0 10-1.55 8.91l15.62 9.56z" fill="#263238"/><path d="M530 294.3v-.14L417.11 83.72l-.64-1.19-17.78 8.11L483.82 315l.05.14 50.7 80.59 1-.15 1.17-.17.92-.14-10.49-16.67 6.13-15.79 16.23 6 7.15 23.65.85-.12 1.08-.16 1-.14zm7.3 34.09l-20.26-5.2 11.75-22.95zm-22.05-5.66l-24.92-6.4 36.78-16.76zm9.41-32.36l-25.89-7.16 10.62-21.31zM497 282.73l-22.79-6.3 33.55-15.29zm9.23-26.73l-23.86-8.32 8.51-20.3zm-25.56-8.91l-21-7.31 29.69-13.52zm6.83-26l-21.71-9.38 6.43-19.12zM464.13 211l-18.6-8 25.15-11.46zm5-24.21l-.12.06-19.53-10.56 4.34-18.05zm-19.26-35.89l-17-11.44 2.25-16.12zm-18.7-12.56l-13.69-9.2 16-7.29zM416.66 89l14.46 27-14.87-12.53zm-2.76 33.63L403.4 95l11 9.28zm.59-20.68L402.68 92l12.25-5.58zm1.69 3.79l14.31 12-14.85 6.77zm.93 25.34l13.79 9.26-2.78 19.79zm15.45 10.38l16.57 11.13-19.37 8.82zm19.77 15.11l-4.52 18.81-16.81-9.11zm-21 11.94l16.06 8.68-4.95 20.6zm17.7 9.57l17.91 9.68-22.75 10.34zm-4 26.62l18.51 8-7.27 21.63zm20.17 8.71l20.75 9-28.07 12.78zm-6.24 28l21 7.32-9.56 22.83zm22.71 7.92l22.72 7.92-32.18 14.65zm-8.86 28.59l23.38 6.46-11.88 23.84zm25.19 6.94l25.41 7-37.4 17zm-9 33l25.48 6.54-9.59 18.72zm27.27 7l20.73 5.32-30.72 14zm9.78 51.9l-13.61-21.64 19.24 7.13zm6.28-16.19l-21.46-8-.53-.83 30-13.65.31 1zm1.69.62l7.4-19.19 7.48 24.74z" fill="#263238"/><path d="M381.35 183.29v-6.98c0-4.57 0-11.29-.06-19.9 0-17.23-.05-42-.09-72.3v-.19h.19L413 80.57h.11l.08.09 82.45 92.15 120 134.32L652 347.86l9.86 11.1 2.55 2.89c.57.65.86 1 .86 1s-.31-.32-.9-1-1.46-1.6-2.59-2.86c-2.28-2.52-5.62-6.24-9.93-11l-36.44-40.64-120.15-134.2L412.86 81l.19.08-31.68 3.28.18-.2c0 30.28-.06 55.07-.09 72.3v25.1c0 1.2-.11 1.73-.11 1.73z" fill="#263238"/><rect x="378.49" y="155.04" width="5.06" height="10.85" rx=".38" fill="#263238"/><path d="M389.61 167.57H373a1.85 1.85 0 01-1.85-1.85 1.85 1.85 0 011.85-1.85h16.62a1.85 1.85 0 011.85 1.85 1.85 1.85 0 01-1.86 1.85zm-7.1 29.72l-.06-2.37L380 196a13.59 13.59 0 000 2.63 1.12 1.12 0 00.09.41 1.18 1.18 0 00.6.41 4.79 4.79 0 012.51 2.2 2.89 2.89 0 01-1.65 4 3 3 0 01-3.74-2c0-.41 0-1-.56-1-.81-.08-1.16 1.1-1.14 1.72.13 3.59 3.51 4.73 4.94 4.78a5.2 5.2 0 002.8-.6 5.42 5.42 0 002.62-3.71c.78-4.72-4.21-7.25-3.96-7.55z" fill="#263238"/><path d="M384.6 196.11l10.62-25.55a3.51 3.51 0 00-3.24-4.85h-21.23a3.5 3.5 0 00-3.24 4.85l10.61 25.55a3.51 3.51 0 006.48 0z" fill="#e0e0e0"/><path d="M371.83 167.52l-2.75 2.74c0 .1 0 .21.05.31l.9 2.16 5.21-5.21zm10.25 0h-3.42l-7.63 7.63 1.01 2.41 10.04-10.04zm7.3 13.2l2.42-5.84-14.75 14.75 1 2.41 11.33-11.32zm-2.38 5.85l-7.89 7.89.26.64a2.14 2.14 0 001.29 1.23l3.91-3.92zm1.91-19.05h-3.41l-12.46 12.45 1 2.42 14.87-14.87zm4.84 1.99a2.06 2.06 0 00-1.57-1.84L375 184.8l1 2.42z" fill="#4a98f5"/><path d="M654.77 357.34h17.84a2.64 2.64 0 012.64 2.64v8.14h-23.12V360a2.64 2.64 0 012.64-2.66zm-43.04 8.1h-3.79V342.9a9.76 9.76 0 01.46-2.94l1.91-5.9a.14.14 0 01.25 0l2.23 4-.59 1.83a9.91 9.91 0 00-.47 3z" fill="#263238"/><path d="M705.14 369.54a8.25 8.25 0 00-6.19-5l-94.8-.05v-15.75a3.83 3.83 0 00-3.84-3.83H554.5a3.83 3.83 0 00-3.65 2.66l-1.37 4.34h5.1a4 4 0 013.06 1.42 3.76 3.76 0 01.8 3.2l-4.9 23.25a4 4 0 01-3.87 3.07h-9.73a15.33 15.33 0 00.26 4.43l.54 2.33-25.08 4.93a1.05 1.05 0 00-.82.8l-2.36 6.34a3.85 3.85 0 00-.34.91c-.5 2.09-.13 5.59 1.13 5.59h26.87l-1.14 1.36-1.52 4.72h170.69c.04-15.26-.36-38.26-3.03-44.72zm-118.31-14.42L584.31 378c0 .29-.08.58-.13.86a10.06 10.06 0 01-10 7.86h-11.26a3.47 3.47 0 01-3.39-4.2l5.3-27.46a3.86 3.86 0 013.77-3.08H584a2.89 2.89 0 012.87 3.21z" fill="#4a98f5"/><path d="M628.81 425.64l-72.65 1c-.47 0-1.31-1.4-1.31-1.87v-8.11a.86.86 0 01.86-.86h73.1a.85.85 0 01.85.86v8.11a.85.85 0 01-.85.87z" fill="#455a64"/><path d="M586.83 355.12L584.31 378c0 .29-.08.57-.13.86a10 10 0 01-10 7.85h-11.24a3.48 3.48 0 01-3.39-4.21l5.3-27.46a3.87 3.87 0 013.77-3.08H584a2.9 2.9 0 012.87 3.22z" fill="#4a98f5"/><g clip-path="url(#a)" fill="#4a98f5"><path d="M708.23 416.24a3.8 3.8 0 00-.23-1.83H537.69a3.91 3.91 0 00-.24 1.83z" style="mix-blend-mode:screen"/><path d="M550.85 347.56l-10.25 31.85a15.24 15.24 0 00-.4 7.87l4.39 20.36h59.56v-58.9a3.84 3.84 0 00-3.84-3.84H554.5a3.85 3.85 0 00-3.65 2.66z"/></g><path d="M562.94 386.65a3.47 3.47 0 01-3.39-4.2l5.3-27.46a3.86 3.86 0 013.77-3.08H584a2.88 2.88 0 012.15 1 2.91 2.91 0 01.72 2.25L584.31 378c0 .29-.08.58-.13.86a10.06 10.06 0 01-10 7.86zm-23-3.75a14.34 14.34 0 01.68-3.3l8.9-27.64h5.09a4 4 0 013.06 1.41 3.78 3.78 0 01.81 3.21l-4.91 23.24a4 4 0 01-3.86 3.08z" fill="#455a64"/><path d="M708.31 418.77H537.67c-1.3 0-1.3-4.72 0-4.72h170.64c1.31 0 1.31 4.72 0 4.72zM604.3 365.74v1c0 .69 0 1.64-.06 2.84-.08 2.51-.19 6.07-.32 10.45s-.34 9.68-.54 15.5c-.06 1.46-.11 3-.17 4.48a10.5 10.5 0 01-1 4.64 6.36 6.36 0 01-3.93 3 17.59 17.59 0 01-5 .6l-34.51-.65-10.45-.26-2.84-.1h-.74a.79.79 0 01-.25 0 .67.67 0 01.25 0h3.58l10.46.1 34.5.49a17 17 0 004.86-.56 5.85 5.85 0 003.63-2.7 10 10 0 001-4.42c.07-1.52.13-3 .19-4.48.24-5.82.46-11.07.65-15.49s.37-7.94.49-10.45c.06-1.2.12-2.15.15-2.84 0-.3 0-.54.06-.73a.7.7 0 01-.01-.42z" fill="#263238"/><path d="M555.67 407.88c-.15 0-.26-5-.26-11.17s.11-11.18.26-11.18.26 5 .26 11.18-.12 11.17-.26 11.17zm8.93-62.79a11.59 11.59 0 01-.19 1.61c-.15 1-.4 2.53-.73 4.37-.65 3.68-1.64 8.75-2.88 14.31s-2.52 10.58-3.5 14.18c-.49 1.81-.9 3.26-1.21 4.26a8.85 8.85 0 01-.52 1.54 11.11 11.11 0 01.33-1.59c.27-1.1.62-2.55 1.05-4.3.88-3.63 2.09-8.64 3.34-14.2s2.29-10.61 3-14.27l.89-4.33a8.05 8.05 0 01.42-1.58z" fill="#263238"/><path d="M584.35 395.74a3.23 3.23 0 00.93-.38 1.78 1.78 0 00.64-.93 2 2 0 00-.18-1.44 1.6 1.6 0 00-1.48-.78h-7.46a1.55 1.55 0 00-1.52 1.43 1.58 1.58 0 001 1.73 1.43 1.43 0 00.5.09h3.67c1.21 0 2.19.05 2.86.08a3.85 3.85 0 011.05.1 3.85 3.85 0 01-1.05.1c-.67 0-1.65.06-2.86.08h-3.65a2.11 2.11 0 01-.66-.1 2.09 2.09 0 01-1.37-2.23 2 2 0 012-1.91h7.46a2 2 0 011.8 1 2.06 2.06 0 01.24.91 2.2 2.2 0 01-.1.81 1.9 1.9 0 01-.81 1 1.58 1.58 0 01-.76.25c-.16.23-.25.2-.25.19z" fill="#4a98f5"/><path d="M697.09 371.2c0 .15-7 .26-15.58.26s-15.58-.11-15.58-.26 7-.26 15.58-.26 15.58.12 15.58.26zm0 3.1c0 .15-7 .27-15.58.27s-15.58-.12-15.58-.27 7-.26 15.58-.26 15.58.12 15.58.26zm0 3.11c0 .14-7 .26-15.58.26s-15.58-.12-15.58-.26 7-.26 15.58-.26 15.58.11 15.58.26zm0 3.1c0 .14-7 .26-15.58.26s-15.58-.12-15.58-.26 7-.26 15.58-.26 15.58.11 15.58.26zm0 3.1c0 .14-7 .26-15.58.26s-15.58-.12-15.58-.26 7-.26 15.58-.26 15.58.11 15.58.26zm0 3.1c0 .14-7 .26-15.58.26s-15.58-.12-15.58-.26 7-.26 15.58-.26 15.58.11 15.58.26zm0 3.1c0 .14-7 .26-15.58.26s-15.58-.12-15.58-.26 7-.26 15.58-.26 15.58.11 15.58.26zM520.2 463.46c-9.35 0-17.22-9-17.22-18.38s8.23-17.24 17.58-17.24L671.19 421a20.24 20.24 0 0118.89 10.54 20 20 0 011.68 13.95c-4 18.2-19.11 18-25 17.59s-146.56.38-146.56.38z" fill="#263238"/><circle cx="520.2" cy="444.97" r="14.07" fill="#455a64"/><circle cx="670.24" cy="442.11" r="18.2" fill="#455a64"/><path d="M672.27 424.49l-.39.06-1.15.13-4.42.44c-3.85.38-9.41.88-16.3 1.44-13.76 1.13-32.8 2.44-53.85 3.37s-40.15 1.3-54 1.38H525.8l-4.44-.06h-1.16a1.65 1.65 0 01-.39 0h5.99l16.36-.16c13.8-.18 32.88-.61 53.93-1.53s40.09-2.18 53.85-3.22l16.31-1.27 4.43-.35 1.16-.07a1.64 1.64 0 01.43-.16zm-5.79 34.1c0 .14-32.75.26-73.15.26s-73.15-.12-73.15-.26 32.74-.26 73.15-.26 73.15.11 73.15.26z" fill="#455a64"/><path d="M545.29 407.39a34.08 34.08 0 01-1-3.54c-.61-2.19-1.5-5.21-2.4-8.58a69.84 69.84 0 01-1.88-8.72 20 20 0 01-.16-2.71 3.33 3.33 0 01.13-1c.08 0 0 1.41.39 3.64s1.12 5.3 2 8.65 1.74 6.39 2.26 8.62c.26 1.11.46 2 .56 2.64a3.47 3.47 0 01.1 1z" fill="#4a98f5"/><path d="M660.22 453.35a4.77 4.77 0 01-1.05-.69 12.62 12.62 0 01-2.34-2.47 14.09 14.09 0 01-2.19-4.57 13.22 13.22 0 012.3-11.84 14.23 14.23 0 013.74-3.41 12.68 12.68 0 013.11-1.41 4.86 4.86 0 011.22-.25 20.4 20.4 0 00-4.13 2 14.72 14.72 0 00-3.56 3.39 13.09 13.09 0 00-2.22 11.43 14.15 14.15 0 002 4.47 19.45 19.45 0 003.12 3.35z" fill="#fafafa"/><path d="M581.16 367.84a97.53 97.53 0 01-7.82 6 91.53 91.53 0 01-8.12 5.55 97.53 97.53 0 017.82-6 91.53 91.53 0 018.12-5.55zm1.2-4.25a70.37 70.37 0 01-6.81 5.08 69.22 69.22 0 01-7.11 4.65 72.37 72.37 0 016.81-5.08 70 70 0 017.11-4.65zM553 370.15a18 18 0 01-3.45 2.72 18.85 18.85 0 01-3.76 2.3 19.25 19.25 0 013.46-2.72 18.63 18.63 0 013.75-2.3zm2.05-3.98a52.65 52.65 0 01-8.21 6.37 51.43 51.43 0 018.21-6.37z" fill="#fff"/><path d="M586.45 390.5a60.22 60.22 0 01-11.18 0 60.22 60.22 0 0111.18 0z" fill="#4a98f5"/><path d="M517.4 456.91a4.26 4.26 0 01-1.22-.26 11.66 11.66 0 01-3.08-1.51 13.28 13.28 0 01-3.55-3.64 12 12 0 01-.85-12 13.06 13.06 0 013-4.1 11.46 11.46 0 012.84-1.93 5 5 0 011.17-.43 17.66 17.66 0 00-3.75 2.63 13.25 13.25 0 00-2.83 4 11.79 11.79 0 00.81 11.55 13.23 13.23 0 003.37 3.6 17.36 17.36 0 004.09 2.09z" fill="#fafafa"/><path d="M538.74 401.4c0 .14-5.42.26-12.11.26s-12.12-.12-12.12-.26 5.42-.26 12.12-.26 12.11.12 12.11.26z" fill="#fff"/><path d="M429.52 105.1l-9.12-19.59a12.1 12.1 0 00-16.08-5.86 12.1 12.1 0 00-5.86 16.08l9.13 19.58a.73.73 0 001 .36l20.6-9.6a.73.73 0 00.33-.97z" fill="#4a98f5"/><path fill="#e0e0e0" d="M74.76 368.59h5.14v94.49h-5.14z"/><path d="M82.53 365.35a5.18 5.18 0 11-5.18-5.18 5.18 5.18 0 015.18 5.18z" fill="#4a98f5"/><path fill="#e0e0e0" d="M176.9 368.59h5.14v94.49h-5.14z"/><path d="M184.67 365.35a5.18 5.18 0 11-5.18-5.18 5.18 5.18 0 015.18 5.18zM60.09 377.71h131.69v23.56H60.09z" fill="#4a98f5"/><path fill="#f5f5f5" d="M74.99 377.7l-.23.4-13.53 23.17h-1.14V377.7h14.9zm33.29 0L94.5 401.27H76.51l5.47-9.36 8.3-14.21h18zm33.27 0l-13.77 23.57h-18l13.77-23.57h18zm33.26.01l-13.77 23.56h-17.99l13.77-23.56h17.99zm16.97 0v23.56h-15.46l13.78-23.56h1.68z"/><path fill="#4a98f5" d="M60.09 414.1h131.69v23.56H60.09z"/><path fill="#f5f5f5" d="M74.99 414.11l-.23.39-13.53 23.17h-1.14v-23.56h14.9zm33.29 0L94.5 437.67H76.51l5.47-9.36 8.3-14.2h18zm33.27 0l-13.77 23.56h-18l13.77-23.56h18zm33.26 0l-13.77 23.56h-17.99l13.77-23.56h17.99zm16.97 0v23.56h-15.46l13.78-23.56h1.68z"/><path d="M191.78 401.27v-6.17c0-4-.05-9.88-.08-17.39l.14.13L60.1 378l.26-.26v23.56l-.26-.26 93.75.11 27.8.08h10.14-10.02l-27.74.07-93.93.11h-.26v-23.97h.27l131.68.13h.13v.14c0 7.54-.06 13.44-.07 17.47v5.71c0 .28-.07.38-.07.38zm0 36.4v-6.17c0-4-.05-9.88-.08-17.4l.14.14-131.68.12.26-.26v23.57l-.26-.26 93.75.11 27.8.08h10.14-10.02l-27.74.08-93.93.11h-.26v-23.95h.27l131.68.13h.13v.13c0 7.55-.06 13.45-.07 17.48v5.71c0 .28-.13.38-.13.38zm510 25.79c0 .14-145.42.26-324.76.26s-324.8-.12-324.8-.26 145.39-.26 324.8-.26 324.76.11 324.76.26z" fill="#263238"/></svg>