<svg xmlns="http://www.w3.org/2000/svg" width="1920" height="1000" preserveAspectRatio="none"><g mask="url(&quot;#SvgjsMask1139&quot;)" fill="none"><path d="M1180.51 963.41h53.43v35.61h-53.43zM130.17 389.94h68.22v68.22h-68.22z" fill="rgba(242, 201, 76, 0.1)"/><path d="M1053.5 468.94h90.81v31.02h-90.81z" stroke="rgba(242, 201, 76, 0.1)"/><path d="M159.21 159.14h.97v46.97h-.97z" stroke="rgba(74, 152, 245, 0.1)"/><path d="M1223.75 116.51a54.52 54.52 0 10-58.05-92.31zM82 640.64h80.02v61.06H82z" fill="rgba(74, 152, 245, 0.1)"/><path d="M699.49 741.22a19.64 19.64 0 10-31.31-23.72z" fill="rgba(131, 108, 203, 0.1)"/><path d="M1597.44 806.89h59.8v59.8h-59.8z" fill="rgba(74, 152, 245, 0.1)"/><path d="M580.52 599.76h42.23v66.12h-42.23z" stroke="rgba(74, 152, 245, 0.1)"/><path d="M1628.26 929.66a34.14 34.14 0 1062.84-26.72z" stroke="rgba(131, 108, 203, 0.1)"/><path d="M1088.12 107.59a14.16 14.16 0 10-27.64-6.21z" fill="rgba(74, 152, 245, 0.1)"/><path d="M1850.31 929.75h4.53v24.09h-4.53z" stroke="rgba(242, 201, 76, 0.1)"/><path d="M414.18 641.76h55.45v45.72h-55.45z" stroke="rgba(74, 152, 245, 0.1)"/><path d="M178.42 192.68h62.79v61.03h-62.79z" fill="rgba(74, 152, 245, 0.1)"/><path d="M1617.86 684.39a16.32 16.32 0 10-25.97 19.76z" stroke="rgba(242, 201, 76, 0.1)"/><path d="M1215.81 253.93a60.89 60.89 0 10-114.14 42.44z" fill="rgba(242, 201, 76, 0.1)"/><path d="M1833.8 90.75a91.3 91.3 0 10-180.14-29.82z" fill="rgba(131, 108, 203, 0.1)"/><path d="M1021.51 531.58h15.05v15.05h-15.05z" fill="rgba(242, 201, 76, 0.1)"/><path d="M1899.93 597.8h95.58v4.12h-95.58z" fill="rgba(74, 152, 245, 0.1)"/><path d="M208.9 175.91h16.72v16.72H208.9zm928.81 431.87a85.36 85.36 0 10170.72 0 85.36 85.36 0 10-170.72 0z" fill="rgba(131, 108, 203, 0.1)"/><path d="M1272.51 674.72a27.43 27.43 0 1054.86 0 27.43 27.43 0 10-54.86 0z" fill="rgba(131, 108, 203, 0.1)"/><path d="M1273.75 627.81a83.64 83.64 0 10167.28 0 83.64 83.64 0 10-167.28 0z" fill="rgba(242, 201, 76, 0.1)"/><path d="M1424.5 331.16h48.96v48.96h-48.96z" fill="rgba(131, 108, 203, 0.1)"/></g><defs><mask id="SvgjsMask1139"><path fill="#fff" d="M0 0h1920v1000H0z"/></mask></defs></svg>