<svg width="31" height="34" viewBox="0 0 31 34" fill="none" xmlns="http://www.w3.org/2000/svg">
<path d="M3 6.8947L5.01057 21.3802C5.14782 22.369 5.99325 23.1052 6.99158 23.1052L26.0084 23.1052C27.0067 23.1052 27.8522 22.369 27.9894 21.3802L29.7632 8.60092C29.8883 7.69914 29.1878 6.8947 28.2774 6.8947L3 6.8947ZM3 6.8947L2.47235 2.74753C2.34525 1.74861 1.49531 0.999962 0.488341 0.999962H0" stroke="#D70018" stroke-width="2"/>
<path d="M11.0528 30.2106C11.0528 28.9025 9.99238 27.8422 8.68434 27.8422C7.3763 27.8422 6.31592 28.9025 6.31592 30.2106C6.31592 31.5186 7.3763 32.579 8.68434 32.579C9.99238 32.579 11.0528 31.5186 11.0528 30.2106Z" stroke="#D70018" stroke-width="2"/>
<path d="M26.8421 30.2106C26.8421 28.9025 25.7817 27.8422 24.4736 27.8422C23.1656 27.8422 22.1052 28.9025 22.1052 30.2106C22.1052 31.5186 23.1656 32.579 24.4736 32.579C25.7817 32.579 26.8421 31.5186 26.8421 30.2106Z" stroke="#D70018" stroke-width="2"/>
</svg>