<svg width="32" height="32" viewBox="0 0 32 32" fill="none" xmlns="http://www.w3.org/2000/svg">
<path d="M31 16C31 7.71573 24.2843 1 16 1C7.71573 1 1 7.71573 1 16C1 24.2843 7.71573 31 16 31C24.2843 31 31 24.2843 31 16Z" stroke="#D70018" stroke-width="2"/>
<path d="M20.5 13C20.5 15.4853 18.4852 17.5 16 17.5C13.5148 17.5 11.5 15.4853 11.5 13C11.5 10.5147 13.5148 8.5 16 8.5C18.4852 8.5 20.5 10.5147 20.5 13Z" stroke="#D70018" stroke-width="2"/>
<path d="M25 28C25 24.6863 20.9706 22 16 22C11.0294 22 7 24.6863 7 28" stroke="#D70018" stroke-width="2" stroke-linecap="round"/>
</svg>