<svg width="32" height="32" viewBox="0 0 32 32" fill="none" xmlns="http://www.w3.org/2000/svg">
<path d="M1 3V29C1 30.1046 1.89543 31 3 31H29C30.1046 31 31 30.1046 31 29V3C31 1.89543 30.1046 1 29 1H3C1.89543 1 1 1.89543 1 3Z" stroke="#D70018" stroke-width="2"/>
<path d="M11 26L21 26" stroke="#D70018" stroke-width="2" stroke-linecap="round"/>
<path d="M11.8071 14.0451L15.8529 11.1068C15.9406 11.0431 16.0594 11.0432 16.147 11.107L20.1796 14.0441C20.3449 14.1644 20.5768 14.0464 20.5768 13.842V1.25C20.5768 1.11193 20.4649 1 20.3268 1H11.6602C11.5221 1 11.4102 1.11193 11.4102 1.25V13.8428C11.4102 14.047 11.6418 14.1651 11.8071 14.0451Z" stroke="#D70018" stroke-width="2"/>
</svg>