<svg fill="none" height="48" width="120" xmlns="http://www.w3.org/2000/svg"><clipPath id="a"><path d="M0 9h120v29.088H0z"/></clipPath><g clip-path="url(#a)"><g fill="#94a3b8"><path d="M118.256 32.513c.324-.081.485-.243.485-.566 0-.404-.242-.565-.727-.565h-.808v2.02h.323v-.89h.323l.566.89h.323zm-.323-.243h-.323v-.646h.404c.242 0 .485 0 .485.323s-.243.323-.566.323z"/><path d="M118.015 30.493c-1.051 0-1.939.808-1.939 1.939 0 1.05.808 1.94 1.939 1.94 1.05 0 1.939-.809 1.939-1.94-.081-1.131-.889-1.94-1.939-1.94zm0 3.555c-.889 0-1.616-.727-1.616-1.697s.727-1.697 1.616-1.697 1.616.728 1.616 1.697-.727 1.697-1.616 1.697zM.047 13.282h4.525v16.403h8.241v4.12H.047zm14.786 6.626h4.283v13.898h-4.283zm2.182-6.949c1.374 0 2.505 1.131 2.505 2.505s-1.131 2.505-2.505 2.505-2.505-1.131-2.505-2.505 1.05-2.505 2.505-2.505zm20.12.323h4.362v12.282l4.848-5.656h5.333l-5.656 6.383 5.495 7.515h-5.414l-4.606-6.868v6.868h-4.363zM21.54 19.908h4.12v1.858h.081c.566-1.13 2.02-2.262 4.121-2.262 4.363 0 5.171 2.909 5.171 6.626v7.595h-4.282v-6.787c0-1.616 0-3.717-2.262-3.717s-2.586 1.777-2.586 3.555v6.868H21.62V19.908z"/><path d="M60.727 25.24c0-1.454-1.131-2.666-2.666-2.666-1.859 0-2.909 1.293-3.07 2.667zm3.636 6.142c-1.373 1.777-3.636 2.747-5.898 2.747-4.283 0-7.757-2.909-7.757-7.353s3.474-7.353 7.757-7.353c4.04 0 6.545 2.909 6.545 7.353v1.374H54.99c.324 1.616 1.616 2.666 3.232 2.666 1.374 0 2.344-.727 3.07-1.697zm9.615-8.161c-2.181 0-3.474 1.454-3.474 3.555s1.293 3.555 3.474 3.555 3.475-1.454 3.475-3.555-1.293-3.555-3.475-3.555zm7.434 10.585h-3.96v-1.859h-.08c-.646.97-2.343 2.182-4.282 2.182-4.121 0-6.868-2.99-6.868-7.191 0-3.879 2.424-7.434 6.383-7.434 1.777 0 3.474.485 4.444 1.858h.08v-8.08h4.283zM112.682 9H87.876c-1.212 0-2.182.97-2.182 2.1v24.887c0 1.131.97 2.101 2.182 2.101h24.806c1.212 0 2.181-.97 2.181-2.1V11.1c0-1.131-.969-2.101-2.181-2.101z"/></g><path d="M90.058 19.908h4.282v13.898h-4.282zm2.181-6.868c1.374 0 2.505 1.131 2.505 2.505s-1.131 2.505-2.505 2.505-2.505-1.132-2.505-2.505c0-1.455 1.132-2.505 2.505-2.505zm4.848 6.868h4.121v1.858h.081c.565-1.13 2.02-2.262 4.121-2.262 4.363 0 5.171 2.909 5.171 6.626v7.595h-4.283v-6.787c0-1.616 0-3.717-2.262-3.717s-2.586 1.777-2.586 3.555v6.868h-4.282V19.908z" fill="#fff"/></g></svg>