<svg fill="none" height="48" width="120" xmlns="http://www.w3.org/2000/svg"><clipPath id="a"><path d="M0 11h120v25.632H0z"/></clipPath><g clip-path="url(#a)" fill="#94a3b8"><path d="M120 22.596v-2.11h-2.62v-3.281l-.089.027-2.461.753-.049.015v2.486h-3.885V19.1c0-.645.144-1.138.428-1.467.283-.326.686-.49 1.201-.49a2.8 2.8 0 011.139.258l.097.043v-2.222l-.046-.017c-.36-.13-.849-.194-1.455-.194-.765 0-1.459.166-2.065.496a3.53 3.53 0 00-1.417 1.4c-.333.599-.502 1.29-.502 2.055v1.523h-1.824v2.11h1.824v8.89h2.62v-8.89h3.885v5.65c0 2.327 1.098 3.506 3.262 3.506.356 0 .73-.042 1.113-.123.389-.084.654-.168.81-.257l.034-.02v-2.13l-.106.07a1.827 1.827 0 01-.527.23 1.998 1.998 0 01-.517.088c-.508 0-.883-.137-1.115-.407-.236-.272-.355-.748-.355-1.413v-5.194zm-19.398 7.014c-.951 0-1.7-.315-2.23-.936-.53-.624-.8-1.514-.8-2.645 0-1.167.27-2.08.801-2.715.529-.63 1.271-.951 2.207-.951.909 0 1.632.306 2.15.91.52.606.784 1.512.784 2.692 0 1.195-.248 2.112-.738 2.726-.486.61-1.218.919-2.174.919zm.116-9.39c-1.814 0-3.255.532-4.282 1.58-1.027 1.049-1.547 2.5-1.547 4.313 0 1.723.508 3.108 1.51 4.118 1.002 1.01 2.366 1.52 4.054 1.52 1.758 0 3.17-.538 4.197-1.601 1.027-1.062 1.547-2.499 1.547-4.27 0-1.75-.488-3.145-1.451-4.148-.964-1.003-2.319-1.511-4.028-1.511zm-10.053 0c-1.234 0-2.255.316-3.034.939-.785.626-1.183 1.447-1.183 2.44 0 .517.086.975.255 1.364.17.39.433.735.783 1.023.347.286.883.586 1.592.89.597.246 1.042.454 1.325.618.276.16.472.321.583.478.107.154.162.365.162.624 0 .74-.554 1.099-1.693 1.099-.422 0-.904-.088-1.432-.262a5.377 5.377 0 01-1.466-.744l-.109-.078v2.522l.04.019c.37.17.838.315 1.389.429.55.113 1.049.171 1.483.171 1.339 0 2.417-.317 3.204-.943.792-.63 1.193-1.47 1.193-2.499 0-.741-.216-1.377-.642-1.89-.423-.509-1.157-.976-2.18-1.388-.816-.328-1.338-.6-1.554-.808-.208-.202-.313-.487-.313-.848 0-.32.13-.576.397-.783.27-.209.645-.315 1.115-.315.437 0 .883.069 1.327.204.444.135.834.316 1.16.537l.106.074V20.7l-.04-.018a5.829 5.829 0 00-1.178-.328 7.185 7.185 0 00-1.29-.133zm-11.046 9.39c-.95 0-1.7-.315-2.229-.936-.531-.624-.8-1.514-.8-2.645 0-1.167.269-2.08.8-2.715.529-.63 1.271-.951 2.208-.951.908 0 1.631.306 2.15.91.52.606.784 1.512.784 2.692 0 1.195-.249 2.112-.739 2.726-.486.61-1.217.919-2.174.919zm.117-9.39c-1.815 0-3.256.532-4.282 1.58-1.027 1.049-1.548 2.5-1.548 4.313 0 1.723.508 3.108 1.51 4.118 1.003 1.01 2.367 1.52 4.054 1.52 1.759 0 3.171-.538 4.198-1.601 1.026-1.062 1.547-2.499 1.547-4.27 0-1.75-.488-3.145-1.452-4.148-.964-1.003-2.319-1.511-4.027-1.511zm-9.806 2.17v-1.904h-2.588v11h2.588V25.86c0-.957.216-1.743.645-2.337.422-.586.986-.884 1.673-.884.233 0 .495.039.778.115.28.075.484.157.604.244l.108.079v-2.61l-.042-.017c-.24-.103-.581-.154-1.013-.154-.65 0-1.232.209-1.73.62-.438.362-.754.857-.996 1.476zm-7.222-2.17c-1.187 0-2.246.255-3.147.757a5.097 5.097 0 00-2.075 2.134c-.473.911-.713 1.975-.713 3.162 0 1.04.232 1.993.692 2.834.46.842 1.112 1.5 1.937 1.957.823.457 1.775.688 2.829.688 1.23 0 2.28-.246 3.121-.73l.034-.02v-2.37l-.108.078c-.382.278-.808.5-1.266.66-.458.16-.875.24-1.24.24-1.016 0-1.83-.318-2.423-.944-.592-.627-.893-1.508-.893-2.616 0-1.116.313-2.019.931-2.685.616-.665 1.433-1.002 2.427-1.002.85 0 1.68.288 2.464.857l.108.079V20.8l-.035-.02c-.295-.165-.697-.302-1.197-.405a7.152 7.152 0 00-1.446-.155zm-7.718.266h-2.587v11h2.587zm-1.267-4.687a1.56 1.56 0 00-1.103.433c-.306.288-.462.65-.462 1.079 0 .421.154.777.458 1.058.301.28.674.421 1.107.421a1.6 1.6 0 001.112-.42 1.38 1.38 0 00.463-1.06c0-.412-.151-.771-.45-1.067a1.545 1.545 0 00-1.125-.444zm-6.457 3.875v11.813h2.641v-15.35h-3.655l-4.646 11.4-4.508-11.4h-3.804v15.35h2.482V19.672h.085l4.76 11.814h1.874l4.686-11.813zM12.173 23.18H0V11.007h12.173zm13.441 0H13.441V11.007h12.173zM12.173 36.625H0V24.452h12.173zm13.441 0H13.441V24.452h12.173z"/></g></svg>