<svg fill="none" height="48" width="120" xmlns="http://www.w3.org/2000/svg"><clipPath id="a"><path d="M0 12h120v23.232H0z"/></clipPath><g clip-path="url(#a)" fill="#94a3b8"><path d="M9.4 15.666c-1.407 0-1.83.619-1.83 1.998v2.28h3.772l-.366 3.714H7.57v11.23H3.04v-11.23H0v-3.687h3.04v-2.223c0-3.77 1.52-5.74 5.712-5.74.873 0 1.773.056 2.646.168v3.49m.253 11.284c0-4.164 1.97-7.316 6.135-7.316 2.252 0 3.63 1.154 4.306 2.617v-2.28h4.334v14.944h-4.362v-2.251c-.62 1.435-2.054 2.56-4.306 2.56-4.137 0-6.135-3.123-6.135-7.316m4.56.056c0 2.223.815 3.715 2.926 3.715 1.857 0 2.786-1.351 2.786-3.49v-1.52c0-2.138-.957-3.49-2.786-3.49-2.11 0-2.927 1.464-2.927 3.716zm19.642-8.33c1.745 0 3.434.366 4.334 1.013l-1.013 3.208a6.929 6.929 0 00-3.011-.675c-2.448 0-3.518 1.407-3.518 3.827v.873c0 2.42 1.07 3.827 3.518 3.827a6.956 6.956 0 003.011-.704l1.013 3.209c-.9.619-2.56 1.013-4.334 1.013-5.319 0-7.71-2.843-7.71-7.43v-.703c0-4.588 2.391-7.458 7.71-7.458zm4.925 8.358V26.67c0-4.25 2.42-7.035 7.345-7.035 4.644 0 6.698 2.814 6.698 6.98v2.391h-9.512c.084 2.055 1.013 2.955 3.518 2.955 1.632 0 3.264-.31 4.812-.9l.816 3.095c-1.182.62-3.63 1.098-5.797 1.098-5.741-.028-7.88-2.87-7.88-7.26zm4.531-1.97h5.46v-.366c0-1.632-.648-2.926-2.646-2.926-2.026 0-2.814 1.294-2.814 3.292zm26.285 1.886c0 4.165-1.998 7.317-6.163 7.317-2.252 0-3.828-1.126-4.447-2.561v2.251H56.68V12.457l4.53-.394v9.991c.648-1.323 2.111-2.392 4.222-2.392 4.137 0 6.163 3.124 6.163 7.317m-4.559-.113c0-2.11-.816-3.686-2.983-3.686-1.857 0-2.842 1.323-2.842 3.461v1.576c0 2.14 1.013 3.462 2.842 3.462 2.167 0 2.983-1.576 2.983-3.687zm6.023.929v-.76c0-4.306 2.448-7.401 7.43-7.401 4.98 0 7.429 3.096 7.429 7.401v.76c0 4.306-2.449 7.402-7.43 7.402s-7.43-3.068-7.43-7.402zm10.356-1.07c0-1.97-.816-3.545-2.927-3.545s-2.927 1.576-2.927 3.546v1.407c0 1.97.816 3.546 2.927 3.546s2.927-1.576 2.927-3.546zm6.05 1.07v-.76c0-4.306 2.448-7.401 7.43-7.401 4.981 0 7.429 3.096 7.429 7.401v.76c0 4.306-2.448 7.402-7.43 7.402-4.98 0-7.43-3.068-7.43-7.402zm10.356-1.07c0-1.97-.816-3.545-2.927-3.545s-2.926 1.576-2.926 3.546v1.407c0 1.97.816 3.546 2.926 3.546s2.927-1.576 2.927-3.546zm10.723.367l4.475-7.149h4.784l-4.672 7.402 4.869 7.57h-4.813l-4.643-7.317v7.317h-4.503V12.457l4.503-.422"/></g></svg>