<svg fill="none" height="48" width="120" xmlns="http://www.w3.org/2000/svg"><clipPath id="a"><path d="M0 5h120v38.208H0z"/></clipPath><g clip-path="url(#a)"><path d="M-.001 35.821V12.595l20.546-7.593 11.166 3.572v31.267l-11.166 3.366L0 35.821l20.546 2.473V11.256l-13.4 3.127v18.313L0 35.82zm53.595.163c-3.234 0-5.824-1.067-7.77-3.198-1.947-2.13-2.919-4.905-2.919-8.32 0-3.668.992-6.595 2.974-8.78 1.983-2.184 4.682-3.276 8.096-3.276 3.15 0 5.686 1.06 7.611 3.181 1.925 2.122 2.887 4.894 2.887 8.32 0 3.721-.987 6.663-2.959 8.828-1.972 2.164-4.61 3.245-7.92 3.245zm.19-21.156c-2.396 0-4.341.865-5.837 2.593-1.495 1.729-2.243 3.998-2.243 6.808 0 2.81.73 5.071 2.187 6.784s3.359 2.569 5.702 2.569c2.502 0 4.475-.817 5.917-2.45 1.442-1.633 2.164-3.918 2.164-6.855 0-3.012-.701-5.34-2.1-6.983-1.4-1.643-3.33-2.466-5.79-2.466zm20.194-3.691c-1.474 0-2.699.502-3.684 1.493-.986.991-1.48 2.34-1.48 4.048v2.639h-2.777v2.233h2.777v14.054h2.597V21.55h6.35v14.054h2.596V21.55h3.811v-2.233h-3.811v-2.513c0-2.3.912-3.447 2.736-3.447.647 0 1.222.133 1.73.418v-2.344c-.465-.19-1.088-.294-1.883-.294-1.475 0-2.713.503-3.7 1.494-.986.991-1.479 2.34-1.479 4.047v2.64h-6.35v-2.513c0-2.301.91-3.447 2.735-3.447.646 0 1.222.132 1.73.418v-2.345c-.466-.192-1.102-.294-1.898-.294zm13.983 4.04a1.654 1.654 0 01-1.193-.478c-.329-.318-.493-.72-.493-1.208s.164-.893.493-1.217a1.639 1.639 0 011.193-.485c.477 0 .882.161 1.217.485.335.324.5.729.5 1.217a1.608 1.608 0 01-.5 1.193c-.334.328-.74.493-1.217.493zm1.273 20.422h-2.61V19.312h2.609v16.287zm14.819-.747c-1.25.753-2.736 1.13-4.453 1.13-2.322 0-4.196-.756-5.622-2.268-1.425-1.511-2.14-3.469-2.14-5.877 0-2.683.768-4.838 2.306-6.465 1.538-1.628 3.59-2.442 6.156-2.442 1.43 0 2.693.265 3.785.796v2.671c-1.208-.847-2.502-1.272-3.88-1.272-1.666 0-3.03.597-4.097 1.79-1.066 1.193-1.598 2.76-1.598 4.7 0 1.909.5 3.415 1.502 4.518 1.003 1.102 2.346 1.653 4.033 1.653 1.42 0 2.758-.472 4.008-1.415zm15.946-6.743h-11.5c.043 1.812.53 3.212 1.463 4.198.934.986 2.216 1.48 3.85 1.48 1.834 0 3.521-.605 5.058-1.814v2.45c-1.431 1.038-3.324 1.558-5.678 1.558-2.302 0-4.11-.74-5.424-2.219-1.315-1.48-1.973-3.56-1.973-6.243 0-2.535.719-4.6 2.155-6.196 1.437-1.596 3.221-2.394 5.352-2.394 2.132 0 3.781.69 4.947 2.068s1.749 3.293 1.749 5.742v1.37zm-2.671-2.212c-.011-1.505-.374-2.677-1.091-3.515-.715-.838-1.71-1.256-2.982-1.256-1.23 0-2.274.44-3.133 1.32-.859.88-1.389 2.031-1.59 3.451h8.795z" fill="#94a3b8"/></g></svg>