<svg fill="none" height="48" width="120" xmlns="http://www.w3.org/2000/svg"><clipPath id="a"><path d="M0 4h120v39.168H0z"/></clipPath><g clip-path="url(#a)" fill="#94a3b8"><path d="M14.778 4.003h1.067c3.705.081 7.35 1.57 9.967 4.208-.967.987-1.953 1.933-2.9 2.92-1.47-1.329-3.241-2.356-5.174-2.718-2.86-.604-5.94-.06-8.336 1.57-2.617 1.712-4.389 4.611-4.772 7.712-.422 3.06.443 6.282 2.437 8.657 1.912 2.316 4.832 3.765 7.852 3.866 2.819.161 5.759-.705 7.812-2.678 1.61-1.389 2.356-3.503 2.598-5.557-3.343 0-6.685.02-10.027 0v-4.147h14.074c.724 4.45-.323 9.463-3.705 12.644-2.255 2.255-5.376 3.584-8.557 3.846-3.08.302-6.262-.282-9-1.772-3.282-1.752-5.9-4.712-7.188-8.195-1.208-3.201-1.228-6.825-.1-10.047 1.026-2.94 3-5.537 5.536-7.349 2.436-1.792 5.396-2.778 8.416-2.96zM95.517 5.05h4.308v28.752c-1.43 0-2.879.02-4.308-.02.02-9.564 0-19.148 0-28.732zM38.96 15.017c2.657-.503 5.536.06 7.731 1.65 1.993 1.41 3.382 3.625 3.805 6.041.544 2.799-.14 5.86-1.953 8.074-1.953 2.476-5.154 3.805-8.275 3.604-2.859-.161-5.637-1.59-7.329-3.926-1.912-2.577-2.375-6.121-1.329-9.141 1.047-3.242 4.007-5.718 7.35-6.302zm.604 3.825a5.413 5.413 0 00-2.82 1.792c-1.952 2.336-1.831 6.141.323 8.316 1.228 1.248 3.08 1.832 4.792 1.49 1.59-.282 2.98-1.35 3.745-2.759 1.329-2.396.946-5.698-1.087-7.57-1.31-1.208-3.222-1.712-4.954-1.269zm20.738-3.825c3.04-.584 6.362.262 8.637 2.396 3.705 3.322 4.108 9.543.947 13.369-1.913 2.416-5.014 3.745-8.074 3.604-2.92-.08-5.799-1.53-7.53-3.926-1.953-2.638-2.376-6.262-1.269-9.342 1.107-3.141 4.007-5.537 7.289-6.101zm.604 3.825a5.505 5.505 0 00-2.819 1.772c-1.933 2.295-1.852 6.04.221 8.235 1.229 1.309 3.141 1.953 4.913 1.59 1.57-.301 2.98-1.348 3.745-2.758 1.309-2.416.926-5.718-1.127-7.59-1.31-1.208-3.222-1.692-4.933-1.249zm17.497-2.657c2.315-1.45 5.396-1.853 7.892-.604.786.342 1.43.926 2.054 1.51.02-.544 0-1.108.02-1.671 1.35.02 2.698 0 4.067.02v17.758c-.02 2.678-.704 5.517-2.637 7.47-2.114 2.154-5.356 2.819-8.275 2.376-3.121-.463-5.84-2.738-7.047-5.618 1.208-.584 2.476-1.047 3.725-1.59.704 1.65 2.134 3.06 3.926 3.382 1.792.322 3.865-.12 5.033-1.61 1.249-1.53 1.249-3.625 1.188-5.497-.926.906-1.993 1.711-3.282 2.013-2.798.785-5.879-.18-8.033-2.074-2.175-1.892-3.463-4.812-3.343-7.711.06-3.282 1.913-6.443 4.712-8.154zm4.168 2.577c-1.229.201-2.376.886-3.161 1.832-1.893 2.255-1.893 5.86.02 8.074 1.087 1.309 2.839 2.034 4.53 1.852 1.59-.16 3.06-1.167 3.845-2.557 1.33-2.356 1.108-5.557-.684-7.61a4.954 4.954 0 00-4.55-1.591zM105 17.212c2.416-2.255 6.141-3.02 9.242-1.833 2.939 1.108 4.812 3.906 5.758 6.786-4.369 1.812-8.718 3.604-13.087 5.416.604 1.147 1.53 2.194 2.778 2.617 1.752.624 3.846.403 5.316-.765.584-.443 1.047-1.027 1.49-1.59 1.107.744 2.214 1.47 3.322 2.214-1.571 2.356-4.208 4.007-7.047 4.269-3.141.382-6.483-.826-8.517-3.282-3.342-3.866-3.02-10.35.745-13.832zm2.154 3.724c-.684.987-.966 2.195-.946 3.383a1575.84 1575.84 0 008.758-3.644c-.483-1.128-1.651-1.813-2.838-1.994-1.913-.342-3.906.685-4.974 2.255z"/></g></svg>