<svg width="24" height="24" viewBox="0 0 24 24" fill="none" xmlns="http://www.w3.org/2000/svg">
<path d="M10.6339 3.01241C11.1663 1.83842 12.8337 1.83842 13.3661 3.01241L13.6615 3.66381C14.0258 4.46721 15.0014 4.78428 15.7685 4.34856L16.4231 3.97669C17.5613 3.33013 18.9237 4.34973 18.6242 5.62406L18.5166 6.0823C18.3074 6.97232 18.9363 7.84081 19.8472 7.91981L20.3846 7.96642C21.717 8.08199 22.2435 9.75166 21.2183 10.6106L20.9323 10.8502C20.2168 11.4497 20.2168 12.5503 20.9323 13.1498L21.2183 13.3894C22.2435 14.2483 21.717 15.918 20.3846 16.0336L19.8472 16.0802C18.9363 16.1592 18.3074 17.0277 18.5166 17.9177L18.6242 18.3759C18.9237 19.6503 17.5613 20.6699 16.4231 20.0233L15.7685 19.6514C15.0014 19.2157 14.0258 19.5328 13.6615 20.3362L13.3661 20.9876C12.8337 22.1616 11.1663 22.1616 10.6339 20.9876L10.3385 20.3362C9.97417 19.5328 8.99857 19.2157 8.23153 19.6514L7.57687 20.0233C6.43866 20.6699 5.07633 19.6503 5.37576 18.3759L5.48344 17.9177C5.69257 17.0277 5.06366 16.1592 4.15282 16.0802L3.61539 16.0336C2.28296 15.918 1.7565 14.2483 2.78167 13.3894L3.06768 13.1498C3.78324 12.5503 3.78324 11.4497 3.06768 10.8502L2.78167 10.6106C1.7565 9.75166 2.28296 8.08199 3.61539 7.96642L4.15282 7.91981C5.06366 7.84081 5.69257 6.97232 5.48344 6.0823L5.37576 5.62406C5.07633 4.34973 6.43866 3.33013 7.57687 3.97669L8.23153 4.34856C8.99857 4.78428 9.97417 4.46721 10.3385 3.66381L10.6339 3.01241Z" stroke="#8D8D8D" stroke-width="1.5" stroke-miterlimit="10"/>
<path d="M8.11219 9.9393C8.69798 10.5251 9.64773 10.5251 10.2335 9.9393C10.8193 9.35352 10.8193 8.40377 10.2335 7.81798C9.64773 7.2322 8.69798 7.2322 8.11219 7.81798C7.5264 8.40377 7.5264 9.35352 8.11219 9.9393Z" fill="#8D8D8D"/>
<path d="M15.006 8.99481L8.99563 15.0052" stroke="#8D8D8D" stroke-width="1.5" stroke-linecap="round"/>
<path d="M13.7683 15.5962C14.354 16.182 15.3038 16.182 15.8896 15.5962C16.4754 15.0104 16.4754 14.0607 15.8896 13.4749C15.3038 12.8891 14.354 12.8891 13.7683 13.4749C13.1825 14.0607 13.1825 15.0104 13.7683 15.5962Z" fill="#8D8D8D"/>
</svg>