<svg xmlns="http://www.w3.org/2000/svg" width="1920" height="500" preserveAspectRatio="none"><g mask="url(&quot;#SvgjsMask1036&quot;)" fill="none"><path fill="rgba(23, 32, 41, 1)" d="M0 0h1920v500H0z"/><path d="M37 500L537 0h286.5l-500 500zm313.8 0l500-500h465l-500 500z" fill="url(&quot;#SvgjsLinearGradient1037&quot;)"/><path d="M679.6 500l500-500h73.5l-500 500zm275.8 0l500-500h78l-500 500z" fill="url(&quot;#SvgjsLinearGradient1037&quot;)"/><path d="M1902 500L1402 0h-340.5l500 500zm-342.8 0l-500-500H865.7l500 500zm-324.8 0L734.4 0h-378l500 500z" fill="url(&quot;#SvgjsLinearGradient1038&quot;)"/><path d="M961.6 500L461.6 0h-417l500 500z" fill="url(&quot;#SvgjsLinearGradient1038&quot;)"/><path d="M1443.116 500L1920 23.116V500z" fill="url(&quot;#SvgjsLinearGradient1037&quot;)"/><path d="M0 500h476.884L0 23.116z" fill="url(&quot;#SvgjsLinearGradient1038&quot;)"/></g><defs><linearGradient x1="0%" y1="100%" x2="100%" y2="0%" id="SvgjsLinearGradient1037"><stop stop-color="rgba(15, 70, 185, 0.2)" offset="0"/><stop stop-opacity="0" stop-color="rgba(15, 70, 185, 0.2)" offset=".66"/></linearGradient><linearGradient x1="100%" y1="100%" x2="0%" y2="0%" id="SvgjsLinearGradient1038"><stop stop-color="rgba(15, 70, 185, 0.2)" offset="0"/><stop stop-opacity="0" stop-color="rgba(15, 70, 185, 0.2)" offset=".66"/></linearGradient><mask id="SvgjsMask1036"><path fill="#fff" d="M0 0h1920v500H0z"/></mask></defs></svg>