<svg width="2133" height="396" viewBox="0 0 2133 396" fill="none" xmlns="http://www.w3.org/2000/svg">
<path fill-rule="evenodd" clip-rule="evenodd" d="M433.219 304.452H474.631V100.957H433.219V17.4703H611.903V100.957H568.026V304.452H611.903V379.586H433.219V304.452ZM936.044 144.6H866.396V102.189H828.018V304.452H866.396V379.586H695.013V304.452H734.623V102.189H697.478V144.6H627.83V17.4703H936.044V144.6ZM952.645 304.452H985.886V100.957H952.645V17.4703H1233.47V144.444H1141.56V100.957H1082.98V157.077H1167.46V235.635H1082.98V304.452H1141.56V253.312H1233.47V379.586H952.645V304.452ZM1625.45 17.4703V144.937H1515.69C1506.41 116.092 1470.35 104.445 1445.29 104.445C1375.84 104.445 1353.67 146.117 1348.75 199.332C1342.27 269.421 1393.36 307.267 1457.51 302.26C1488.87 299.809 1502.26 286.813 1522.65 252.936H1632.79C1604.32 350.508 1526.4 395.448 1450.1 395.448C1285 395.448 1240.56 277.177 1240.56 198.269C1240.56 87.8701 1323.11 11.6079 1443.82 11.6079C1491.1 11.6079 1504.72 13.6571 1545.22 38.3515V17.4703H1625.45ZM1633.26 304.452H1675.13V93.5768H1633.26V17.4703H1811.49V93.5768H1775.9V158.257H1881.23V93.5768H1841.93V17.4703H2023.87V93.5768H1982.02V304.452H2023.87V379.586H1845.64V304.452H1881.23V247.891H1775.9V304.452H1811.49V379.586H1633.26V304.452ZM2067.23 40.7899H2085.89C2099.02 40.7899 2107.04 44.0972 2107.04 55.9126C2107.04 65.2509 2101.62 68.6749 2093.6 69.0251L2106.33 90.6457H2094.17L2082.82 69.6217H2078.56V90.6457H2067.21L2067.23 40.7899Z" fill="white"/>
<path fill-rule="evenodd" clip-rule="evenodd" d="M2078.59 61.1138H2088.29C2092.9 61.1138 2095.01 59.5704 2095.01 54.7327C2095.01 49.7652 2092.3 49.2983 2088.29 49.2983H2078.59V61.1138Z" fill="white"/>
<path fill-rule="evenodd" clip-rule="evenodd" d="M336.565 212.574C327.876 283.078 267.813 337.681 194.949 337.681C122.603 337.681 62.8645 283.83 53.5262 214.04L0.93383 175.844C0.314855 182.189 0.0032101 188.56 0 194.936C0 302.623 87.2865 389.884 194.949 389.884C302.624 389.884 389.91 302.61 389.91 194.936C389.91 188.062 389.547 181.278 388.846 174.586L336.565 212.574Z" fill="white"/>
<path fill-rule="evenodd" clip-rule="evenodd" d="M127.819 68.9862C113.208 82.3911 103.032 99.9329 98.6498 119.271C94.2674 138.609 95.8864 158.824 103.291 177.218C110.695 195.612 123.533 211.311 140.091 222.219C156.65 233.128 176.141 238.727 195.964 238.271C215.787 237.814 235 231.324 251.038 219.665C267.077 208.005 279.178 191.733 285.728 173.017C292.278 154.302 292.965 134.034 287.698 114.918C282.43 95.8021 271.458 78.7472 256.245 66.029C279.706 77.2072 299.671 94.578 313.986 116.268C328.3 137.959 336.422 163.145 337.475 189.112L385.593 154.146C366.825 66.0679 288.618 0 194.937 0C100.867 0 22.3485 66.6516 4.03516 155.3L52.3735 190.409C53.1514 165.321 60.537 140.882 73.784 119.562C87.031 98.2422 105.67 80.7961 127.819 68.9862Z" fill="white"/>
</svg>
