<svg width="115" height="22" viewBox="0 0 115 22" fill="none" xmlns="http://www.w3.org/2000/svg">
<path fill-rule="evenodd" clip-rule="evenodd" d="M112.503 1.02759C113.88 1.02759 115 2.14885 115 3.52543C115 4.902 113.879 6.02327 112.503 6.02327C111.126 6.02327 110.006 4.9013 110.006 3.52543C110.006 2.14955 111.126 1.02759 112.503 1.02759Z" fill="#EE1717"/>
<path fill-rule="evenodd" clip-rule="evenodd" d="M114.223 3.52478C114.223 2.38393 113.516 1.67676 112.503 1.67676C111.489 1.67676 110.783 2.38393 110.783 3.52478C110.783 4.66563 111.489 5.37281 112.503 5.37281C113.516 5.37281 114.223 4.66563 114.223 3.52478Z" fill="white"/>
<path fill-rule="evenodd" clip-rule="evenodd" d="M23.3641 16.4195H25.5976V5.44469H23.3641V0.942143H33.0009V5.44469H30.6345V16.4195H33.0009V20.4716H23.3641V16.4195ZM50.4822 7.79843H46.726V5.51114H44.6563V16.4195H46.726V20.4716H37.4831V16.4195H39.6193V5.51114H37.616V7.79843H33.8598V0.942143H50.4822V7.79843ZM51.3776 16.4195H53.1703V5.44469H51.3776V0.942143H66.5227V7.79004H61.5662V5.44469H58.4066V8.47133H62.963V12.7081H58.4066V16.4195H61.5662V13.6615H66.5227V20.4716H51.3776V16.4195ZM87.663 0.942143V7.81662H81.7433C81.2432 6.26098 79.298 5.63284 77.9466 5.63284C74.2009 5.63284 73.0054 7.88027 72.7403 10.7502C72.3906 14.5302 75.1459 16.5713 78.6055 16.3013C80.2968 16.1691 81.0194 15.4682 82.119 13.6412H88.0589C86.5236 18.9034 82.3211 21.3271 78.2061 21.3271C69.3017 21.3271 66.9053 14.9485 66.9053 10.6929C66.9053 4.73891 71.3575 0.625977 77.8675 0.625977C80.4171 0.625977 81.1516 0.736492 83.336 2.0683V0.942143H87.663ZM88.0841 16.4195H90.342V5.04668H88.0841V0.942143H97.6963V5.04668H95.777V8.53498H101.457V5.04668H99.338V0.942143H109.15V5.04668H106.893V16.4195H109.15V20.4716H99.5381V16.4195H101.457V13.3691H95.777V16.4195H97.6963V20.4716H88.0841V16.4195ZM111.489 2.1998H112.495C113.203 2.1998 113.636 2.37817 113.636 3.0154C113.636 3.51902 113.344 3.70368 112.911 3.72257L113.598 4.8886H112.941L112.329 3.75474H112.1V4.8886H111.488L111.489 2.1998Z" fill="#EE1717"/>
<path fill-rule="evenodd" clip-rule="evenodd" d="M112.101 3.29592H112.625C112.873 3.29592 112.987 3.21268 112.987 2.95177C112.987 2.68387 112.841 2.65869 112.625 2.65869H112.101V3.29592Z" fill="white"/>
<path fill-rule="evenodd" clip-rule="evenodd" d="M18.1515 11.4643C17.6828 15.2667 14.4435 18.2115 10.5139 18.2115C6.61217 18.2115 3.39037 15.3072 2.88675 11.5433L0.0503628 9.48338C0.0169806 9.82557 0.000173125 10.1692 0 10.513C0 16.3208 4.70749 21.0269 10.5139 21.0269C16.3209 21.0269 21.0284 16.3201 21.0284 10.513C21.0284 10.1423 21.0088 9.77646 20.9711 9.41553L18.1515 11.4643Z" fill="#EE1717"/>
<path fill-rule="evenodd" clip-rule="evenodd" d="M6.89335 3.72053C6.10537 4.44348 5.55659 5.38953 5.32024 6.43247C5.08389 7.4754 5.17121 8.56561 5.57054 9.55763C5.96988 10.5496 6.66224 11.3963 7.55525 11.9846C8.44825 12.5729 9.49943 12.8749 10.5685 12.8503C11.6376 12.8257 12.6738 12.4756 13.5388 11.8468C14.4038 11.218 15.0564 10.3404 15.4097 9.33108C15.7629 8.32173 15.8 7.22865 15.5159 6.1977C15.2318 5.16675 14.64 4.24696 13.8196 3.56104C15.0849 4.1639 16.1616 5.10074 16.9336 6.27053C17.7056 7.44032 18.1436 8.79867 18.2004 10.1991L20.7955 8.3133C19.7833 3.56314 15.5655 0 10.5132 0C5.43984 0 1.20519 3.59462 0.217529 8.37556L2.82449 10.269C2.86644 8.916 3.26476 7.59799 3.97919 6.44817C4.69362 5.29835 5.69886 4.35746 6.89335 3.72053Z" fill="#EE1717"/>
</svg>
